<svg width="50" height="34" fill="none" xmlns="http://www.w3.org/2000/svg"><path d="M0 4.25C0 1.903 1.865 0 4.167 0h41.666C48.135 0 50 1.903 50 4.25v25.5c0 2.347-1.865 4.25-4.167 4.25H4.167C1.865 34 0 32.097 0 29.75V4.25z" fill="#1E4D51"/><path opacity=".5" fill-rule="evenodd" clip-rule="evenodd" d="M10.5 20.213c1.6 0 2.87-1.438 2.87-3.236 0-1.797-1.312-3.236-2.87-3.236-1.599 0-2.87 1.439-2.87 3.236 0 1.798 1.271 3.236 2.87 3.236z" fill="#fff"/><path opacity=".5" fill-rule="evenodd" clip-rule="evenodd" d="M14.97 17.652l-1.887-2.113c-.04-.045-.082-.045-.123 0l-1.271 1.394c-.041.045-.041.09 0 .134l.615.675.861.09c.041 0 .082.044.082.09v.853l.328.36c.041.045.082.045.123 0l1.271-1.393c.041 0 .041-.045 0-.09z" fill="url(#paint0_linear_18_263)"/><path opacity=".5" fill-rule="evenodd" clip-rule="evenodd" d="M13.247 20.978v-3.012c0-.045-.041-.09-.082-.09h-1.804c-.041 0-.082.045-.082.09v.944l.574.81c.04.044.04.089 0 .134l-.574.63v.494c0 .044.04.09.082.09h1.804c.041 0 .082-.046.082-.09z" fill="url(#paint1_linear_18_263)"/><path opacity=".5" fill-rule="evenodd" clip-rule="evenodd" d="M9.967 21.966l1.886-2.112c.041-.045.041-.09 0-.135l-1.271-1.393c-.041-.045-.082-.045-.123 0L9.844 19l-.123.989c0 .045-.041.09-.082.09h-.78l-.327.36c-.041.044-.041.089 0 .134l1.27 1.393a.117.117 0 00.165 0z" fill="url(#paint2_linear_18_263)"/><path opacity=".5" fill-rule="evenodd" clip-rule="evenodd" d="M6.974 20.079H9.64c.041 0 .082-.045.082-.09V18.01c0-.045-.04-.09-.082-.09h-.902l-.656.585c-.04.045-.082.045-.123 0l-.533-.585h-.45c-.042 0-.083.045-.083.09v1.978c-.04.045 0 .09.082.09z" fill="url(#paint3_linear_18_263)"/><path opacity=".5" fill-rule="evenodd" clip-rule="evenodd" d="M7.752 13.022v3.012c0 .045.041.09.082.09H9.64c.04 0 .082-.045.082-.09v-.944l-.574-.764c-.041-.045-.041-.09 0-.135l.574-.63v-.494c0-.045-.041-.09-.082-.09H7.834c-.04-.045-.082 0-.082.045z" fill="url(#paint4_linear_18_263)"/><path opacity=".5" fill-rule="evenodd" clip-rule="evenodd" d="M11.074 12.034l-1.886 2.112c-.04.045-.04.09 0 .135l1.271 1.393c.041.045.082.045.123 0l.615-.674.082-.989c0-.045.041-.09.082-.09h.78l.327-.36c.041-.044.041-.09 0-.134l-1.27-1.393c-.042-.045-.083-.045-.124 0z" fill="url(#paint5_linear_18_263)"/><path opacity=".5" fill-rule="evenodd" clip-rule="evenodd" d="M14.068 13.922h-2.665c-.041 0-.082.045-.082.09v1.977c0 .045.04.09.082.09h.902l.656-.584c.04-.045.082-.045.123 0l.533.584h.451c.041 0 .082-.045.082-.09v-1.977c0-.045-.041-.09-.082-.09z" fill="url(#paint6_linear_18_263)"/><path opacity=".5" fill-rule="evenodd" clip-rule="evenodd" d="M6.03 16.348l1.887 2.113c.04.045.082.045.123 0l1.271-1.393c.041-.045.041-.09 0-.135l-.615-.72-.861-.09c-.041 0-.082-.044-.082-.09v-.853l-.328-.36c-.041-.045-.082-.045-.123 0L6.03 16.214c-.041.045-.041.09 0 .134z" fill="url(#paint7_linear_18_263)"/><path opacity=".5" fill-rule="evenodd" clip-rule="evenodd" d="M13.248 17.966v.854l.328.36-.328-1.214zm-.164-2.472l.533.585h.45l-.983-.585zm-1.723-1.573h.78l.328-.36-1.107.36zm-2.214.225l.574-.63v-.493l-.574 1.123zm-1.394 1.888v-.854l-.328-.36.328 1.214zm.205 2.427l-.533-.584h-.45l.983.584zm1.681 1.618H8.86l-.328.36 1.107-.36zm2.215-.225l-.574.63v.494l.574-1.124z" fill="#3AACF8"/><path d="M19.48 17.831c0 .09 0 .135-.041.225 0 .09-.041.135-.082.225s-.123.135-.205.18c-.082.044-.164.044-.287.09h-.943v-1.349h.943c.123 0 .246.045.328.09a.52.52 0 01.205.225c.04.044.082.18.082.314zm4.51 1.483v-.629c0-.09 0-.135-.04-.135 0-.045-.042-.045-.124-.045h-1.722c-.082 0-.164 0-.246-.045-.082-.044-.123-.09-.123-.134-.041-.045-.041-.135-.041-.27v-.81h1.845c.041 0 .082 0 .082-.044 0-.045.041-.09.041-.135v-.584c0-.045 0-.135-.04-.135 0-.045-.042-.045-.083-.045h-1.845v-.54c0-.09 0-.179.04-.224.042-.045.083-.135.124-.18.04-.045.164-.045.246-.045h1.64c.041 0 .082 0 .082-.045s.041-.045.041-.135v-.629c0-.045 0-.135-.04-.135 0-.044-.042-.044-.083-.044H21.9c-.205 0-.41.044-.533.09-.164.09-.287.18-.37.314-.081.135-.163.27-.204.45-.041.18-.082.314-.082.494v2.382c0 .18 0 .314.04.494.042.135.083.315.206.405.082.135.205.225.369.314.164.09.369.135.574.135h1.927c.041 0 .082 0 .123-.045.041.045.041 0 .041-.045zm7.38-2.561a2.84 2.84 0 00.329-.405 1.58 1.58 0 00.205-.54l.287-1.303v-.045c0-.045 0-.045-.041-.045 0 0-.041-.045-.082-.045h-.82c-.041 0-.041.045-.041.09l-.287 1.214c-.041.135-.082.27-.123.36-.041.09-.123.134-.205.18-.082.044-.123.09-.205.09h-.697V14.37h-.902s-.041.045-.041.09v4.81c0 .044 0 .09.04.09h.903s.04-.046.04-.09v-2.158h.534c.164 0 .287 0 .369.045.123.045.205.09.246.18.082.09.123.224.164.36l.41 1.572c0 .045.04.09.04.09h.821c.04 0 .04 0 .082-.045l.04-.045v-.044l-.41-1.664c-.04-.09-.04-.224-.081-.314s-.082-.18-.123-.225c-.041-.09-.123-.135-.164-.18-.082.045-.205-.044-.287-.09zm2.707.764l.246-.9.246-1.033h.041l.246 1.034.246.899h-1.025zm1.23.899l.246.943c0 .045.041.09.082.09h.903c.04 0 .04 0 .081-.045l.041-.045v-.045l-1.353-4.54c-.04-.134-.082-.179-.123-.269-.04-.045-.082-.09-.164-.09s-.123-.045-.246-.045h-.369c-.082 0-.164 0-.205.045-.041 0-.123.045-.164.135a.362.362 0 00-.082.225l-1.353 4.54v.09c0 .044.04.044.082.044h.738c.04 0 .082 0 .123-.045.04 0 .04-.045.04-.09l.247-.898h1.476zm4.06-2.338c0 .135-.042.225-.083.36a.52.52 0 01-.205.225.76.76 0 01-.369.09h-.86v-1.394h.82a.72.72 0 01.327.09c.082.045.164.09.205.18.041.09.082.135.082.225a.362.362 0 01.082.224zm-1.518 3.236v-1.663h.861c.246 0 .451-.044.615-.09.164-.044.328-.134.451-.224s.205-.225.287-.315c.082-.135.123-.224.164-.36.042-.134.083-.224.083-.359 0-.09.04-.225.04-.315 0-.224-.04-.449-.123-.629-.081-.18-.163-.36-.286-.494-.123-.135-.288-.27-.493-.315a1.52 1.52 0 00-.615-.135h-1.599c-.082 0-.164 0-.246.045l-.123.135c-.04.045-.04.135-.04.225v4.45c0 .044 0 .09.04.134.041.045.041.045.123.045h.779c.041 0 .041 0 .041-.045.041 0 .041-.045.041-.09zM44 15.18v-.63c0-.045 0-.09-.04-.135 0 0-.041-.045-.123-.045h-3.322c-.04 0-.082 0-.082.045 0 0-.04.045-.04.135v.63c0 .044 0 .09.04.09 0 .044.041.044.082.044h1.149v3.955c0 .045 0 .09.04.135.042.045.042.045.124.045h.697c.082 0 .123 0 .123-.045.04 0 .04-.045.04-.135v-3.955h1.19c.04 0 .082 0 .082-.045 0 0 .04-.045.04-.09zm-26.693 4.27h1.64c.206 0 .41-.046.616-.136.205-.09.369-.18.492-.314.123-.135.246-.315.328-.495.082-.18.123-.404.123-.629v-.27a1.5 1.5 0 00-.082-.36 1.4 1.4 0 00-.164-.359 1.009 1.009 0 00-.287-.314 1.458 1.458 0 00-.451-.225 2.62 2.62 0 00-.656-.09h-.943v-.899h1.968c.04 0 .082 0 .082-.045 0 0 .04-.045.04-.09v-.629c0-.045 0-.09-.04-.135 0-.045-.041-.045-.082-.045H17.39c-.082 0-.165 0-.247.045-.04.045-.122.09-.122.18-.041.09-.041.18-.041.27v4.135c0 .09 0 .18.04.27.042.044.042.09.123.134h.165zm7.668-4.54l-.04 1.079c0 .359-.042.719-.083.988-.04.45-.082 1.573-.615 1.573-.04 0-.082 0-.123.045 0 .045-.04.09-.04.135v.63c0 .044 0 .09.04.134 0 .045.041.045.123.045.41 0 .78-.045 1.066-.54l.246-.539c.041-.224.123-.449.123-.674.041-.27.082-.54.082-.809.041-.314.041-.629.082-.989l.041-.494h1.271v3.955c0 .045 0 .09.041.09 0 0 .041.045.082.045h.779c.041 0 .041 0 .041-.045V15c0-.09 0-.18-.04-.269-.041-.09-.082-.135-.123-.18-.041-.045-.124-.045-.247-.045h-2.337c-.082 0-.164 0-.246.045-.04.045-.082.09-.123.18.041-.045.041.045 0 .18z" fill="#5593DD"/><defs><linearGradient id="paint0_linear_18_263" x1="11.614" y1="17.091" x2="15.04" y2="17.53" gradientUnits="userSpaceOnUse"><stop stop-color="#A2D9F7"/><stop offset=".5" stop-color="#1B9DD9"/><stop offset="1" stop-color="#055795"/></linearGradient><linearGradient id="paint1_linear_18_263" x1="11.25" y1="17.933" x2="13.539" y2="20.808" gradientUnits="userSpaceOnUse"><stop stop-color="#A2D9F7"/><stop offset=".5" stop-color="#1B9DD9"/><stop offset="1" stop-color="#055795"/></linearGradient><linearGradient id="paint2_linear_18_263" x1="10.441" y1="18.246" x2="9.861" y2="22.01" gradientUnits="userSpaceOnUse"><stop stop-color="#A2D9F7"/><stop offset=".5" stop-color="#1B9DD9"/><stop offset="1" stop-color="#055795"/></linearGradient><linearGradient id="paint3_linear_18_263" x1="9.74" y1="17.866" x2="6.775" y2="19.761" gradientUnits="userSpaceOnUse"><stop stop-color="#A2D9F7"/><stop offset=".5" stop-color="#1B9DD9"/><stop offset="1" stop-color="#055795"/></linearGradient><linearGradient id="paint4_linear_18_263" x1="9.737" y1="16.074" x2="7.495" y2="13.152" gradientUnits="userSpaceOnUse"><stop stop-color="#A2D9F7"/><stop offset=".5" stop-color="#1B9DD9"/><stop offset="1" stop-color="#055795"/></linearGradient><linearGradient id="paint5_linear_18_263" x1="10.547" y1="15.74" x2="11.199" y2="11.986" gradientUnits="userSpaceOnUse"><stop stop-color="#A2D9F7"/><stop offset=".5" stop-color="#1B9DD9"/><stop offset="1" stop-color="#055795"/></linearGradient><linearGradient id="paint6_linear_18_263" x1="11.325" y1="16.128" x2="14.279" y2="14.169" gradientUnits="userSpaceOnUse"><stop stop-color="#A2D9F7"/><stop offset=".5" stop-color="#1B9DD9"/><stop offset="1" stop-color="#055795"/></linearGradient><linearGradient id="paint7_linear_18_263" x1="9.397" y1="16.933" x2="5.974" y2="16.438" gradientUnits="userSpaceOnUse"><stop stop-color="#A2D9F7"/><stop offset=".5" stop-color="#1B9DD9"/><stop offset="1" stop-color="#055795"/></linearGradient></defs></svg>