<svg width="50" height="34" fill="none" xmlns="http://www.w3.org/2000/svg"><path d="M0 4.25C0 1.903 1.865 0 4.167 0h41.666C48.135 0 50 1.903 50 4.25v25.5c0 2.347-1.865 4.25-4.167 4.25H4.167C1.865 34 0 32.097 0 29.75V4.25z" fill="#1E4D51"/><path d="M30.467 27.026H19.531V6.978h10.936v20.048z" fill="#6C6BBD"/><path d="M20.45 16.75a12.82 12.82 0 014.773-10.024A12.292 12.292 0 0017.5 4C10.596 4 5 9.708 5 16.75S10.596 29.5 17.498 29.5c2.916 0 5.6-1.019 7.725-2.726A12.821 12.821 0 0120.45 16.75z" fill="#EB001B"/><path d="M45.217 17c0 7.042-5.596 12.75-12.498 12.75a12.295 12.295 0 01-7.726-2.726A12.82 12.82 0 0029.768 17a12.82 12.82 0 00-4.775-10.024A12.295 12.295 0 0132.72 4.25c6.902 0 12.498 5.708 12.498 12.75z" fill="#0099DF"/></svg>