<svg width="50" height="34" fill="none" xmlns="http://www.w3.org/2000/svg"><path d="M0 4.25C0 1.903 1.865 0 4.167 0h41.666C48.135 0 50 1.903 50 4.25v25.5c0 2.347-1.865 4.25-4.167 4.25H4.167C1.865 34 0 32.097 0 29.75V4.25z" fill="#1E4D51"/><path d="M30.223 6.935l-10.77.04.316 20.09 10.77-.04-.316-20.09z" fill="#FF5F00"/><path d="M20.166 17.056C20.102 12.97 21.9 9.34 24.714 6.984c-2.123-1.698-4.784-2.718-7.67-2.708-6.836.025-12.276 5.766-12.165 12.836.112 7.07 5.733 12.77 12.569 12.746a11.902 11.902 0 007.583-2.764c-2.888-2.299-4.8-5.952-4.865-10.038z" fill="#EB001B"/><path d="M45.112 16.882c.111 7.07-5.329 12.811-12.165 12.836-2.886.011-5.547-1.01-7.67-2.707 2.85-2.356 4.613-5.987 4.548-10.073a13.163 13.163 0 00-4.864-10.037 11.903 11.903 0 017.583-2.764C39.38 4.112 45 9.847 45.111 16.882z" fill="#F79E1B"/></svg>