<svg width="50" height="34" fill="none" xmlns="http://www.w3.org/2000/svg"><path d="M0 4.25C0 1.903 1.865 0 4.167 0h41.666C48.135 0 50 1.903 50 4.25v25.5c0 2.347-1.865 4.25-4.167 4.25H4.167C1.865 34 0 32.097 0 29.75V4.25z" fill="#1E4D51"/><path d="M43.031 10.662h-2.62c-.791 0-1.4.248-1.766 1.056l-4.995 11.62h3.533s.61-1.554.731-1.927h4.325c.122.435.427 1.864.427 1.864h3.167l-2.802-12.613zm-4.142 8.14c.304-.746 1.34-3.542 1.34-3.542 0 .062.304-.746.426-1.18l.244 1.118s.67 3.044.792 3.666h-2.802v-.062zm-4.995.372c0 2.61-2.315 4.35-5.909 4.35-1.523 0-2.985-.31-3.777-.684l.488-2.858.426.187c1.097.497 1.828.683 3.168.683.974 0 2.01-.373 2.01-1.242 0-.56-.427-.933-1.767-1.554-1.279-.621-2.985-1.615-2.985-3.417 0-2.486 2.376-4.163 5.727-4.163 1.279 0 2.375.248 3.045.559l-.487 2.734-.244-.249a6.435 6.435 0 00-2.558-.497c-1.28.062-1.888.622-1.888 1.119 0 .559.73.994 1.888 1.553 1.95.932 2.863 1.988 2.863 3.48z" fill="#3362AB"/><path d="M4.167 10.786l.06-.248h5.24c.73 0 1.279.248 1.461 1.056l1.158 5.592c-1.158-2.982-3.838-5.405-7.92-6.4z" fill="#F9B50B"/><path d="M19.457 10.662l-5.3 12.614h-3.594L7.517 12.713c2.193 1.429 4.02 3.666 4.69 5.219l.366 1.305 3.29-8.637h3.594v.062zm1.401-.062h3.35l-2.132 12.676h-3.35L20.858 10.6z" fill="#3362AB"/></svg>