<svg width="94" height="14" viewBox="0 0 94 14" fill="none" xmlns="http://www.w3.org/2000/svg">
<path d="M10.4218 11.542C10.6258 11.842 10.8478 12.082 11.0878 12.262C11.3398 12.43 11.6458 12.556 12.0058 12.64V13C11.4298 12.964 10.7098 12.946 9.84583 12.946C9.19783 12.946 8.57983 12.964 7.99183 13V12.64C8.27983 12.628 8.48983 12.592 8.62183 12.532C8.75383 12.472 8.81983 12.382 8.81983 12.262C8.81983 12.142 8.75983 11.998 8.63983 11.83L6.01183 7.87C5.66383 7.342 5.36983 7 5.12983 6.844C4.88983 6.676 4.55383 6.58 4.12183 6.556V11.092C4.12183 11.548 4.15783 11.878 4.22983 12.082C4.30183 12.286 4.43383 12.424 4.62583 12.496C4.82983 12.568 5.14783 12.616 5.57983 12.64V13C5.02783 12.964 4.26583 12.946 3.29383 12.946C2.26183 12.946 1.49383 12.964 0.98983 13V12.64C1.42183 12.616 1.73383 12.568 1.92583 12.496C2.12983 12.424 2.26783 12.286 2.33983 12.082C2.41183 11.878 2.44783 11.548 2.44783 11.092V2.164C2.44783 1.708 2.41183 1.378 2.33983 1.174C2.26783 0.97 2.12983 0.832 1.92583 0.76C1.73383 0.687999 1.42183 0.639999 0.98983 0.616V0.256C1.49383 0.291999 2.26183 0.309999 3.29383 0.309999C4.25383 0.309999 5.01583 0.291999 5.57983 0.256V0.616C5.14783 0.639999 4.82983 0.687999 4.62583 0.76C4.43383 0.832 4.30183 0.97 4.22983 1.174C4.15783 1.378 4.12183 1.708 4.12183 2.164V6.196C4.99783 6.16 5.68183 5.824 6.17383 5.188L7.90183 2.992C8.51383 2.236 8.81983 1.66 8.81983 1.264C8.81983 0.844 8.44783 0.627999 7.70383 0.616V0.256C8.38783 0.291999 9.07783 0.309999 9.77383 0.309999C10.4338 0.309999 10.9438 0.291999 11.3038 0.256V0.616C10.9078 0.676 10.5358 0.808 10.1878 1.012C9.83983 1.204 9.50383 1.51 9.17983 1.93L6.24583 5.692L10.4218 11.542ZM17.7348 0.616C17.3028 0.639999 16.9848 0.687999 16.7808 0.76C16.5888 0.832 16.4568 0.97 16.3848 1.174C16.3128 1.378 16.2768 1.708 16.2768 2.164V11.092C16.2768 11.548 16.3128 11.878 16.3848 12.082C16.4568 12.286 16.5888 12.424 16.7808 12.496C16.9848 12.568 17.3028 12.616 17.7348 12.64V13C17.1828 12.964 16.4208 12.946 15.4488 12.946C14.4168 12.946 13.6488 12.964 13.1448 13V12.64C13.5768 12.616 13.8888 12.568 14.0808 12.496C14.2848 12.424 14.4228 12.286 14.4948 12.082C14.5668 11.878 14.6028 11.548 14.6028 11.092V2.164C14.6028 1.708 14.5668 1.378 14.4948 1.174C14.4228 0.97 14.2848 0.832 14.0808 0.76C13.8888 0.687999 13.5768 0.639999 13.1448 0.616V0.256C13.6488 0.291999 14.4168 0.309999 15.4488 0.309999C16.4088 0.309999 17.1708 0.291999 17.7348 0.256V0.616ZM24.1944 0.616C23.7624 0.639999 23.4444 0.687999 23.2404 0.76C23.0484 0.832 22.9164 0.97 22.8444 1.174C22.7724 1.378 22.7364 1.708 22.7364 2.164V11.092C22.7364 11.548 22.7724 11.878 22.8444 12.082C22.9164 12.286 23.0484 12.424 23.2404 12.496C23.4444 12.556 23.7624 12.586 24.1944 12.586H25.5084C26.2524 12.586 26.8164 12.484 27.2004 12.28C27.5964 12.064 27.8844 11.722 28.0644 11.254C28.2444 10.786 28.3764 10.108 28.4604 9.22H28.8744C28.8384 9.592 28.8204 10.084 28.8204 10.696C28.8204 11.38 28.8624 12.148 28.9464 13C28.1304 12.964 26.7564 12.946 24.8244 12.946C22.5204 12.946 20.7804 12.964 19.6044 13V12.64C20.0364 12.616 20.3484 12.568 20.5404 12.496C20.7444 12.424 20.8824 12.286 20.9544 12.082C21.0264 11.878 21.0624 11.548 21.0624 11.092V2.164C21.0624 1.708 21.0264 1.378 20.9544 1.174C20.8824 0.97 20.7444 0.832 20.5404 0.76C20.3484 0.687999 20.0364 0.639999 19.6044 0.616V0.256C20.1084 0.291999 20.8764 0.309999 21.9084 0.309999C22.8684 0.309999 23.6304 0.291999 24.1944 0.256V0.616ZM35.1364 0.616C34.7044 0.639999 34.3864 0.687999 34.1824 0.76C33.9904 0.832 33.8584 0.97 33.7864 1.174C33.7144 1.378 33.6784 1.708 33.6784 2.164V11.092C33.6784 11.548 33.7144 11.878 33.7864 12.082C33.8584 12.286 33.9904 12.424 34.1824 12.496C34.3864 12.556 34.7044 12.586 35.1364 12.586H36.4504C37.1944 12.586 37.7584 12.484 38.1424 12.28C38.5384 12.064 38.8264 11.722 39.0064 11.254C39.1864 10.786 39.3184 10.108 39.4024 9.22H39.8164C39.7804 9.592 39.7624 10.084 39.7624 10.696C39.7624 11.38 39.8044 12.148 39.8884 13C39.0724 12.964 37.6984 12.946 35.7664 12.946C33.4624 12.946 31.7224 12.964 30.5464 13V12.64C30.9784 12.616 31.2904 12.568 31.4824 12.496C31.6864 12.424 31.8244 12.286 31.8964 12.082C31.9684 11.878 32.0044 11.548 32.0044 11.092V2.164C32.0044 1.708 31.9684 1.378 31.8964 1.174C31.8244 0.97 31.6864 0.832 31.4824 0.76C31.2904 0.687999 30.9784 0.639999 30.5464 0.616V0.256C31.0504 0.291999 31.8184 0.309999 32.8504 0.309999C33.8104 0.309999 34.5724 0.291999 35.1364 0.256V0.616ZM50.9384 11.488C51.2264 12.232 51.6404 12.616 52.1804 12.64V13C51.7004 12.964 51.0584 12.946 50.2544 12.946C49.2224 12.946 48.4544 12.964 47.9504 13V12.64C48.4064 12.616 48.7304 12.562 48.9224 12.478C49.1264 12.382 49.2284 12.214 49.2284 11.974C49.2284 11.77 49.1564 11.488 49.0124 11.128L47.9144 8.176H43.5584L42.8204 10.084C42.5804 10.732 42.4604 11.224 42.4604 11.56C42.4604 11.932 42.5864 12.202 42.8384 12.37C43.1024 12.538 43.4984 12.628 44.0264 12.64V13C43.3424 12.964 42.6524 12.946 41.9564 12.946C41.4164 12.946 40.9664 12.964 40.6064 13V12.64C41.2064 12.496 41.6804 11.974 42.0284 11.074L46.2584 0.165999H46.5464L50.9384 11.488ZM47.7704 7.816L45.7544 2.434L43.7024 7.816H47.7704ZM62.9427 0.256C65.0667 0.256 66.6567 0.79 67.7127 1.858C68.7687 2.914 69.2967 4.456 69.2967 6.484C69.2967 7.792 69.0387 8.938 68.5227 9.922C68.0067 10.906 67.2567 11.668 66.2727 12.208C65.3007 12.736 64.1367 13 62.7807 13L61.7367 12.982C61.0647 12.958 60.5727 12.946 60.2607 12.946C59.2767 12.946 58.5327 12.964 58.0287 13V12.64C58.4607 12.616 58.7727 12.568 58.9647 12.496C59.1687 12.424 59.3067 12.286 59.3787 12.082C59.4507 11.878 59.4867 11.548 59.4867 11.092V2.164C59.4867 1.708 59.4507 1.378 59.3787 1.174C59.3067 0.97 59.1687 0.832 58.9647 0.76C58.7727 0.687999 58.4607 0.639999 58.0287 0.616V0.256C58.4487 0.291999 59.0307 0.309999 59.7747 0.309999L61.3047 0.291999C62.1207 0.268 62.6667 0.256 62.9427 0.256ZM62.4927 0.579999C62.1207 0.579999 61.8387 0.621999 61.6467 0.705999C61.4667 0.789999 61.3407 0.939999 61.2687 1.156C61.1967 1.372 61.1607 1.696 61.1607 2.128V11.128C61.1607 11.56 61.1967 11.884 61.2687 12.1C61.3407 12.316 61.4667 12.466 61.6467 12.55C61.8387 12.634 62.1267 12.676 62.5107 12.676C63.7827 12.676 64.7847 12.448 65.5167 11.992C66.2487 11.524 66.7587 10.846 67.0467 9.958C67.3467 9.07 67.4967 7.936 67.4967 6.556C67.4967 5.176 67.3347 4.054 67.0107 3.19C66.6867 2.314 66.1587 1.66 65.4267 1.228C64.7067 0.795999 63.7287 0.579999 62.4927 0.579999ZM82.5423 0.616C82.1223 0.639999 81.8103 0.705999 81.6063 0.813999C81.4023 0.909999 81.2643 1.078 81.1923 1.318C81.1203 1.546 81.0843 1.888 81.0843 2.344V13.09H80.6703L73.1103 1.408V10.912C73.1103 11.38 73.1463 11.728 73.2183 11.956C73.3023 12.184 73.4583 12.352 73.6863 12.46C73.9143 12.556 74.2683 12.616 74.7483 12.64V13C74.3163 12.964 73.7043 12.946 72.9123 12.946C72.1923 12.946 71.6343 12.964 71.2383 13V12.64C71.6583 12.616 71.9703 12.556 72.1743 12.46C72.3783 12.352 72.5163 12.184 72.5883 11.956C72.6603 11.716 72.6963 11.368 72.6963 10.912V2.164C72.6963 1.708 72.6603 1.378 72.5883 1.174C72.5163 0.97 72.3783 0.832 72.1743 0.76C71.9823 0.687999 71.6703 0.639999 71.2383 0.616V0.256C71.6343 0.291999 72.1923 0.309999 72.9123 0.309999C73.4523 0.309999 73.9203 0.291999 74.3163 0.256L80.6703 10.048V2.344C80.6703 1.876 80.6283 1.528 80.5443 1.3C80.4723 1.072 80.3223 0.909999 80.0943 0.813999C79.8663 0.705999 79.5123 0.639999 79.0323 0.616V0.256C79.4643 0.291999 80.0763 0.309999 80.8683 0.309999C81.5883 0.309999 82.1463 0.291999 82.5423 0.256V0.616ZM90.2833 6.268C91.6033 6.448 92.5453 6.832 93.1093 7.42C93.6733 7.996 93.9553 8.692 93.9553 9.508C93.9553 10.192 93.7813 10.798 93.4333 11.326C93.0853 11.854 92.5873 12.268 91.9393 12.568C91.2913 12.856 90.5233 13 89.6353 13C89.3113 13 89.0353 12.994 88.8073 12.982C88.0393 12.958 87.2833 12.946 86.5393 12.946C85.5553 12.946 84.8113 12.964 84.3073 13V12.64C84.7393 12.616 85.0513 12.568 85.2433 12.496C85.4473 12.424 85.5853 12.286 85.6573 12.082C85.7293 11.878 85.7653 11.548 85.7653 11.092V2.164C85.7653 1.708 85.7293 1.378 85.6573 1.174C85.5853 0.97 85.4473 0.832 85.2433 0.76C85.0513 0.687999 84.7393 0.639999 84.3073 0.616V0.256C84.8113 0.291999 85.5433 0.309999 86.5033 0.309999L88.4473 0.291999C88.6753 0.28 88.9333 0.274 89.2213 0.274C90.4453 0.274 91.3813 0.532 92.0293 1.048C92.6893 1.564 93.0193 2.248 93.0193 3.1C93.0193 3.796 92.7973 4.42 92.3533 4.972C91.9213 5.524 91.2313 5.944 90.2833 6.232V6.268ZM88.7713 0.616C88.3993 0.616 88.1173 0.657999 87.9253 0.741999C87.7453 0.825999 87.6193 0.976 87.5473 1.192C87.4753 1.408 87.4393 1.732 87.4393 2.164V6.232H88.6453C89.6293 6.232 90.3133 5.968 90.6973 5.44C91.0933 4.9 91.2913 4.186 91.2913 3.298C91.2913 2.398 91.0933 1.726 90.6973 1.282C90.3013 0.838 89.6593 0.616 88.7713 0.616ZM88.7893 12.586C91.0333 12.586 92.1553 11.536 92.1553 9.436C92.1553 8.488 91.8973 7.768 91.3813 7.276C90.8773 6.784 90.0673 6.538 88.9513 6.538H87.4393V11.092C87.4393 11.524 87.4753 11.842 87.5473 12.046C87.6193 12.25 87.7453 12.394 87.9253 12.478C88.1173 12.55 88.4053 12.586 88.7893 12.586Z" fill="#E4B0A2"/>
</svg>
