<svg width="30" height="30" viewBox="0 0 30 30" fill="none" xmlns="http://www.w3.org/2000/svg">
<path fill-rule="evenodd" clip-rule="evenodd" d="M30 15C30 23.2843 23.2843 30 15 30C6.71573 30 0 23.2843 0 15C0 6.71573 6.71573 0 15 0C23.2843 0 30 6.71573 30 15ZM15.5375 11.0737C14.0785 11.6805 11.1626 12.9365 6.78982 14.8417C6.07975 15.124 5.70778 15.4003 5.67392 15.6704C5.61669 16.1269 6.18835 16.3066 6.9668 16.5514C7.07269 16.5847 7.1824 16.6192 7.29488 16.6558C8.06075 16.9047 9.09099 17.196 9.62657 17.2075C10.1124 17.218 10.6546 17.0178 11.2533 16.6067C15.3389 13.8488 17.4479 12.4548 17.5803 12.4247C17.6738 12.4035 17.8032 12.3769 17.8909 12.4548C17.9786 12.5328 17.97 12.6804 17.9607 12.72C17.9041 12.9614 15.6601 15.0476 14.4988 16.1272C14.1368 16.4638 13.88 16.7025 13.8276 16.757C13.71 16.8792 13.5901 16.9947 13.4749 17.1058C12.7634 17.7917 12.2298 18.306 13.5045 19.146C14.117 19.5496 14.6072 19.8834 15.0961 20.2164C15.6302 20.5801 16.1628 20.9428 16.852 21.3946C17.0276 21.5097 17.1952 21.6292 17.3586 21.7457C17.98 22.1887 18.5384 22.5868 19.2282 22.5233C19.629 22.4864 20.043 22.1095 20.2533 20.9854C20.7502 18.3289 21.727 12.5731 21.9527 10.2012C21.9725 9.99342 21.9476 9.72747 21.9276 9.61072C21.9077 9.49398 21.8659 9.32764 21.7142 9.2045C21.5344 9.05867 21.257 9.02792 21.1329 9.03011C20.5687 9.04005 19.7031 9.34103 15.5375 11.0737Z" fill="#1E4D51"/>
</svg>
