<svg width="139" height="14" viewBox="0 0 139 14" fill="none" xmlns="http://www.w3.org/2000/svg">
<path d="M11.88 12.1C11.616 12.496 11.346 12.79 11.07 12.982C10.794 13.162 10.422 13.252 9.954 13.252C9.474 13.252 9.072 13.114 8.748 12.838C8.436 12.562 8.196 12.052 8.028 11.308L7.524 9.076C7.38 8.464 7.236 7.996 7.092 7.672C6.96 7.336 6.732 7.072 6.408 6.88C6.096 6.676 5.652 6.574 5.076 6.574H3.888V11.092C3.888 11.548 3.924 11.878 3.996 12.082C4.068 12.286 4.2 12.424 4.392 12.496C4.596 12.568 4.914 12.616 5.346 12.64V13C4.794 12.964 4.032 12.946 3.06 12.946C2.028 12.946 1.26 12.964 0.756 13V12.64C1.188 12.616 1.5 12.568 1.692 12.496C1.896 12.424 2.034 12.286 2.106 12.082C2.178 11.878 2.214 11.548 2.214 11.092V2.164C2.214 1.708 2.178 1.378 2.106 1.174C2.034 0.97 1.896 0.832 1.692 0.76C1.5 0.687999 1.188 0.639999 0.756 0.616V0.256C1.26 0.291999 2.028 0.309999 3.06 0.309999C4.02 0.309999 4.782 0.291999 5.346 0.256V0.616C4.914 0.639999 4.596 0.687999 4.392 0.76C4.2 0.832 4.068 0.97 3.996 1.174C3.924 1.378 3.888 1.708 3.888 2.164V6.232C4.776 6.22 5.484 5.872 6.012 5.188L7.74 2.992C8.352 2.236 8.658 1.66 8.658 1.264C8.658 0.844 8.286 0.627999 7.542 0.616V0.256C8.226 0.291999 8.916 0.309999 9.612 0.309999C10.272 0.309999 10.782 0.291999 11.142 0.256V0.616C10.326 0.735999 9.618 1.174 9.018 1.93L5.634 6.25C6.594 6.286 7.374 6.496 7.974 6.88C8.586 7.252 9 7.906 9.216 8.842L9.738 11.11C9.87 11.686 9.99 12.076 10.098 12.28C10.218 12.484 10.392 12.586 10.62 12.586C10.824 12.586 10.992 12.532 11.124 12.424C11.268 12.316 11.43 12.142 11.61 11.902L11.88 12.1ZM23.8272 0.616C23.3952 0.639999 23.0772 0.687999 22.8732 0.76C22.6812 0.832 22.5492 0.97 22.4772 1.174C22.4052 1.378 22.3692 1.708 22.3692 2.164V11.092C22.3692 11.548 22.4052 11.878 22.4772 12.082C22.5492 12.286 22.6812 12.424 22.8732 12.496C23.0772 12.568 23.3952 12.616 23.8272 12.64V13C23.3232 12.964 22.5552 12.946 21.5232 12.946C20.3952 12.946 19.5132 12.964 18.8772 13V12.64C19.4172 12.616 19.8072 12.568 20.0472 12.496C20.2872 12.424 20.4552 12.286 20.5512 12.082C20.6472 11.878 20.6952 11.548 20.6952 11.092V2.164C20.6952 1.708 20.6592 1.378 20.5872 1.174C20.5152 0.958 20.3772 0.814 20.1732 0.741999C19.9692 0.657999 19.6572 0.616 19.2372 0.616H19.0032C18.5712 0.616 18.2592 0.657999 18.0672 0.741999C17.8872 0.814 17.7612 0.952 17.6892 1.156C17.6292 1.348 17.5812 1.684 17.5452 2.164C17.5092 2.536 17.4672 3.118 17.4192 3.91C17.2992 5.806 17.1432 7.384 16.9512 8.644C16.7712 9.892 16.4292 10.972 15.9252 11.884C15.4212 12.796 14.7072 13.252 13.7832 13.252C13.3272 13.252 12.9372 13.156 12.6132 12.964C12.3012 12.76 12.1452 12.448 12.1452 12.028C12.1452 11.716 12.2412 11.47 12.4332 11.29C12.6372 11.098 12.8952 11.002 13.2072 11.002C13.4712 11.002 13.6872 11.074 13.8552 11.218C14.0352 11.362 14.1252 11.554 14.1252 11.794C14.1252 12.046 14.0652 12.256 13.9452 12.424C13.8252 12.58 13.6272 12.736 13.3512 12.892C13.4592 12.904 13.6032 12.91 13.7832 12.91C14.6352 12.91 15.2892 12.4 15.7452 11.38C16.2012 10.36 16.5132 9.154 16.6812 7.762C16.8492 6.358 16.9992 4.492 17.1312 2.164C17.1432 2.068 17.1492 1.936 17.1492 1.768C17.1492 1.456 17.1072 1.222 17.0232 1.066C16.9392 0.909999 16.7952 0.801999 16.5912 0.741999C16.3872 0.681999 16.0812 0.639999 15.6732 0.616V0.256C16.1772 0.291999 16.7952 0.309999 17.5272 0.309999C17.7072 0.309999 17.9772 0.297999 18.3372 0.274L19.1112 0.256L20.3172 0.274C20.8692 0.297999 21.3252 0.309999 21.6852 0.309999C22.6092 0.309999 23.3232 0.291999 23.8272 0.256V0.616ZM37.8218 0.616C37.3898 0.639999 37.0718 0.687999 36.8678 0.76C36.6758 0.832 36.5438 0.97 36.4718 1.174C36.3998 1.378 36.3638 1.708 36.3638 2.164V11.092C36.3638 11.548 36.3998 11.878 36.4718 12.082C36.5438 12.286 36.6758 12.424 36.8678 12.496C37.0718 12.568 37.3898 12.616 37.8218 12.64V13C37.3178 12.964 36.5498 12.946 35.5178 12.946C34.5578 12.946 33.7958 12.964 33.2318 13V12.64C33.6638 12.616 33.9758 12.568 34.1678 12.496C34.3718 12.424 34.5098 12.286 34.5818 12.082C34.6538 11.878 34.6898 11.548 34.6898 11.092V2.578L28.4798 11.38C28.4918 11.728 28.5398 11.992 28.6238 12.172C28.7078 12.34 28.8458 12.454 29.0378 12.514C29.2298 12.574 29.5298 12.616 29.9378 12.64V13C29.3858 12.964 28.6238 12.946 27.6518 12.946C26.6198 12.946 25.8518 12.964 25.3478 13V12.64C25.7798 12.616 26.0918 12.568 26.2838 12.496C26.4878 12.424 26.6258 12.286 26.6978 12.082C26.7698 11.878 26.8058 11.548 26.8058 11.092V2.164C26.8058 1.708 26.7698 1.378 26.6978 1.174C26.6258 0.97 26.4878 0.832 26.2838 0.76C26.0918 0.687999 25.7798 0.639999 25.3478 0.616V0.256C25.8518 0.291999 26.6198 0.309999 27.6518 0.309999C28.6118 0.309999 29.3738 0.291999 29.9378 0.256V0.616C29.5058 0.639999 29.1878 0.687999 28.9838 0.76C28.7918 0.832 28.6598 0.97 28.5878 1.174C28.5158 1.378 28.4798 1.708 28.4798 2.164V10.678L34.6898 1.876C34.6778 1.528 34.6298 1.27 34.5458 1.102C34.4618 0.921999 34.3238 0.801999 34.1318 0.741999C33.9398 0.681999 33.6398 0.639999 33.2318 0.616V0.256C33.7958 0.291999 34.5578 0.309999 35.5178 0.309999C36.5498 0.309999 37.3178 0.291999 37.8218 0.256V0.616ZM51.454 0.616C51.022 0.639999 50.704 0.687999 50.5 0.76C50.308 0.832 50.176 0.97 50.104 1.174C50.032 1.378 49.996 1.708 49.996 2.164V11.092C49.996 11.548 50.032 11.878 50.104 12.082C50.176 12.286 50.308 12.424 50.5 12.496C50.704 12.568 51.022 12.616 51.454 12.64V13C50.95 12.964 50.182 12.946 49.15 12.946C48.178 12.946 47.416 12.964 46.864 13V12.64C47.296 12.616 47.608 12.568 47.8 12.496C48.004 12.424 48.142 12.286 48.214 12.082C48.286 11.878 48.322 11.548 48.322 11.092V6.772H42.472V11.092C42.472 11.548 42.508 11.878 42.58 12.082C42.652 12.286 42.784 12.424 42.976 12.496C43.18 12.568 43.498 12.616 43.93 12.64V13C43.378 12.964 42.616 12.946 41.644 12.946C40.612 12.946 39.844 12.964 39.34 13V12.64C39.772 12.616 40.084 12.568 40.276 12.496C40.48 12.424 40.618 12.286 40.69 12.082C40.762 11.878 40.798 11.548 40.798 11.092V2.164C40.798 1.708 40.762 1.378 40.69 1.174C40.618 0.97 40.48 0.832 40.276 0.76C40.084 0.687999 39.772 0.639999 39.34 0.616V0.256C39.844 0.291999 40.612 0.309999 41.644 0.309999C42.604 0.309999 43.366 0.291999 43.93 0.256V0.616C43.498 0.639999 43.18 0.687999 42.976 0.76C42.784 0.832 42.652 0.97 42.58 1.174C42.508 1.378 42.472 1.708 42.472 2.164V6.412H48.322V2.164C48.322 1.708 48.286 1.378 48.214 1.174C48.142 0.97 48.004 0.832 47.8 0.76C47.608 0.687999 47.296 0.639999 46.864 0.616V0.256C47.416 0.291999 48.178 0.309999 49.15 0.309999C50.182 0.309999 50.95 0.291999 51.454 0.256V0.616ZM65.437 0.616C65.005 0.639999 64.687 0.687999 64.483 0.76C64.291 0.832 64.159 0.97 64.087 1.174C64.015 1.378 63.979 1.708 63.979 2.164V11.092C63.979 11.548 64.015 11.878 64.087 12.082C64.159 12.286 64.291 12.424 64.483 12.496C64.687 12.568 65.005 12.616 65.437 12.64V13C64.933 12.964 64.165 12.946 63.133 12.946C62.173 12.946 61.411 12.964 60.847 13V12.64C61.279 12.616 61.591 12.568 61.783 12.496C61.987 12.424 62.125 12.286 62.197 12.082C62.269 11.878 62.305 11.548 62.305 11.092V2.578L56.095 11.38C56.107 11.728 56.155 11.992 56.239 12.172C56.323 12.34 56.461 12.454 56.653 12.514C56.845 12.574 57.145 12.616 57.553 12.64V13C57.001 12.964 56.239 12.946 55.267 12.946C54.235 12.946 53.467 12.964 52.963 13V12.64C53.395 12.616 53.707 12.568 53.899 12.496C54.103 12.424 54.241 12.286 54.313 12.082C54.385 11.878 54.421 11.548 54.421 11.092V2.164C54.421 1.708 54.385 1.378 54.313 1.174C54.241 0.97 54.103 0.832 53.899 0.76C53.707 0.687999 53.395 0.639999 52.963 0.616V0.256C53.467 0.291999 54.235 0.309999 55.267 0.309999C56.227 0.309999 56.989 0.291999 57.553 0.256V0.616C57.121 0.639999 56.803 0.687999 56.599 0.76C56.407 0.832 56.275 0.97 56.203 1.174C56.131 1.378 56.095 1.708 56.095 2.164V10.678L62.305 1.876C62.293 1.528 62.245 1.27 62.161 1.102C62.077 0.921999 61.939 0.801999 61.747 0.741999C61.555 0.681999 61.255 0.639999 60.847 0.616V0.256C61.411 0.291999 62.173 0.309999 63.133 0.309999C64.165 0.309999 64.933 0.291999 65.437 0.256V0.616ZM78.0792 12.1C77.8152 12.496 77.5452 12.79 77.2692 12.982C76.9932 13.162 76.6212 13.252 76.1532 13.252C75.6732 13.252 75.2712 13.114 74.9472 12.838C74.6352 12.562 74.3952 12.052 74.2272 11.308L73.7232 9.076C73.5792 8.464 73.4352 7.996 73.2912 7.672C73.1592 7.336 72.9312 7.072 72.6072 6.88C72.2952 6.676 71.8512 6.574 71.2752 6.574H70.0872V11.092C70.0872 11.548 70.1232 11.878 70.1952 12.082C70.2672 12.286 70.3992 12.424 70.5912 12.496C70.7952 12.568 71.1132 12.616 71.5452 12.64V13C70.9932 12.964 70.2312 12.946 69.2592 12.946C68.2272 12.946 67.4592 12.964 66.9552 13V12.64C67.3872 12.616 67.6992 12.568 67.8912 12.496C68.0952 12.424 68.2332 12.286 68.3052 12.082C68.3772 11.878 68.4132 11.548 68.4132 11.092V2.164C68.4132 1.708 68.3772 1.378 68.3052 1.174C68.2332 0.97 68.0952 0.832 67.8912 0.76C67.6992 0.687999 67.3872 0.639999 66.9552 0.616V0.256C67.4592 0.291999 68.2272 0.309999 69.2592 0.309999C70.2192 0.309999 70.9812 0.291999 71.5452 0.256V0.616C71.1132 0.639999 70.7952 0.687999 70.5912 0.76C70.3992 0.832 70.2672 0.97 70.1952 1.174C70.1232 1.378 70.0872 1.708 70.0872 2.164V6.232C70.9752 6.22 71.6832 5.872 72.2112 5.188L73.9392 2.992C74.5512 2.236 74.8572 1.66 74.8572 1.264C74.8572 0.844 74.4852 0.627999 73.7412 0.616V0.256C74.4252 0.291999 75.1152 0.309999 75.8112 0.309999C76.4712 0.309999 76.9812 0.291999 77.3412 0.256V0.616C76.5252 0.735999 75.8172 1.174 75.2172 1.93L71.8332 6.25C72.7932 6.286 73.5732 6.496 74.1732 6.88C74.7852 7.252 75.1992 7.906 75.4152 8.842L75.9372 11.11C76.0692 11.686 76.1892 12.076 76.2972 12.28C76.4172 12.484 76.5912 12.586 76.8192 12.586C77.0232 12.586 77.1912 12.532 77.3232 12.424C77.4672 12.316 77.6292 12.142 77.8092 11.902L78.0792 12.1ZM88.6044 11.488C88.8924 12.232 89.3064 12.616 89.8464 12.64V13C89.3664 12.964 88.7244 12.946 87.9204 12.946C86.8884 12.946 86.1204 12.964 85.6164 13V12.64C86.0724 12.616 86.3964 12.562 86.5884 12.478C86.7924 12.382 86.8944 12.214 86.8944 11.974C86.8944 11.77 86.8224 11.488 86.6784 11.128L85.5804 8.176H81.2244L80.4864 10.084C80.2464 10.732 80.1264 11.224 80.1264 11.56C80.1264 11.932 80.2524 12.202 80.5044 12.37C80.7684 12.538 81.1644 12.628 81.6924 12.64V13C81.0084 12.964 80.3184 12.946 79.6224 12.946C79.0824 12.946 78.6324 12.964 78.2724 13V12.64C78.8724 12.496 79.3464 11.974 79.6944 11.074L83.9244 0.165999H84.2124L88.6044 11.488ZM85.4364 7.816L83.4204 2.434L81.3684 7.816H85.4364ZM104.191 10.696C104.191 11.38 104.233 12.148 104.317 13C103.501 12.964 102.127 12.946 100.195 12.946C97.8908 12.946 96.1508 12.964 94.9748 13V12.64C95.4068 12.616 95.7188 12.568 95.9108 12.496C96.1148 12.424 96.2528 12.286 96.3248 12.082C96.3968 11.878 96.4328 11.548 96.4328 11.092V2.164C96.4328 1.708 96.3968 1.378 96.3248 1.174C96.2528 0.97 96.1148 0.832 95.9108 0.76C95.7188 0.687999 95.4068 0.639999 94.9748 0.616V0.256C96.1508 0.291999 97.8908 0.309999 100.195 0.309999C101.959 0.309999 103.213 0.291999 103.957 0.256C103.873 1.048 103.831 1.756 103.831 2.38C103.831 2.848 103.849 3.22 103.885 3.496H103.471C103.387 2.716 103.279 2.14 103.147 1.768C103.015 1.384 102.793 1.108 102.481 0.94C102.169 0.759999 101.695 0.669999 101.059 0.669999H99.5648C99.1328 0.669999 98.8148 0.705999 98.6108 0.778C98.4188 0.838 98.2868 0.97 98.2148 1.174C98.1428 1.378 98.1068 1.708 98.1068 2.164V6.412H99.2948C99.7148 6.412 100.039 6.316 100.267 6.124C100.495 5.92 100.645 5.686 100.717 5.422C100.801 5.146 100.867 4.804 100.915 4.396L100.969 4.036H101.383C101.347 4.54 101.329 5.104 101.329 5.728V6.592C101.329 7.204 101.365 8.056 101.437 9.148H101.023C101.011 9.064 100.975 8.776 100.915 8.284C100.855 7.78 100.687 7.402 100.411 7.15C100.147 6.898 99.7748 6.772 99.2948 6.772H98.1068V11.092C98.1068 11.548 98.1428 11.878 98.2148 12.082C98.2868 12.286 98.4188 12.424 98.6108 12.496C98.8148 12.556 99.1328 12.586 99.5648 12.586H100.879C101.623 12.586 102.187 12.49 102.571 12.298C102.967 12.094 103.255 11.776 103.435 11.344C103.615 10.9 103.747 10.252 103.831 9.4H104.245C104.209 9.724 104.191 10.156 104.191 10.696ZM115.304 0.309999C115.844 0.309999 116.294 0.291999 116.654 0.256V0.616C116.054 0.759999 115.58 1.282 115.232 2.182L111.002 13.09H110.858H110.714L106.322 1.768C106.034 1.024 105.62 0.639999 105.079 0.616V0.256C105.56 0.291999 106.202 0.309999 107.006 0.309999C108.038 0.309999 108.806 0.291999 109.31 0.256V0.616C108.854 0.639999 108.524 0.699999 108.32 0.795999C108.128 0.88 108.032 1.042 108.032 1.282C108.032 1.486 108.104 1.768 108.248 2.128L111.506 10.786L114.439 3.172C114.68 2.524 114.8 2.032 114.8 1.696C114.8 1.324 114.668 1.054 114.404 0.885999C114.152 0.717999 113.762 0.627999 113.234 0.616V0.256C113.918 0.291999 114.608 0.309999 115.304 0.309999ZM122.905 0.00399888C124.045 0.00399888 125.041 0.261999 125.893 0.778C126.757 1.294 127.423 2.044 127.891 3.028C128.371 4 128.611 5.164 128.611 6.52C128.611 7.84 128.365 9.01 127.873 10.03C127.393 11.05 126.715 11.842 125.839 12.406C124.975 12.97 123.991 13.252 122.887 13.252C121.747 13.252 120.745 12.994 119.881 12.478C119.029 11.962 118.363 11.218 117.883 10.246C117.415 9.262 117.181 8.092 117.181 6.736C117.181 5.416 117.421 4.246 117.901 3.226C118.393 2.206 119.071 1.414 119.935 0.85C120.811 0.285999 121.801 0.00399888 122.905 0.00399888ZM122.833 0.327999C122.065 0.327999 121.387 0.597999 120.799 1.138C120.223 1.666 119.773 2.41 119.449 3.37C119.137 4.33 118.981 5.428 118.981 6.664C118.981 7.912 119.155 9.01 119.503 9.958C119.863 10.906 120.343 11.638 120.943 12.154C121.543 12.67 122.215 12.928 122.959 12.928C123.727 12.928 124.399 12.664 124.975 12.136C125.563 11.596 126.013 10.846 126.325 9.886C126.649 8.926 126.811 7.828 126.811 6.592C126.811 5.344 126.631 4.246 126.271 3.298C125.923 2.35 125.449 1.618 124.849 1.102C124.249 0.585999 123.577 0.327999 122.833 0.327999ZM134.176 0.0579993C134.704 0.0579993 135.118 0.117999 135.418 0.237999C135.73 0.345999 136.048 0.507999 136.372 0.723999C136.636 0.891999 136.84 0.975999 136.984 0.975999C137.092 0.975999 137.176 0.915999 137.236 0.795999C137.296 0.664 137.344 0.46 137.38 0.184H137.794C137.734 0.879999 137.704 2.104 137.704 3.856H137.29C137.218 2.884 136.936 2.068 136.444 1.408C135.964 0.735999 135.262 0.399999 134.338 0.399999C133.69 0.399999 133.162 0.597999 132.754 0.993999C132.346 1.378 132.142 1.876 132.142 2.488C132.142 2.944 132.244 3.34 132.448 3.676C132.664 4.012 132.934 4.3 133.258 4.54C133.582 4.78 134.044 5.086 134.644 5.458L135.166 5.782C135.922 6.25 136.516 6.664 136.948 7.024C137.392 7.372 137.746 7.774 138.01 8.23C138.274 8.686 138.406 9.22 138.406 9.832C138.406 10.924 138.046 11.77 137.326 12.37C136.606 12.958 135.694 13.252 134.59 13.252C134.014 13.252 133.54 13.192 133.168 13.072C132.808 12.952 132.46 12.79 132.124 12.586C131.86 12.418 131.656 12.334 131.512 12.334C131.404 12.334 131.32 12.4 131.26 12.532C131.2 12.652 131.152 12.85 131.116 13.126H130.702C130.75 12.466 130.774 11.026 130.774 8.806H131.188C131.272 10.018 131.572 11.002 132.088 11.758C132.604 12.514 133.396 12.892 134.464 12.892C135.112 12.892 135.664 12.694 136.12 12.298C136.576 11.89 136.804 11.29 136.804 10.498C136.804 9.826 136.576 9.256 136.12 8.788C135.676 8.32 134.968 7.792 133.996 7.204C133.288 6.772 132.712 6.388 132.268 6.052C131.836 5.716 131.482 5.314 131.206 4.846C130.93 4.366 130.792 3.808 130.792 3.172C130.792 2.164 131.116 1.396 131.764 0.868C132.412 0.327999 133.216 0.0579993 134.176 0.0579993Z" fill="#E4B0A2"/>
</svg>
