<svg width="115" height="20" viewBox="0 0 115 20" fill="none" xmlns="http://www.w3.org/2000/svg">
<path d="M12.628 4.616C12.196 4.64 11.878 4.688 11.674 4.76C11.482 4.832 11.35 4.97 11.278 5.174C11.206 5.378 11.17 5.708 11.17 6.164V15.092C11.17 15.548 11.206 15.878 11.278 16.082C11.35 16.286 11.482 16.424 11.674 16.496C11.878 16.568 12.196 16.616 12.628 16.64V17C12.124 16.964 11.356 16.946 10.324 16.946C9.196 16.946 8.314 16.964 7.678 17V16.64C8.218 16.616 8.608 16.568 8.848 16.496C9.088 16.424 9.256 16.286 9.352 16.082C9.448 15.878 9.496 15.548 9.496 15.092V6.164C9.496 5.708 9.46 5.378 9.388 5.174C9.316 4.958 9.178 4.814 8.974 4.742C8.77 4.658 8.458 4.616 8.038 4.616H7.804C7.372 4.616 7.06 4.658 6.868 4.742C6.688 4.814 6.562 4.952 6.49 5.156C6.43 5.348 6.382 5.684 6.346 6.164C6.31 6.536 6.268 7.118 6.22 7.91C6.1 9.806 5.944 11.384 5.752 12.644C5.572 13.892 5.23 14.972 4.726 15.884C4.222 16.796 3.508 17.252 2.584 17.252C2.128 17.252 1.738 17.156 1.414 16.964C1.102 16.76 0.946 16.448 0.946 16.028C0.946 15.716 1.042 15.47 1.234 15.29C1.438 15.098 1.696 15.002 2.008 15.002C2.272 15.002 2.488 15.074 2.656 15.218C2.836 15.362 2.926 15.554 2.926 15.794C2.926 16.046 2.866 16.256 2.746 16.424C2.626 16.58 2.428 16.736 2.152 16.892C2.26 16.904 2.404 16.91 2.584 16.91C3.436 16.91 4.09 16.4 4.546 15.38C5.002 14.36 5.314 13.154 5.482 11.762C5.65 10.358 5.8 8.492 5.932 6.164C5.944 6.068 5.95 5.936 5.95 5.768C5.95 5.456 5.908 5.222 5.824 5.066C5.74 4.91 5.596 4.802 5.392 4.742C5.188 4.682 4.882 4.64 4.474 4.616V4.256C4.978 4.292 5.596 4.31 6.328 4.31C6.508 4.31 6.778 4.298 7.138 4.274L7.912 4.256L9.118 4.274C9.67 4.298 10.126 4.31 10.486 4.31C11.41 4.31 12.124 4.292 12.628 4.256V4.616ZM23.5986 15.488C23.8866 16.232 24.3006 16.616 24.8406 16.64V17C24.3606 16.964 23.7186 16.946 22.9146 16.946C21.8826 16.946 21.1146 16.964 20.6106 17V16.64C21.0666 16.616 21.3906 16.562 21.5826 16.478C21.7866 16.382 21.8886 16.214 21.8886 15.974C21.8886 15.77 21.8166 15.488 21.6726 15.128L20.5746 12.176H16.2186L15.4806 14.084C15.2406 14.732 15.1206 15.224 15.1206 15.56C15.1206 15.932 15.2466 16.202 15.4986 16.37C15.7626 16.538 16.1586 16.628 16.6866 16.64V17C16.0026 16.964 15.3126 16.946 14.6166 16.946C14.0766 16.946 13.6266 16.964 13.2666 17V16.64C13.8666 16.496 14.3406 15.974 14.6886 15.074L18.9186 4.166H19.2066L23.5986 15.488ZM20.4306 11.816L18.4146 6.434L16.3626 11.816H20.4306ZM37.9605 4.616C37.5285 4.64 37.2105 4.688 37.0065 4.76C36.8145 4.832 36.6825 4.97 36.6105 5.174C36.5385 5.378 36.5025 5.708 36.5025 6.164V15.092C36.5025 15.548 36.5385 15.878 36.6105 16.082C36.6825 16.286 36.8145 16.424 37.0065 16.496C37.2105 16.568 37.5285 16.616 37.9605 16.64V17C37.4565 16.964 36.6885 16.946 35.6565 16.946C34.6965 16.946 33.9345 16.964 33.3705 17V16.64C33.8025 16.616 34.1145 16.568 34.3065 16.496C34.5105 16.424 34.6485 16.286 34.7205 16.082C34.7925 15.878 34.8285 15.548 34.8285 15.092V6.578L28.6185 15.38C28.6305 15.728 28.6785 15.992 28.7625 16.172C28.8465 16.34 28.9845 16.454 29.1765 16.514C29.3685 16.574 29.6685 16.616 30.0765 16.64V17C29.5245 16.964 28.7625 16.946 27.7905 16.946C26.7585 16.946 25.9905 16.964 25.4865 17V16.64C25.9185 16.616 26.2305 16.568 26.4225 16.496C26.6265 16.424 26.7645 16.286 26.8365 16.082C26.9085 15.878 26.9445 15.548 26.9445 15.092V6.164C26.9445 5.708 26.9085 5.378 26.8365 5.174C26.7645 4.97 26.6265 4.832 26.4225 4.76C26.2305 4.688 25.9185 4.64 25.4865 4.616V4.256C25.9905 4.292 26.7585 4.31 27.7905 4.31C28.7505 4.31 29.5125 4.292 30.0765 4.256V4.616C29.6445 4.64 29.3265 4.688 29.1225 4.76C28.9305 4.832 28.7985 4.97 28.7265 5.174C28.6545 5.378 28.6185 5.708 28.6185 6.164V14.678L34.8285 5.876C34.8165 5.528 34.7685 5.27 34.6845 5.102C34.6005 4.922 34.4625 4.802 34.2705 4.742C34.0785 4.682 33.7785 4.64 33.3705 4.616V4.256C33.9345 4.292 34.6965 4.31 35.6565 4.31C36.6885 4.31 37.4565 4.292 37.9605 4.256V4.616ZM34.4505 0.0259997C34.7385 0.0259997 34.9665 0.116 35.1345 0.295999C35.3145 0.475999 35.4045 0.715999 35.4045 1.016C35.4045 1.268 35.3325 1.49 35.1885 1.682C35.0565 1.874 34.8405 2.06 34.5405 2.24C33.7845 2.696 32.8485 2.924 31.7325 2.924C30.6165 2.924 29.6805 2.696 28.9245 2.24C28.6245 2.06 28.4025 1.874 28.2585 1.682C28.1265 1.49 28.0605 1.268 28.0605 1.016C28.0605 0.715999 28.1445 0.475999 28.3125 0.295999C28.4925 0.116 28.7265 0.0259997 29.0145 0.0259997C29.3025 0.0259997 29.5365 0.116 29.7165 0.295999C29.9085 0.463999 30.0045 0.697999 30.0045 0.997999C30.0045 1.25 29.9325 1.454 29.7885 1.61C29.6565 1.766 29.4765 1.868 29.2485 1.916C29.5005 2.156 29.8605 2.324 30.3285 2.42C30.7965 2.516 31.2645 2.564 31.7325 2.564C32.2005 2.564 32.6685 2.516 33.1365 2.42C33.6045 2.324 33.9645 2.156 34.2165 1.916C33.9885 1.868 33.8025 1.766 33.6585 1.61C33.5265 1.454 33.4605 1.25 33.4605 0.997999C33.4605 0.697999 33.5565 0.463999 33.7485 0.295999C33.9405 0.116 34.1745 0.0259997 34.4505 0.0259997ZM50.6027 16.1C50.3387 16.496 50.0687 16.79 49.7927 16.982C49.5167 17.162 49.1447 17.252 48.6767 17.252C48.1967 17.252 47.7947 17.114 47.4707 16.838C47.1587 16.562 46.9187 16.052 46.7507 15.308L46.2467 13.076C46.1027 12.464 45.9587 11.996 45.8147 11.672C45.6827 11.336 45.4547 11.072 45.1307 10.88C44.8187 10.676 44.3747 10.574 43.7987 10.574H42.6107V15.092C42.6107 15.548 42.6467 15.878 42.7187 16.082C42.7907 16.286 42.9227 16.424 43.1147 16.496C43.3187 16.568 43.6367 16.616 44.0687 16.64V17C43.5167 16.964 42.7547 16.946 41.7827 16.946C40.7507 16.946 39.9827 16.964 39.4787 17V16.64C39.9107 16.616 40.2227 16.568 40.4147 16.496C40.6187 16.424 40.7567 16.286 40.8287 16.082C40.9007 15.878 40.9367 15.548 40.9367 15.092V6.164C40.9367 5.708 40.9007 5.378 40.8287 5.174C40.7567 4.97 40.6187 4.832 40.4147 4.76C40.2227 4.688 39.9107 4.64 39.4787 4.616V4.256C39.9827 4.292 40.7507 4.31 41.7827 4.31C42.7427 4.31 43.5047 4.292 44.0687 4.256V4.616C43.6367 4.64 43.3187 4.688 43.1147 4.76C42.9227 4.832 42.7907 4.97 42.7187 5.174C42.6467 5.378 42.6107 5.708 42.6107 6.164V10.232C43.4987 10.22 44.2067 9.872 44.7347 9.188L46.4627 6.992C47.0747 6.236 47.3807 5.66 47.3807 5.264C47.3807 4.844 47.0087 4.628 46.2647 4.616V4.256C46.9487 4.292 47.6387 4.31 48.3347 4.31C48.9947 4.31 49.5047 4.292 49.8647 4.256V4.616C49.0487 4.736 48.3407 5.174 47.7407 5.93L44.3567 10.25C45.3167 10.286 46.0967 10.496 46.6967 10.88C47.3087 11.252 47.7227 11.906 47.9387 12.842L48.4607 15.11C48.5927 15.686 48.7127 16.076 48.8207 16.28C48.9407 16.484 49.1147 16.586 49.3427 16.586C49.5467 16.586 49.7147 16.532 49.8467 16.424C49.9907 16.316 50.1527 16.142 50.3327 15.902L50.6027 16.1ZM68.2743 4.616C67.8423 4.64 67.5243 4.688 67.3203 4.76C67.1283 4.832 66.9963 4.97 66.9243 5.174C66.8523 5.378 66.8163 5.708 66.8163 6.164V15.092C66.8163 15.548 66.8523 15.884 66.9243 16.1C66.9963 16.304 67.1343 16.448 67.3383 16.532C67.5423 16.604 67.8543 16.64 68.2743 16.64H68.8323C68.7483 17.432 68.7063 18.14 68.7063 18.764C68.7063 19.244 68.7243 19.616 68.7603 19.88H68.3463C68.2623 19.1 68.1543 18.512 68.0223 18.116C67.8903 17.732 67.6623 17.45 67.3383 17.27C67.0263 17.09 66.5583 17 65.9343 17H62.2443L60.8043 16.982C59.8443 16.958 59.0643 16.946 58.4643 16.946C57.4323 16.946 56.6643 16.964 56.1603 17V16.64C56.5923 16.616 56.9043 16.568 57.0963 16.496C57.3003 16.424 57.4383 16.286 57.5103 16.082C57.5823 15.878 57.6183 15.548 57.6183 15.092V6.164C57.6183 5.708 57.5823 5.378 57.5103 5.174C57.4383 4.97 57.3003 4.832 57.0963 4.76C56.9043 4.688 56.5923 4.64 56.1603 4.616V4.256C56.6643 4.292 57.4323 4.31 58.4643 4.31C59.4243 4.31 60.1863 4.292 60.7503 4.256V4.616C60.3183 4.64 60.0003 4.688 59.7963 4.76C59.6043 4.832 59.4723 4.97 59.4003 5.174C59.3283 5.378 59.2923 5.708 59.2923 6.164V15.092C59.2923 15.548 59.3283 15.884 59.4003 16.1C59.4723 16.304 59.6103 16.448 59.8143 16.532C60.0183 16.604 60.3303 16.64 60.7503 16.64H63.6843C64.1043 16.64 64.4163 16.604 64.6203 16.532C64.8243 16.448 64.9623 16.304 65.0343 16.1C65.1063 15.884 65.1423 15.548 65.1423 15.092V6.164C65.1423 5.708 65.1063 5.378 65.0343 5.174C64.9623 4.97 64.8243 4.832 64.6203 4.76C64.4283 4.688 64.1163 4.64 63.6843 4.616V4.256C64.2363 4.292 64.9983 4.31 65.9703 4.31C67.0023 4.31 67.7703 4.292 68.2743 4.256V4.616ZM79.14 14.696C79.14 15.38 79.182 16.148 79.266 17C78.45 16.964 77.076 16.946 75.144 16.946C72.84 16.946 71.1 16.964 69.924 17V16.64C70.356 16.616 70.668 16.568 70.86 16.496C71.064 16.424 71.202 16.286 71.274 16.082C71.346 15.878 71.382 15.548 71.382 15.092V6.164C71.382 5.708 71.346 5.378 71.274 5.174C71.202 4.97 71.064 4.832 70.86 4.76C70.668 4.688 70.356 4.64 69.924 4.616V4.256C71.1 4.292 72.84 4.31 75.144 4.31C76.908 4.31 78.162 4.292 78.906 4.256C78.822 5.048 78.78 5.756 78.78 6.38C78.78 6.848 78.798 7.22 78.834 7.496H78.42C78.336 6.716 78.228 6.14 78.096 5.768C77.964 5.384 77.742 5.108 77.43 4.94C77.118 4.76 76.644 4.67 76.008 4.67H74.514C74.082 4.67 73.764 4.706 73.56 4.778C73.368 4.838 73.236 4.97 73.164 5.174C73.092 5.378 73.056 5.708 73.056 6.164V10.412H74.244C74.664 10.412 74.988 10.316 75.216 10.124C75.444 9.92 75.594 9.686 75.666 9.422C75.75 9.146 75.816 8.804 75.864 8.396L75.918 8.036H76.332C76.296 8.54 76.278 9.104 76.278 9.728V10.592C76.278 11.204 76.314 12.056 76.386 13.148H75.972C75.96 13.064 75.924 12.776 75.864 12.284C75.804 11.78 75.636 11.402 75.36 11.15C75.096 10.898 74.724 10.772 74.244 10.772H73.056V15.092C73.056 15.548 73.092 15.878 73.164 16.082C73.236 16.286 73.368 16.424 73.56 16.496C73.764 16.556 74.082 16.586 74.514 16.586H75.828C76.572 16.586 77.136 16.49 77.52 16.298C77.916 16.094 78.204 15.776 78.384 15.344C78.564 14.9 78.696 14.252 78.78 13.4H79.194C79.158 13.724 79.14 14.156 79.14 14.696ZM93.0067 4.616C92.5747 4.64 92.2567 4.688 92.0527 4.76C91.8607 4.832 91.7287 4.97 91.6567 5.174C91.5847 5.378 91.5487 5.708 91.5487 6.164V15.092C91.5487 15.548 91.5847 15.878 91.6567 16.082C91.7287 16.286 91.8607 16.424 92.0527 16.496C92.2567 16.568 92.5747 16.616 93.0067 16.64V17C92.5027 16.964 91.7347 16.946 90.7027 16.946C89.7307 16.946 88.9687 16.964 88.4167 17V16.64C88.8487 16.616 89.1607 16.568 89.3527 16.496C89.5567 16.424 89.6947 16.286 89.7667 16.082C89.8387 15.878 89.8747 15.548 89.8747 15.092V10.772H84.0247V15.092C84.0247 15.548 84.0607 15.878 84.1327 16.082C84.2047 16.286 84.3367 16.424 84.5287 16.496C84.7327 16.568 85.0507 16.616 85.4827 16.64V17C84.9307 16.964 84.1687 16.946 83.1967 16.946C82.1647 16.946 81.3967 16.964 80.8927 17V16.64C81.3247 16.616 81.6367 16.568 81.8287 16.496C82.0327 16.424 82.1707 16.286 82.2427 16.082C82.3147 15.878 82.3507 15.548 82.3507 15.092V6.164C82.3507 5.708 82.3147 5.378 82.2427 5.174C82.1707 4.97 82.0327 4.832 81.8287 4.76C81.6367 4.688 81.3247 4.64 80.8927 4.616V4.256C81.3967 4.292 82.1647 4.31 83.1967 4.31C84.1567 4.31 84.9187 4.292 85.4827 4.256V4.616C85.0507 4.64 84.7327 4.688 84.5287 4.76C84.3367 4.832 84.2047 4.97 84.1327 5.174C84.0607 5.378 84.0247 5.708 84.0247 6.164V10.412H89.8747V6.164C89.8747 5.708 89.8387 5.378 89.7667 5.174C89.6947 4.97 89.5567 4.832 89.3527 4.76C89.1607 4.688 88.8487 4.64 88.4167 4.616V4.256C88.9687 4.292 89.7307 4.31 90.7027 4.31C91.7347 4.31 92.5027 4.292 93.0067 4.256V4.616ZM104.416 4.256C104.332 5.108 104.29 5.876 104.29 6.56C104.29 7.16 104.308 7.652 104.344 8.036H103.93C103.834 7.112 103.714 6.428 103.57 5.984C103.426 5.528 103.174 5.198 102.814 4.994C102.454 4.778 101.902 4.67 101.158 4.67H100.186V14.912C100.186 15.416 100.234 15.782 100.33 16.01C100.426 16.238 100.594 16.394 100.834 16.478C101.074 16.562 101.464 16.616 102.004 16.64V17C101.38 16.964 100.498 16.946 99.3578 16.946C98.1578 16.946 97.2698 16.964 96.6938 17V16.64C97.2338 16.616 97.6238 16.562 97.8638 16.478C98.1038 16.394 98.2718 16.238 98.3678 16.01C98.4638 15.782 98.5118 15.416 98.5118 14.912V4.67H97.5398C96.7958 4.67 96.2438 4.778 95.8838 4.994C95.5238 5.198 95.2718 5.528 95.1278 5.984C94.9838 6.428 94.8638 7.112 94.7678 8.036H94.3538C94.3898 7.652 94.4078 7.16 94.4078 6.56C94.4078 5.876 94.3658 5.108 94.2818 4.256C95.2778 4.292 96.9698 4.31 99.3578 4.31C101.734 4.31 103.42 4.292 104.416 4.256ZM108.827 11.852V15.092C108.827 15.548 108.875 15.878 108.971 16.082C109.067 16.286 109.235 16.424 109.475 16.496C109.715 16.568 110.105 16.616 110.645 16.64V17C110.021 16.964 109.139 16.946 107.999 16.946C106.967 16.946 106.199 16.964 105.695 17V16.64C106.127 16.616 106.439 16.568 106.631 16.496C106.835 16.424 106.973 16.286 107.045 16.082C107.117 15.878 107.153 15.548 107.153 15.092V6.164C107.153 5.708 107.117 5.378 107.045 5.174C106.973 4.97 106.835 4.832 106.631 4.76C106.439 4.688 106.127 4.64 105.695 4.616V4.256C106.199 4.292 106.931 4.31 107.891 4.31L109.835 4.292C110.063 4.28 110.321 4.274 110.609 4.274C112.013 4.274 113.087 4.598 113.831 5.246C114.575 5.882 114.947 6.74 114.947 7.82C114.947 8.48 114.797 9.116 114.497 9.728C114.209 10.328 113.711 10.832 113.003 11.24C112.307 11.648 111.377 11.852 110.213 11.852H108.827ZM110.159 4.616C109.787 4.616 109.505 4.658 109.313 4.742C109.133 4.826 109.007 4.976 108.935 5.192C108.863 5.408 108.827 5.732 108.827 6.164V11.492H110.033C111.209 11.492 112.019 11.18 112.463 10.556C112.919 9.92 113.147 9.074 113.147 8.018C113.147 6.854 112.913 5.996 112.445 5.444C111.989 4.892 111.227 4.616 110.159 4.616Z" fill="#E4B0A2"/>
</svg>
