<svg width="52" height="14" viewBox="0 0 52 14" fill="none" xmlns="http://www.w3.org/2000/svg">
<path d="M10.656 0.256C10.572 1.108 10.53 1.876 10.53 2.56C10.53 3.16 10.548 3.652 10.584 4.036H10.17C10.074 3.112 9.954 2.428 9.81 1.984C9.666 1.528 9.414 1.198 9.054 0.993999C8.694 0.777999 8.142 0.669999 7.398 0.669999H6.426V10.912C6.426 11.416 6.474 11.782 6.57 12.01C6.666 12.238 6.834 12.394 7.074 12.478C7.314 12.562 7.704 12.616 8.244 12.64V13C7.62 12.964 6.738 12.946 5.598 12.946C4.398 12.946 3.51 12.964 2.934 13V12.64C3.474 12.616 3.864 12.562 4.104 12.478C4.344 12.394 4.512 12.238 4.608 12.01C4.704 11.782 4.752 11.416 4.752 10.912V0.669999H3.78C3.036 0.669999 2.484 0.777999 2.124 0.993999C1.764 1.198 1.512 1.528 1.368 1.984C1.224 2.428 1.104 3.112 1.008 4.036H0.594C0.63 3.652 0.648 3.16 0.648 2.56C0.648 1.876 0.606 1.108 0.522 0.256C1.518 0.291999 3.21 0.309999 5.598 0.309999C7.974 0.309999 9.66 0.291999 10.656 0.256ZM14.1137 13.126C13.3577 13.126 12.7937 12.94 12.4217 12.568C12.0617 12.184 11.8817 11.656 11.8817 10.984C11.8817 10.444 12.0257 10 12.3137 9.652C12.6137 9.304 12.9617 9.028 13.3577 8.824C13.7657 8.62 14.2997 8.404 14.9597 8.176C15.6317 7.948 16.1297 7.738 16.4537 7.546C16.7777 7.354 16.9397 7.096 16.9397 6.772V5.656C16.9397 4.96 16.7897 4.486 16.4897 4.234C16.2017 3.97 15.7937 3.838 15.2657 3.838C14.4257 3.838 13.8317 4.054 13.4837 4.486C13.7237 4.546 13.9217 4.672 14.0777 4.864C14.2457 5.056 14.3297 5.296 14.3297 5.584C14.3297 5.884 14.2337 6.124 14.0417 6.304C13.8497 6.472 13.6037 6.556 13.3037 6.556C12.9677 6.556 12.7157 6.454 12.5477 6.25C12.3797 6.034 12.2957 5.776 12.2957 5.476C12.2957 5.188 12.3617 4.948 12.4937 4.756C12.6377 4.564 12.8477 4.372 13.1237 4.18C13.4117 3.976 13.7777 3.808 14.2217 3.676C14.6657 3.544 15.1517 3.478 15.6797 3.478C16.6157 3.478 17.3237 3.7 17.8037 4.144C18.1037 4.42 18.3017 4.756 18.3977 5.152C18.5057 5.536 18.5597 6.046 18.5597 6.682V11.686C18.5597 11.986 18.6017 12.202 18.6857 12.334C18.7697 12.466 18.9137 12.532 19.1177 12.532C19.2617 12.532 19.3937 12.502 19.5137 12.442C19.6457 12.37 19.7837 12.274 19.9277 12.154L20.1257 12.46C19.8137 12.7 19.5437 12.874 19.3157 12.982C19.0997 13.078 18.8237 13.126 18.4877 13.126C17.9117 13.126 17.5097 12.982 17.2817 12.694C17.0537 12.406 16.9397 12.016 16.9397 11.524C16.5797 12.124 16.1657 12.544 15.6977 12.784C15.2297 13.012 14.7017 13.126 14.1137 13.126ZM14.9057 12.406C15.6977 12.406 16.3757 11.95 16.9397 11.038V7.51C16.8317 7.678 16.6817 7.816 16.4897 7.924C16.2977 8.032 16.0037 8.176 15.6077 8.356C15.1517 8.548 14.7797 8.734 14.4917 8.914C14.2157 9.082 13.9757 9.316 13.7717 9.616C13.5677 9.916 13.4657 10.3 13.4657 10.768C13.4657 11.308 13.5977 11.716 13.8617 11.992C14.1257 12.268 14.4737 12.406 14.9057 12.406ZM24.7525 0.0579993C25.2805 0.0579993 25.6945 0.117999 25.9945 0.237999C26.3065 0.345999 26.6245 0.507999 26.9485 0.723999C27.2125 0.891999 27.4165 0.975999 27.5605 0.975999C27.6685 0.975999 27.7525 0.915999 27.8125 0.795999C27.8725 0.664 27.9205 0.46 27.9565 0.184H28.3705C28.3105 0.879999 28.2805 2.104 28.2805 3.856H27.8665C27.7945 2.884 27.5125 2.068 27.0205 1.408C26.5405 0.735999 25.8385 0.399999 24.9145 0.399999C24.2665 0.399999 23.7385 0.597999 23.3305 0.993999C22.9225 1.378 22.7185 1.876 22.7185 2.488C22.7185 2.944 22.8205 3.34 23.0245 3.676C23.2405 4.012 23.5105 4.3 23.8345 4.54C24.1585 4.78 24.6205 5.086 25.2205 5.458L25.7425 5.782C26.4985 6.25 27.0925 6.664 27.5245 7.024C27.9685 7.372 28.3225 7.774 28.5865 8.23C28.8505 8.686 28.9825 9.22 28.9825 9.832C28.9825 10.924 28.6225 11.77 27.9025 12.37C27.1825 12.958 26.2705 13.252 25.1665 13.252C24.5905 13.252 24.1165 13.192 23.7445 13.072C23.3845 12.952 23.0365 12.79 22.7005 12.586C22.4365 12.418 22.2325 12.334 22.0885 12.334C21.9805 12.334 21.8965 12.4 21.8365 12.532C21.7765 12.652 21.7285 12.85 21.6925 13.126H21.2785C21.3265 12.466 21.3505 11.026 21.3505 8.806H21.7645C21.8485 10.018 22.1485 11.002 22.6645 11.758C23.1805 12.514 23.9725 12.892 25.0405 12.892C25.6885 12.892 26.2405 12.694 26.6965 12.298C27.1525 11.89 27.3805 11.29 27.3805 10.498C27.3805 9.826 27.1525 9.256 26.6965 8.788C26.2525 8.32 25.5445 7.792 24.5725 7.204C23.8645 6.772 23.2885 6.388 22.8445 6.052C22.4125 5.716 22.0585 5.314 21.7825 4.846C21.5065 4.366 21.3685 3.808 21.3685 3.172C21.3685 2.164 21.6925 1.396 22.3405 0.868C22.9885 0.327999 23.7925 0.0579993 24.7525 0.0579993ZM42.7352 0.616C42.3032 0.639999 41.9852 0.687999 41.7812 0.76C41.5892 0.832 41.4572 0.97 41.3852 1.174C41.3132 1.378 41.2772 1.708 41.2772 2.164V11.092C41.2772 11.548 41.3132 11.878 41.3852 12.082C41.4572 12.286 41.5892 12.424 41.7812 12.496C41.9852 12.568 42.3032 12.616 42.7352 12.64V13C42.2312 12.964 41.4632 12.946 40.4312 12.946C39.4592 12.946 38.6972 12.964 38.1452 13V12.64C38.5772 12.616 38.8892 12.568 39.0812 12.496C39.2852 12.424 39.4232 12.286 39.4952 12.082C39.5672 11.878 39.6032 11.548 39.6032 11.092V6.772H33.7532V11.092C33.7532 11.548 33.7892 11.878 33.8612 12.082C33.9332 12.286 34.0652 12.424 34.2572 12.496C34.4612 12.568 34.7792 12.616 35.2112 12.64V13C34.6592 12.964 33.8972 12.946 32.9252 12.946C31.8932 12.946 31.1252 12.964 30.6212 13V12.64C31.0532 12.616 31.3652 12.568 31.5572 12.496C31.7612 12.424 31.8992 12.286 31.9712 12.082C32.0432 11.878 32.0792 11.548 32.0792 11.092V2.164C32.0792 1.708 32.0432 1.378 31.9712 1.174C31.8992 0.97 31.7612 0.832 31.5572 0.76C31.3652 0.687999 31.0532 0.639999 30.6212 0.616V0.256C31.1252 0.291999 31.8932 0.309999 32.9252 0.309999C33.8852 0.309999 34.6472 0.291999 35.2112 0.256V0.616C34.7792 0.639999 34.4612 0.687999 34.2572 0.76C34.0652 0.832 33.9332 0.97 33.8612 1.174C33.7892 1.378 33.7532 1.708 33.7532 2.164V6.412H39.6032V2.164C39.6032 1.708 39.5672 1.378 39.4952 1.174C39.4232 0.97 39.2852 0.832 39.0812 0.76C38.8892 0.687999 38.5772 0.639999 38.1452 0.616V0.256C38.6972 0.291999 39.4592 0.309999 40.4312 0.309999C41.4632 0.309999 42.2312 0.291999 42.7352 0.256V0.616ZM51.8223 10.84C51.6063 11.5 51.1983 12.07 50.5983 12.55C50.0103 13.018 49.2963 13.252 48.4563 13.252C47.6043 13.252 46.8663 13.06 46.2423 12.676C45.6183 12.28 45.1383 11.734 44.8023 11.038C44.4783 10.33 44.3163 9.514 44.3163 8.59C44.3163 7.546 44.4843 6.64 44.8203 5.872C45.1563 5.104 45.6303 4.516 46.2423 4.108C46.8543 3.688 47.5683 3.478 48.3843 3.478C49.4643 3.478 50.2923 3.808 50.8683 4.468C51.4563 5.116 51.7503 6.106 51.7503 7.438H46.1163C46.0803 7.774 46.0623 8.158 46.0623 8.59C46.0623 9.382 46.1883 10.072 46.4403 10.66C46.7043 11.248 47.0463 11.704 47.4663 12.028C47.8983 12.34 48.3483 12.496 48.8163 12.496C49.3923 12.496 49.9023 12.358 50.3463 12.082C50.7903 11.806 51.1623 11.344 51.4623 10.696L51.8223 10.84ZM48.3123 3.82C47.7483 3.82 47.2623 4.096 46.8543 4.648C46.4463 5.2 46.1943 6.016 46.0983 7.096H50.0223C50.0463 6.16 49.9083 5.38 49.6083 4.756C49.3203 4.132 48.8883 3.82 48.3123 3.82Z" fill="#E4B0A2"/>
</svg>
