<svg width="56" height="54" viewBox="0 0 56 54" fill="none" xmlns="http://www.w3.org/2000/svg">
<circle cx="27" cy="27" r="27" fill="#1E4D51"/>
<path d="M10.5734 31.74C10.8134 32.36 11.1584 32.68 11.6084 32.7V33C11.2084 32.97 10.6734 32.955 10.0034 32.955C9.14336 32.955 8.50336 32.97 8.08336 33V32.7C8.46336 32.68 8.73336 32.635 8.89336 32.565C9.06336 32.485 9.14836 32.345 9.14836 32.145C9.14836 31.975 9.08836 31.74 8.96836 31.44L8.05336 28.98H4.42336L3.80836 30.57C3.60836 31.11 3.50836 31.52 3.50836 31.8C3.50836 32.11 3.61336 32.335 3.82336 32.475C4.04336 32.615 4.37336 32.69 4.81336 32.7V33C4.24336 32.97 3.66836 32.955 3.08836 32.955C2.63836 32.955 2.26336 32.97 1.96336 33V32.7C2.46336 32.58 2.85836 32.145 3.14836 31.395L6.67336 22.305H6.91336L10.5734 31.74ZM7.93336 28.68L6.25336 24.195L4.54336 28.68H7.93336ZM15.9486 22.38C17.7186 22.38 19.0436 22.825 19.9236 23.715C20.8036 24.595 21.2436 25.88 21.2436 27.57C21.2436 28.66 21.0286 29.615 20.5986 30.435C20.1686 31.255 19.5436 31.89 18.7236 32.34C17.9136 32.78 16.9436 33 15.8136 33L14.9436 32.985C14.3836 32.965 13.9736 32.955 13.7136 32.955C12.8936 32.955 12.2736 32.97 11.8536 33V32.7C12.2136 32.68 12.4736 32.64 12.6336 32.58C12.8036 32.52 12.9186 32.405 12.9786 32.235C13.0386 32.065 13.0686 31.79 13.0686 31.41V23.97C13.0686 23.59 13.0386 23.315 12.9786 23.145C12.9186 22.975 12.8036 22.86 12.6336 22.8C12.4736 22.74 12.2136 22.7 11.8536 22.68V22.38C12.2036 22.41 12.6886 22.425 13.3086 22.425L14.5836 22.41C15.2636 22.39 15.7186 22.38 15.9486 22.38ZM15.5736 22.65C15.2636 22.65 15.0286 22.685 14.8686 22.755C14.7186 22.825 14.6136 22.95 14.5536 23.13C14.4936 23.31 14.4636 23.58 14.4636 23.94V31.44C14.4636 31.8 14.4936 32.07 14.5536 32.25C14.6136 32.43 14.7186 32.555 14.8686 32.625C15.0286 32.695 15.2686 32.73 15.5886 32.73C16.6486 32.73 17.4836 32.54 18.0936 32.16C18.7036 31.77 19.1286 31.205 19.3686 30.465C19.6186 29.725 19.7436 28.78 19.7436 27.63C19.7436 26.48 19.6086 25.545 19.3386 24.825C19.0686 24.095 18.6286 23.55 18.0186 23.19C17.4186 22.83 16.6036 22.65 15.5736 22.65ZM27.6285 22.17C28.5785 22.17 29.4085 22.385 30.1185 22.815C30.8385 23.245 31.3935 23.87 31.7835 24.69C32.1835 25.5 32.3835 26.47 32.3835 27.6C32.3835 28.7 32.1785 29.675 31.7685 30.525C31.3685 31.375 30.8035 32.035 30.0735 32.505C29.3535 32.975 28.5335 33.21 27.6135 33.21C26.6635 33.21 25.8285 32.995 25.1085 32.565C24.3985 32.135 23.8435 31.515 23.4435 30.705C23.0535 29.885 22.8585 28.91 22.8585 27.78C22.8585 26.68 23.0585 25.705 23.4585 24.855C23.8685 24.005 24.4335 23.345 25.1535 22.875C25.8835 22.405 26.7085 22.17 27.6285 22.17ZM27.5685 22.44C26.9285 22.44 26.3635 22.665 25.8735 23.115C25.3935 23.555 25.0185 24.175 24.7485 24.975C24.4885 25.775 24.3585 26.69 24.3585 27.72C24.3585 28.76 24.5035 29.675 24.7935 30.465C25.0935 31.255 25.4935 31.865 25.9935 32.295C26.4935 32.725 27.0535 32.94 27.6735 32.94C28.3135 32.94 28.8735 32.72 29.3535 32.28C29.8435 31.83 30.2185 31.205 30.4785 30.405C30.7485 29.605 30.8835 28.69 30.8835 27.66C30.8835 26.62 30.7335 25.705 30.4335 24.915C30.1435 24.125 29.7485 23.515 29.2485 23.085C28.7485 22.655 28.1885 22.44 27.5685 22.44ZM42.9645 32.25C42.7345 32.59 42.5045 32.835 42.2745 32.985C42.0445 33.135 41.7395 33.21 41.3595 33.21C40.9495 33.21 40.6095 33.09 40.3395 32.85C40.0795 32.61 39.8845 32.19 39.7545 31.59L39.4245 30.09C39.3045 29.57 39.1895 29.17 39.0795 28.89C38.9795 28.61 38.8245 28.385 38.6145 28.215C38.4045 28.045 38.1095 27.96 37.7295 27.96H36.3045V31.41C36.3045 31.79 36.3345 32.065 36.3945 32.235C36.4545 32.405 36.5645 32.52 36.7245 32.58C36.8945 32.64 37.1595 32.68 37.5195 32.7V33C37.0595 32.97 36.4245 32.955 35.6145 32.955C34.7545 32.955 34.1145 32.97 33.6945 33V32.7C34.0545 32.68 34.3145 32.64 34.4745 32.58C34.6445 32.52 34.7595 32.405 34.8195 32.235C34.8795 32.065 34.9095 31.79 34.9095 31.41V23.97C34.9095 23.59 34.8795 23.315 34.8195 23.145C34.7595 22.975 34.6445 22.86 34.4745 22.8C34.3145 22.74 34.0545 22.7 33.6945 22.68V22.38C34.1145 22.41 34.7245 22.425 35.5245 22.425L37.1445 22.41C37.3345 22.4 37.5495 22.395 37.7895 22.395C38.9495 22.395 39.8395 22.64 40.4595 23.13C41.0895 23.61 41.4045 24.235 41.4045 25.005C41.4045 25.395 41.3095 25.79 41.1195 26.19C40.9395 26.58 40.6295 26.935 40.1895 27.255C39.7595 27.565 39.1945 27.775 38.4945 27.885L38.6745 27.915C39.3345 28.025 39.8145 28.225 40.1145 28.515C40.4145 28.805 40.6345 29.265 40.7745 29.895L41.1495 31.425C41.2495 31.885 41.3545 32.205 41.4645 32.385C41.5745 32.565 41.7245 32.655 41.9145 32.655C42.0845 32.655 42.2245 32.61 42.3345 32.52C42.4545 32.43 42.5895 32.285 42.7395 32.085L42.9645 32.25ZM37.4145 22.68C37.1045 22.68 36.8695 22.715 36.7095 22.785C36.5595 22.855 36.4545 22.98 36.3945 23.16C36.3345 23.34 36.3045 23.61 36.3045 23.97V27.66H37.3095C38.2995 27.66 38.9795 27.44 39.3495 27C39.7195 26.56 39.9045 25.95 39.9045 25.17C39.9045 24.35 39.7095 23.73 39.3195 23.31C38.9295 22.89 38.2945 22.68 37.4145 22.68ZM51.101 31.08C51.101 31.65 51.136 32.29 51.206 33C50.526 32.97 49.381 32.955 47.771 32.955C45.851 32.955 44.401 32.97 43.421 33V32.7C43.781 32.68 44.041 32.64 44.201 32.58C44.371 32.52 44.486 32.405 44.546 32.235C44.606 32.065 44.636 31.79 44.636 31.41V23.97C44.636 23.59 44.606 23.315 44.546 23.145C44.486 22.975 44.371 22.86 44.201 22.8C44.041 22.74 43.781 22.7 43.421 22.68V22.38C44.401 22.41 45.851 22.425 47.771 22.425C49.241 22.425 50.286 22.41 50.906 22.38C50.836 23.04 50.801 23.63 50.801 24.15C50.801 24.54 50.816 24.85 50.846 25.08H50.501C50.431 24.43 50.341 23.95 50.231 23.64C50.121 23.32 49.936 23.09 49.676 22.95C49.416 22.8 49.021 22.725 48.491 22.725H47.246C46.886 22.725 46.621 22.755 46.451 22.815C46.291 22.865 46.181 22.975 46.121 23.145C46.061 23.315 46.031 23.59 46.031 23.97V27.51H47.021C47.371 27.51 47.641 27.43 47.831 27.27C48.021 27.1 48.146 26.905 48.206 26.685C48.276 26.455 48.331 26.17 48.371 25.83L48.416 25.53H48.761C48.731 25.95 48.716 26.42 48.716 26.94V27.66C48.716 28.17 48.746 28.88 48.806 29.79H48.461C48.451 29.72 48.421 29.48 48.371 29.07C48.321 28.65 48.181 28.335 47.951 28.125C47.731 27.915 47.421 27.81 47.021 27.81H46.031V31.41C46.031 31.79 46.061 32.065 46.121 32.235C46.181 32.405 46.291 32.52 46.451 32.58C46.621 32.63 46.886 32.655 47.246 32.655H48.341C48.961 32.655 49.431 32.575 49.751 32.415C50.081 32.245 50.321 31.98 50.471 31.62C50.621 31.25 50.731 30.71 50.801 30H51.146C51.116 30.27 51.101 30.63 51.101 31.08Z" fill="#E4B0A2"/>
</svg>
