<svg width="151" height="16" viewBox="0 0 151 16" fill="none" xmlns="http://www.w3.org/2000/svg">
<path d="M6.678 0.00399888C7.398 0.00399888 8.01 0.105999 8.514 0.309999C9.018 0.513999 9.51 0.802 9.99 1.174C10.122 1.282 10.236 1.336 10.332 1.336C10.572 1.336 10.728 0.976 10.8 0.256H11.214C11.166 1.036 11.142 2.416 11.142 4.396H10.728C10.596 3.616 10.476 3.058 10.368 2.722C10.26 2.374 10.08 2.044 9.828 1.732C9.468 1.264 9.006 0.916 8.442 0.688C7.89 0.447999 7.29 0.327999 6.642 0.327999C5.862 0.327999 5.178 0.585999 4.59 1.102C4.014 1.618 3.564 2.356 3.24 3.316C2.916 4.264 2.754 5.38 2.754 6.664C2.754 7.972 2.928 9.094 3.276 10.03C3.624 10.966 4.104 11.68 4.716 12.172C5.34 12.652 6.042 12.892 6.822 12.892C7.422 12.892 8.004 12.778 8.568 12.55C9.132 12.322 9.576 11.98 9.9 11.524C10.14 11.188 10.314 10.828 10.422 10.444C10.53 10.06 10.632 9.472 10.728 8.68H11.142C11.142 10.744 11.166 12.184 11.214 13H10.8C10.764 12.616 10.71 12.346 10.638 12.19C10.578 12.022 10.488 11.938 10.368 11.938C10.272 11.938 10.146 11.986 9.99 12.082C9.45 12.466 8.934 12.76 8.442 12.964C7.95 13.156 7.356 13.252 6.66 13.252C5.52 13.252 4.518 12.994 3.654 12.478C2.802 11.962 2.136 11.218 1.656 10.246C1.188 9.262 0.954 8.092 0.954 6.736C0.954 5.416 1.194 4.246 1.674 3.226C2.166 2.206 2.844 1.414 3.708 0.85C4.584 0.285999 5.574 0.00399888 6.678 0.00399888ZM25.2626 0.616C24.8306 0.639999 24.5126 0.687999 24.3086 0.76C24.1166 0.832 23.9846 0.97 23.9126 1.174C23.8406 1.378 23.8046 1.708 23.8046 2.164V11.092C23.8046 11.548 23.8406 11.878 23.9126 12.082C23.9846 12.286 24.1166 12.424 24.3086 12.496C24.5126 12.568 24.8306 12.616 25.2626 12.64V13C24.7586 12.964 23.9906 12.946 22.9586 12.946C21.9866 12.946 21.2246 12.964 20.6726 13V12.64C21.1046 12.616 21.4166 12.568 21.6086 12.496C21.8126 12.424 21.9506 12.286 22.0226 12.082C22.0946 11.878 22.1306 11.548 22.1306 11.092V2.164C22.1306 1.708 22.0946 1.378 22.0226 1.174C21.9506 0.958 21.8126 0.814 21.6086 0.741999C21.4046 0.657999 21.0926 0.616 20.6726 0.616H17.7386C17.3186 0.616 17.0066 0.657999 16.8026 0.741999C16.5986 0.814 16.4606 0.958 16.3886 1.174C16.3166 1.378 16.2806 1.708 16.2806 2.164V11.092C16.2806 11.548 16.3166 11.878 16.3886 12.082C16.4606 12.286 16.5926 12.424 16.7846 12.496C16.9886 12.568 17.3066 12.616 17.7386 12.64V13C17.1866 12.964 16.4246 12.946 15.4526 12.946C14.4206 12.946 13.6526 12.964 13.1486 13V12.64C13.5806 12.616 13.8926 12.568 14.0846 12.496C14.2886 12.424 14.4266 12.286 14.4986 12.082C14.5706 11.878 14.6066 11.548 14.6066 11.092V2.164C14.6066 1.708 14.5706 1.378 14.4986 1.174C14.4266 0.97 14.2886 0.832 14.0846 0.76C13.8926 0.687999 13.5806 0.639999 13.1486 0.616V0.256C13.6526 0.291999 14.4206 0.309999 15.4526 0.309999C16.0526 0.309999 16.8326 0.297999 17.7926 0.274L19.2326 0.256L20.6366 0.274C21.5966 0.297999 22.3706 0.309999 22.9586 0.309999C23.9906 0.309999 24.7586 0.291999 25.2626 0.256V0.616ZM36.2216 11.488C36.5096 12.232 36.9236 12.616 37.4636 12.64V13C36.9836 12.964 36.3416 12.946 35.5376 12.946C34.5056 12.946 33.7376 12.964 33.2336 13V12.64C33.6896 12.616 34.0136 12.562 34.2056 12.478C34.4096 12.382 34.5116 12.214 34.5116 11.974C34.5116 11.77 34.4396 11.488 34.2956 11.128L33.1976 8.176H28.8416L28.1036 10.084C27.8636 10.732 27.7436 11.224 27.7436 11.56C27.7436 11.932 27.8696 12.202 28.1216 12.37C28.3856 12.538 28.7816 12.628 29.3096 12.64V13C28.6256 12.964 27.9356 12.946 27.2396 12.946C26.6996 12.946 26.2496 12.964 25.8896 13V12.64C26.4896 12.496 26.9636 11.974 27.3116 11.074L31.5416 0.165999H31.8296L36.2216 11.488ZM33.0536 7.816L31.0376 2.434L28.9856 7.816H33.0536ZM52.0419 11.488C52.3299 12.232 52.7439 12.616 53.2839 12.64V13C52.8039 12.964 52.1619 12.946 51.3579 12.946C50.3259 12.946 49.5579 12.964 49.0539 13V12.64C49.5099 12.616 49.8339 12.562 50.0259 12.478C50.2299 12.382 50.3319 12.214 50.3319 11.974C50.3319 11.77 50.2599 11.488 50.1159 11.128L49.0179 8.176H44.6619L43.9239 10.084C43.6839 10.732 43.5639 11.224 43.5639 11.56C43.5639 11.932 43.6899 12.202 43.9419 12.37C44.2059 12.538 44.6019 12.628 45.1299 12.64V13C44.4459 12.964 43.7559 12.946 43.0599 12.946C42.5199 12.946 42.0699 12.964 41.7099 13V12.64C42.3099 12.496 42.7839 11.974 43.1319 11.074L47.3619 0.165999H47.6499L52.0419 11.488ZM48.8739 7.816L46.8579 2.434L44.8059 7.816H48.8739ZM64.1538 12.64C64.0698 13.432 64.0278 14.14 64.0278 14.764C64.0278 15.244 64.0458 15.616 64.0818 15.88H63.6678C63.5838 15.1 63.4758 14.512 63.3438 14.116C63.2118 13.732 62.9838 13.45 62.6598 13.27C62.3478 13.09 61.8798 13 61.2558 13H56.1258C55.5018 13 55.0278 13.09 54.7038 13.27C54.3918 13.45 54.1698 13.732 54.0378 14.116C53.9058 14.512 53.7978 15.1 53.7138 15.88H53.2998C53.3358 15.616 53.3538 15.244 53.3538 14.764C53.3538 14.14 53.3118 13.432 53.2278 12.64H53.5518C54.4038 12.64 55.0578 12.142 55.5138 11.146C55.9698 10.138 56.2818 8.956 56.4498 7.6C56.6178 6.232 56.7678 4.42 56.8998 2.164C56.9238 1.732 56.8998 1.414 56.8278 1.21C56.7678 0.993999 56.6358 0.849999 56.4318 0.778C56.2278 0.693999 55.8978 0.639999 55.4418 0.616V0.256C55.9458 0.291999 56.5638 0.309999 57.2958 0.309999C57.4758 0.309999 57.7458 0.297999 58.1058 0.274L58.8798 0.256L60.0858 0.274C60.6378 0.297999 61.0938 0.309999 61.4538 0.309999C62.3778 0.309999 63.0918 0.291999 63.5958 0.256V0.616C63.1638 0.639999 62.8458 0.687999 62.6418 0.76C62.4498 0.832 62.3178 0.97 62.2458 1.174C62.1738 1.378 62.1378 1.708 62.1378 2.164V11.092C62.1378 11.548 62.1738 11.884 62.2458 12.1C62.3178 12.304 62.4558 12.448 62.6598 12.532C62.8638 12.604 63.1758 12.64 63.5958 12.64H64.1538ZM60.4638 2.164C60.4638 1.708 60.4278 1.378 60.3558 1.174C60.2838 0.958 60.1458 0.814 59.9418 0.741999C59.7378 0.657999 59.4258 0.616 59.0058 0.616H58.7718C58.3398 0.616 58.0278 0.657999 57.8358 0.741999C57.6558 0.814 57.5358 0.952 57.4758 1.156C57.4158 1.348 57.3618 1.684 57.3138 2.164L57.1698 3.928C57.0618 5.488 56.9418 6.79 56.8098 7.834C56.6778 8.866 56.4498 9.832 56.1258 10.732C55.8018 11.632 55.3458 12.268 54.7578 12.64H59.0058C59.4258 12.64 59.7378 12.604 59.9418 12.532C60.1458 12.448 60.2838 12.304 60.3558 12.1C60.4278 11.884 60.4638 11.548 60.4638 11.092V2.164ZM68.3821 7.852V11.092C68.3821 11.548 68.4301 11.878 68.5261 12.082C68.6221 12.286 68.7901 12.424 69.0301 12.496C69.2701 12.568 69.6601 12.616 70.2001 12.64V13C69.5761 12.964 68.6941 12.946 67.5541 12.946C66.5221 12.946 65.7541 12.964 65.2501 13V12.64C65.6821 12.616 65.9941 12.568 66.1861 12.496C66.3901 12.424 66.5281 12.286 66.6001 12.082C66.6721 11.878 66.7081 11.548 66.7081 11.092V2.164C66.7081 1.708 66.6721 1.378 66.6001 1.174C66.5281 0.97 66.3901 0.832 66.1861 0.76C65.9941 0.687999 65.6821 0.639999 65.2501 0.616V0.256C65.7541 0.291999 66.4861 0.309999 67.4461 0.309999L69.3901 0.291999C69.6181 0.28 69.8761 0.274 70.1641 0.274C71.5681 0.274 72.6421 0.597999 73.3861 1.246C74.1301 1.882 74.5021 2.74 74.5021 3.82C74.5021 4.48 74.3521 5.116 74.0521 5.728C73.7641 6.328 73.2661 6.832 72.5581 7.24C71.8621 7.648 70.9321 7.852 69.7681 7.852H68.3821ZM69.7141 0.616C69.3421 0.616 69.0601 0.657999 68.8681 0.741999C68.6881 0.825999 68.5621 0.976 68.4901 1.192C68.4181 1.408 68.3821 1.732 68.3821 2.164V7.492H69.5881C70.7641 7.492 71.5741 7.18 72.0181 6.556C72.4741 5.92 72.7021 5.074 72.7021 4.018C72.7021 2.854 72.4681 1.996 72.0001 1.444C71.5441 0.892 70.7821 0.616 69.7141 0.616ZM84.9954 10.696C84.9954 11.38 85.0374 12.148 85.1214 13C84.3054 12.964 82.9314 12.946 80.9994 12.946C78.6954 12.946 76.9554 12.964 75.7794 13V12.64C76.2114 12.616 76.5234 12.568 76.7154 12.496C76.9194 12.424 77.0574 12.286 77.1294 12.082C77.2014 11.878 77.2374 11.548 77.2374 11.092V2.164C77.2374 1.708 77.2014 1.378 77.1294 1.174C77.0574 0.97 76.9194 0.832 76.7154 0.76C76.5234 0.687999 76.2114 0.639999 75.7794 0.616V0.256C76.9554 0.291999 78.6954 0.309999 80.9994 0.309999C82.7634 0.309999 84.0174 0.291999 84.7614 0.256C84.6774 1.048 84.6354 1.756 84.6354 2.38C84.6354 2.848 84.6534 3.22 84.6894 3.496H84.2754C84.1914 2.716 84.0834 2.14 83.9514 1.768C83.8194 1.384 83.5974 1.108 83.2854 0.94C82.9734 0.759999 82.4994 0.669999 81.8634 0.669999H80.3694C79.9374 0.669999 79.6194 0.705999 79.4154 0.778C79.2234 0.838 79.0914 0.97 79.0194 1.174C78.9474 1.378 78.9114 1.708 78.9114 2.164V6.412H80.0994C80.5194 6.412 80.8434 6.316 81.0714 6.124C81.2994 5.92 81.4494 5.686 81.5214 5.422C81.6054 5.146 81.6714 4.804 81.7194 4.396L81.7734 4.036H82.1874C82.1514 4.54 82.1334 5.104 82.1334 5.728V6.592C82.1334 7.204 82.1694 8.056 82.2414 9.148H81.8274C81.8154 9.064 81.7794 8.776 81.7194 8.284C81.6594 7.78 81.4914 7.402 81.2154 7.15C80.9514 6.898 80.5794 6.772 80.0994 6.772H78.9114V11.092C78.9114 11.548 78.9474 11.878 79.0194 12.082C79.0914 12.286 79.2234 12.424 79.4154 12.496C79.6194 12.556 79.9374 12.586 80.3694 12.586H81.6834C82.4274 12.586 82.9914 12.49 83.3754 12.298C83.7714 12.094 84.0594 11.776 84.2394 11.344C84.4194 10.9 84.5514 10.252 84.6354 9.4H85.0494C85.0134 9.724 84.9954 10.156 84.9954 10.696ZM98.8622 0.616C98.4302 0.639999 98.1122 0.687999 97.9082 0.76C97.7162 0.832 97.5842 0.97 97.5122 1.174C97.4402 1.378 97.4042 1.708 97.4042 2.164V11.092C97.4042 11.548 97.4402 11.878 97.5122 12.082C97.5842 12.286 97.7162 12.424 97.9082 12.496C98.1122 12.568 98.4302 12.616 98.8622 12.64V13C98.3582 12.964 97.5902 12.946 96.5582 12.946C95.5862 12.946 94.8242 12.964 94.2722 13V12.64C94.7042 12.616 95.0162 12.568 95.2082 12.496C95.4122 12.424 95.5502 12.286 95.6222 12.082C95.6942 11.878 95.7302 11.548 95.7302 11.092V6.772H89.8802V11.092C89.8802 11.548 89.9162 11.878 89.9882 12.082C90.0602 12.286 90.1922 12.424 90.3842 12.496C90.5882 12.568 90.9062 12.616 91.3382 12.64V13C90.7862 12.964 90.0242 12.946 89.0522 12.946C88.0202 12.946 87.2522 12.964 86.7482 13V12.64C87.1802 12.616 87.4922 12.568 87.6842 12.496C87.8882 12.424 88.0262 12.286 88.0982 12.082C88.1702 11.878 88.2062 11.548 88.2062 11.092V2.164C88.2062 1.708 88.1702 1.378 88.0982 1.174C88.0262 0.97 87.8882 0.832 87.6842 0.76C87.4922 0.687999 87.1802 0.639999 86.7482 0.616V0.256C87.2522 0.291999 88.0202 0.309999 89.0522 0.309999C90.0122 0.309999 90.7742 0.291999 91.3382 0.256V0.616C90.9062 0.639999 90.5882 0.687999 90.3842 0.76C90.1922 0.832 90.0602 0.97 89.9882 1.174C89.9162 1.378 89.8802 1.708 89.8802 2.164V6.412H95.7302V2.164C95.7302 1.708 95.6942 1.378 95.6222 1.174C95.5502 0.97 95.4122 0.832 95.2082 0.76C95.0162 0.687999 94.7042 0.639999 94.2722 0.616V0.256C94.8242 0.291999 95.5862 0.309999 96.5582 0.309999C97.5902 0.309999 98.3582 0.291999 98.8622 0.256V0.616ZM109.821 11.488C110.109 12.232 110.523 12.616 111.063 12.64V13C110.583 12.964 109.941 12.946 109.137 12.946C108.105 12.946 107.337 12.964 106.833 13V12.64C107.289 12.616 107.613 12.562 107.805 12.478C108.009 12.382 108.111 12.214 108.111 11.974C108.111 11.77 108.039 11.488 107.895 11.128L106.797 8.176H102.441L101.703 10.084C101.463 10.732 101.343 11.224 101.343 11.56C101.343 11.932 101.469 12.202 101.721 12.37C101.985 12.538 102.381 12.628 102.909 12.64V13C102.225 12.964 101.535 12.946 100.839 12.946C100.299 12.946 99.8492 12.964 99.4892 13V12.64C100.089 12.496 100.563 11.974 100.911 11.074L105.141 0.165999H105.429L109.821 11.488ZM106.653 7.816L104.637 2.434L102.585 7.816H106.653ZM122.581 0.616C122.149 0.639999 121.831 0.687999 121.627 0.76C121.435 0.832 121.303 0.97 121.231 1.174C121.159 1.378 121.123 1.708 121.123 2.164V11.092C121.123 11.548 121.159 11.878 121.231 12.082C121.303 12.286 121.435 12.424 121.627 12.496C121.831 12.568 122.149 12.616 122.581 12.64V13C122.077 12.964 121.309 12.946 120.277 12.946C119.149 12.946 118.267 12.964 117.631 13V12.64C118.171 12.616 118.561 12.568 118.801 12.496C119.041 12.424 119.209 12.286 119.305 12.082C119.401 11.878 119.449 11.548 119.449 11.092V2.164C119.449 1.708 119.413 1.378 119.341 1.174C119.269 0.958 119.131 0.814 118.927 0.741999C118.723 0.657999 118.411 0.616 117.991 0.616H117.757C117.325 0.616 117.013 0.657999 116.821 0.741999C116.641 0.814 116.515 0.952 116.443 1.156C116.383 1.348 116.335 1.684 116.299 2.164C116.263 2.536 116.221 3.118 116.173 3.91C116.053 5.806 115.897 7.384 115.705 8.644C115.525 9.892 115.183 10.972 114.679 11.884C114.175 12.796 113.461 13.252 112.537 13.252C112.081 13.252 111.691 13.156 111.367 12.964C111.055 12.76 110.899 12.448 110.899 12.028C110.899 11.716 110.995 11.47 111.187 11.29C111.391 11.098 111.649 11.002 111.961 11.002C112.225 11.002 112.441 11.074 112.609 11.218C112.789 11.362 112.879 11.554 112.879 11.794C112.879 12.046 112.819 12.256 112.699 12.424C112.579 12.58 112.381 12.736 112.105 12.892C112.213 12.904 112.357 12.91 112.537 12.91C113.389 12.91 114.043 12.4 114.499 11.38C114.955 10.36 115.267 9.154 115.435 7.762C115.603 6.358 115.753 4.492 115.885 2.164C115.897 2.068 115.903 1.936 115.903 1.768C115.903 1.456 115.861 1.222 115.777 1.066C115.693 0.909999 115.549 0.801999 115.345 0.741999C115.141 0.681999 114.835 0.639999 114.427 0.616V0.256C114.931 0.291999 115.549 0.309999 116.281 0.309999C116.461 0.309999 116.731 0.297999 117.091 0.274L117.865 0.256L119.071 0.274C119.623 0.297999 120.079 0.309999 120.439 0.309999C121.363 0.309999 122.077 0.291999 122.581 0.256V0.616ZM136.576 0.616C136.144 0.639999 135.826 0.687999 135.622 0.76C135.43 0.832 135.298 0.97 135.226 1.174C135.154 1.378 135.118 1.708 135.118 2.164V11.092C135.118 11.548 135.154 11.878 135.226 12.082C135.298 12.286 135.43 12.424 135.622 12.496C135.826 12.568 136.144 12.616 136.576 12.64V13C136.072 12.964 135.304 12.946 134.272 12.946C133.312 12.946 132.55 12.964 131.986 13V12.64C132.418 12.616 132.73 12.568 132.922 12.496C133.126 12.424 133.264 12.286 133.336 12.082C133.408 11.878 133.444 11.548 133.444 11.092V2.578L127.234 11.38C127.246 11.728 127.294 11.992 127.378 12.172C127.462 12.34 127.6 12.454 127.792 12.514C127.984 12.574 128.284 12.616 128.692 12.64V13C128.14 12.964 127.378 12.946 126.406 12.946C125.374 12.946 124.606 12.964 124.102 13V12.64C124.534 12.616 124.846 12.568 125.038 12.496C125.242 12.424 125.38 12.286 125.452 12.082C125.524 11.878 125.56 11.548 125.56 11.092V2.164C125.56 1.708 125.524 1.378 125.452 1.174C125.38 0.97 125.242 0.832 125.038 0.76C124.846 0.687999 124.534 0.639999 124.102 0.616V0.256C124.606 0.291999 125.374 0.309999 126.406 0.309999C127.366 0.309999 128.128 0.291999 128.692 0.256V0.616C128.26 0.639999 127.942 0.687999 127.738 0.76C127.546 0.832 127.414 0.97 127.342 1.174C127.27 1.378 127.234 1.708 127.234 2.164V10.678L133.444 1.876C133.432 1.528 133.384 1.27 133.3 1.102C133.216 0.921999 133.078 0.801999 132.886 0.741999C132.694 0.681999 132.394 0.639999 131.986 0.616V0.256C132.55 0.291999 133.312 0.309999 134.272 0.309999C135.304 0.309999 136.072 0.291999 136.576 0.256V0.616ZM150.208 0.616C149.776 0.639999 149.458 0.687999 149.254 0.76C149.062 0.832 148.93 0.97 148.858 1.174C148.786 1.378 148.75 1.708 148.75 2.164V11.092C148.75 11.548 148.786 11.878 148.858 12.082C148.93 12.286 149.062 12.424 149.254 12.496C149.458 12.568 149.776 12.616 150.208 12.64V13C149.704 12.964 148.936 12.946 147.904 12.946C146.932 12.946 146.17 12.964 145.618 13V12.64C146.05 12.616 146.362 12.568 146.554 12.496C146.758 12.424 146.896 12.286 146.968 12.082C147.04 11.878 147.076 11.548 147.076 11.092V6.772H141.226V11.092C141.226 11.548 141.262 11.878 141.334 12.082C141.406 12.286 141.538 12.424 141.73 12.496C141.934 12.568 142.252 12.616 142.684 12.64V13C142.132 12.964 141.37 12.946 140.398 12.946C139.366 12.946 138.598 12.964 138.094 13V12.64C138.526 12.616 138.838 12.568 139.03 12.496C139.234 12.424 139.372 12.286 139.444 12.082C139.516 11.878 139.552 11.548 139.552 11.092V2.164C139.552 1.708 139.516 1.378 139.444 1.174C139.372 0.97 139.234 0.832 139.03 0.76C138.838 0.687999 138.526 0.639999 138.094 0.616V0.256C138.598 0.291999 139.366 0.309999 140.398 0.309999C141.358 0.309999 142.12 0.291999 142.684 0.256V0.616C142.252 0.639999 141.934 0.687999 141.73 0.76C141.538 0.832 141.406 0.97 141.334 1.174C141.262 1.378 141.226 1.708 141.226 2.164V6.412H147.076V2.164C147.076 1.708 147.04 1.378 146.968 1.174C146.896 0.97 146.758 0.832 146.554 0.76C146.362 0.687999 146.05 0.639999 145.618 0.616V0.256C146.17 0.291999 146.932 0.309999 147.904 0.309999C148.936 0.309999 149.704 0.291999 150.208 0.256V0.616Z" fill="#E4B0A2"/>
</svg>
