<svg width="203" height="14" viewBox="0 0 203 14" fill="none" xmlns="http://www.w3.org/2000/svg">
<path d="M12.87 0.616C12.438 0.639999 12.12 0.687999 11.916 0.76C11.724 0.832 11.592 0.97 11.52 1.174C11.448 1.378 11.412 1.708 11.412 2.164V11.092C11.412 11.548 11.448 11.878 11.52 12.082C11.592 12.286 11.724 12.424 11.916 12.496C12.12 12.568 12.438 12.616 12.87 12.64V13C12.366 12.964 11.598 12.946 10.566 12.946C9.594 12.946 8.832 12.964 8.28 13V12.64C8.712 12.616 9.024 12.568 9.216 12.496C9.42 12.424 9.558 12.286 9.63 12.082C9.702 11.878 9.738 11.548 9.738 11.092V6.772H3.888V11.092C3.888 11.548 3.924 11.878 3.996 12.082C4.068 12.286 4.2 12.424 4.392 12.496C4.596 12.568 4.914 12.616 5.346 12.64V13C4.794 12.964 4.032 12.946 3.06 12.946C2.028 12.946 1.26 12.964 0.756 13V12.64C1.188 12.616 1.5 12.568 1.692 12.496C1.896 12.424 2.034 12.286 2.106 12.082C2.178 11.878 2.214 11.548 2.214 11.092V2.164C2.214 1.708 2.178 1.378 2.106 1.174C2.034 0.97 1.896 0.832 1.692 0.76C1.5 0.687999 1.188 0.639999 0.756 0.616V0.256C1.26 0.291999 2.028 0.309999 3.06 0.309999C4.02 0.309999 4.782 0.291999 5.346 0.256V0.616C4.914 0.639999 4.596 0.687999 4.392 0.76C4.2 0.832 4.068 0.97 3.996 1.174C3.924 1.378 3.888 1.708 3.888 2.164V6.412H9.738V2.164C9.738 1.708 9.702 1.378 9.63 1.174C9.558 0.97 9.42 0.832 9.216 0.76C9.024 0.687999 8.712 0.639999 8.28 0.616V0.256C8.832 0.291999 9.594 0.309999 10.566 0.309999C11.598 0.309999 12.366 0.291999 12.87 0.256V0.616ZM23.595 10.696C23.595 11.38 23.637 12.148 23.721 13C22.905 12.964 21.531 12.946 19.599 12.946C17.295 12.946 15.555 12.964 14.379 13V12.64C14.811 12.616 15.123 12.568 15.315 12.496C15.519 12.424 15.657 12.286 15.729 12.082C15.801 11.878 15.837 11.548 15.837 11.092V2.164C15.837 1.708 15.801 1.378 15.729 1.174C15.657 0.97 15.519 0.832 15.315 0.76C15.123 0.687999 14.811 0.639999 14.379 0.616V0.256C15.555 0.291999 17.295 0.309999 19.599 0.309999C21.363 0.309999 22.617 0.291999 23.361 0.256C23.277 1.048 23.235 1.756 23.235 2.38C23.235 2.848 23.253 3.22 23.289 3.496H22.875C22.791 2.716 22.683 2.14 22.551 1.768C22.419 1.384 22.197 1.108 21.885 0.94C21.573 0.759999 21.099 0.669999 20.463 0.669999H18.969C18.537 0.669999 18.219 0.705999 18.015 0.778C17.823 0.838 17.691 0.97 17.619 1.174C17.547 1.378 17.511 1.708 17.511 2.164V6.412H18.699C19.119 6.412 19.443 6.316 19.671 6.124C19.899 5.92 20.049 5.686 20.121 5.422C20.205 5.146 20.271 4.804 20.319 4.396L20.373 4.036H20.787C20.751 4.54 20.733 5.104 20.733 5.728V6.592C20.733 7.204 20.769 8.056 20.841 9.148H20.427C20.415 9.064 20.379 8.776 20.319 8.284C20.259 7.78 20.091 7.402 19.815 7.15C19.551 6.898 19.179 6.772 18.699 6.772H17.511V11.092C17.511 11.548 17.547 11.878 17.619 12.082C17.691 12.286 17.823 12.424 18.015 12.496C18.219 12.556 18.537 12.586 18.969 12.586H20.283C21.027 12.586 21.591 12.49 21.975 12.298C22.371 12.094 22.659 11.776 22.839 11.344C23.019 10.9 23.151 10.252 23.235 9.4H23.649C23.613 9.724 23.595 10.156 23.595 10.696ZM46.4442 0.616C46.0122 0.639999 45.6942 0.687999 45.4902 0.76C45.2982 0.832 45.1662 0.97 45.0942 1.174C45.0222 1.378 44.9862 1.708 44.9862 2.164V11.092C44.9862 11.548 45.0222 11.878 45.0942 12.082C45.1662 12.286 45.2982 12.424 45.4902 12.496C45.6942 12.568 46.0122 12.616 46.4442 12.64V13C45.9402 12.964 45.1722 12.946 44.1402 12.946L42.8082 12.964C42.0402 12.988 41.4162 13 40.9362 13C40.4682 13 39.8862 12.988 39.1902 12.964L38.1642 12.946L37.1022 12.964C36.4062 12.988 35.8122 13 35.3202 13C34.8042 13 34.1742 12.988 33.4302 12.964L32.1342 12.946C31.1022 12.946 30.3342 12.964 29.8302 13V12.64C30.2622 12.616 30.5742 12.568 30.7662 12.496C30.9702 12.424 31.1082 12.286 31.1802 12.082C31.2522 11.878 31.2882 11.548 31.2882 11.092V2.164C31.2882 1.708 31.2522 1.378 31.1802 1.174C31.1082 0.97 30.9702 0.832 30.7662 0.76C30.5742 0.687999 30.2622 0.639999 29.8302 0.616V0.256C30.3342 0.291999 31.1022 0.309999 32.1342 0.309999C33.0102 0.309999 33.7122 0.291999 34.2402 0.256V0.616C33.8562 0.639999 33.5802 0.687999 33.4122 0.76C33.2442 0.832 33.1242 0.97 33.0522 1.174C32.9922 1.378 32.9622 1.708 32.9622 2.164V11.092C32.9622 11.548 32.9982 11.884 33.0702 12.1C33.1422 12.304 33.2802 12.448 33.4842 12.532C33.6882 12.604 34.0002 12.64 34.4202 12.64H35.8422C36.2622 12.64 36.5742 12.604 36.7782 12.532C36.9822 12.448 37.1202 12.304 37.1922 12.1C37.2642 11.884 37.3002 11.548 37.3002 11.092V2.164C37.3002 1.708 37.2702 1.378 37.2102 1.174C37.1502 0.97 37.0302 0.832 36.8502 0.76C36.6822 0.687999 36.4062 0.639999 36.0222 0.616V0.256C36.5502 0.291999 37.2522 0.309999 38.1282 0.309999C39.0762 0.309999 39.7842 0.291999 40.2522 0.256V0.616C39.8682 0.639999 39.5862 0.687999 39.4062 0.76C39.2382 0.832 39.1242 0.97 39.0642 1.174C39.0042 1.378 38.9742 1.708 38.9742 2.164V11.092C38.9742 11.548 39.0102 11.884 39.0822 12.1C39.1542 12.304 39.2922 12.448 39.4962 12.532C39.7002 12.604 40.0122 12.64 40.4322 12.64H41.8542C42.2742 12.64 42.5862 12.604 42.7902 12.532C42.9942 12.448 43.1322 12.304 43.2042 12.1C43.2762 11.884 43.3122 11.548 43.3122 11.092V2.164C43.3122 1.708 43.2822 1.378 43.2222 1.174C43.1622 0.97 43.0422 0.832 42.8622 0.76C42.6942 0.687999 42.4182 0.639999 42.0342 0.616V0.256C42.5622 0.291999 43.2642 0.309999 44.1402 0.309999C45.1722 0.309999 45.9402 0.291999 46.4442 0.256V0.616ZM59.0773 12.1C58.8133 12.496 58.5433 12.79 58.2673 12.982C57.9913 13.162 57.6193 13.252 57.1513 13.252C56.6713 13.252 56.2693 13.114 55.9453 12.838C55.6333 12.562 55.3933 12.052 55.2253 11.308L54.7213 9.076C54.5773 8.464 54.4333 7.996 54.2893 7.672C54.1573 7.336 53.9293 7.072 53.6053 6.88C53.2933 6.676 52.8493 6.574 52.2733 6.574H51.0853V11.092C51.0853 11.548 51.1213 11.878 51.1933 12.082C51.2653 12.286 51.3973 12.424 51.5893 12.496C51.7933 12.568 52.1113 12.616 52.5433 12.64V13C51.9913 12.964 51.2293 12.946 50.2573 12.946C49.2253 12.946 48.4573 12.964 47.9533 13V12.64C48.3853 12.616 48.6973 12.568 48.8893 12.496C49.0933 12.424 49.2313 12.286 49.3033 12.082C49.3753 11.878 49.4113 11.548 49.4113 11.092V2.164C49.4113 1.708 49.3753 1.378 49.3033 1.174C49.2313 0.97 49.0933 0.832 48.8893 0.76C48.6973 0.687999 48.3853 0.639999 47.9533 0.616V0.256C48.4573 0.291999 49.2253 0.309999 50.2573 0.309999C51.2173 0.309999 51.9793 0.291999 52.5433 0.256V0.616C52.1113 0.639999 51.7933 0.687999 51.5893 0.76C51.3973 0.832 51.2653 0.97 51.1933 1.174C51.1213 1.378 51.0853 1.708 51.0853 2.164V6.232C51.9733 6.22 52.6813 5.872 53.2093 5.188L54.9373 2.992C55.5493 2.236 55.8553 1.66 55.8553 1.264C55.8553 0.844 55.4833 0.627999 54.7393 0.616V0.256C55.4233 0.291999 56.1133 0.309999 56.8093 0.309999C57.4693 0.309999 57.9793 0.291999 58.3393 0.256V0.616C57.5233 0.735999 56.8153 1.174 56.2153 1.93L52.8313 6.25C53.7913 6.286 54.5713 6.496 55.1713 6.88C55.7833 7.252 56.1973 7.906 56.4133 8.842L56.9353 11.11C57.0673 11.686 57.1873 12.076 57.2953 12.28C57.4153 12.484 57.5893 12.586 57.8173 12.586C58.0213 12.586 58.1893 12.532 58.3213 12.424C58.4653 12.316 58.6273 12.142 58.8073 11.902L59.0773 12.1ZM65.635 0.00399888C66.775 0.00399888 67.771 0.261999 68.623 0.778C69.487 1.294 70.153 2.044 70.621 3.028C71.101 4 71.341 5.164 71.341 6.52C71.341 7.84 71.095 9.01 70.603 10.03C70.123 11.05 69.445 11.842 68.569 12.406C67.705 12.97 66.721 13.252 65.617 13.252C64.477 13.252 63.475 12.994 62.611 12.478C61.759 11.962 61.093 11.218 60.613 10.246C60.145 9.262 59.911 8.092 59.911 6.736C59.911 5.416 60.151 4.246 60.631 3.226C61.123 2.206 61.801 1.414 62.665 0.85C63.541 0.285999 64.531 0.00399888 65.635 0.00399888ZM65.563 0.327999C64.795 0.327999 64.117 0.597999 63.529 1.138C62.953 1.666 62.503 2.41 62.179 3.37C61.867 4.33 61.711 5.428 61.711 6.664C61.711 7.912 61.885 9.01 62.233 9.958C62.593 10.906 63.073 11.638 63.673 12.154C64.273 12.67 64.945 12.928 65.689 12.928C66.457 12.928 67.129 12.664 67.705 12.136C68.293 11.596 68.743 10.846 69.055 9.886C69.379 8.926 69.541 7.828 69.541 6.592C69.541 5.344 69.361 4.246 69.001 3.298C68.653 2.35 68.179 1.618 67.579 1.102C66.979 0.585999 66.307 0.327999 65.563 0.327999ZM83.5753 0.616C83.1433 0.639999 82.8253 0.687999 82.6213 0.76C82.4293 0.832 82.2973 0.97 82.2253 1.174C82.1533 1.378 82.1173 1.708 82.1173 2.164V11.092C82.1173 11.548 82.1533 11.878 82.2253 12.082C82.2973 12.286 82.4293 12.424 82.6213 12.496C82.8253 12.568 83.1433 12.616 83.5753 12.64V13C83.0713 12.964 82.3033 12.946 81.2713 12.946C80.1433 12.946 79.2613 12.964 78.6253 13V12.64C79.1653 12.616 79.5553 12.568 79.7953 12.496C80.0353 12.424 80.2033 12.286 80.2993 12.082C80.3953 11.878 80.4433 11.548 80.4433 11.092V2.164C80.4433 1.708 80.4073 1.378 80.3353 1.174C80.2633 0.958 80.1253 0.814 79.9213 0.741999C79.7173 0.657999 79.4053 0.616 78.9853 0.616H78.7513C78.3193 0.616 78.0073 0.657999 77.8153 0.741999C77.6353 0.814 77.5093 0.952 77.4373 1.156C77.3773 1.348 77.3293 1.684 77.2933 2.164C77.2573 2.536 77.2153 3.118 77.1673 3.91C77.0473 5.806 76.8913 7.384 76.6993 8.644C76.5193 9.892 76.1773 10.972 75.6733 11.884C75.1693 12.796 74.4553 13.252 73.5313 13.252C73.0753 13.252 72.6853 13.156 72.3613 12.964C72.0493 12.76 71.8933 12.448 71.8933 12.028C71.8933 11.716 71.9893 11.47 72.1813 11.29C72.3853 11.098 72.6433 11.002 72.9553 11.002C73.2193 11.002 73.4353 11.074 73.6033 11.218C73.7833 11.362 73.8733 11.554 73.8733 11.794C73.8733 12.046 73.8133 12.256 73.6933 12.424C73.5733 12.58 73.3753 12.736 73.0993 12.892C73.2073 12.904 73.3513 12.91 73.5313 12.91C74.3833 12.91 75.0373 12.4 75.4933 11.38C75.9493 10.36 76.2613 9.154 76.4293 7.762C76.5973 6.358 76.7473 4.492 76.8793 2.164C76.8913 2.068 76.8973 1.936 76.8973 1.768C76.8973 1.456 76.8553 1.222 76.7713 1.066C76.6873 0.909999 76.5433 0.801999 76.3393 0.741999C76.1353 0.681999 75.8293 0.639999 75.4213 0.616V0.256C75.9253 0.291999 76.5433 0.309999 77.2753 0.309999C77.4553 0.309999 77.7253 0.297999 78.0853 0.274L78.8593 0.256L80.0653 0.274C80.6173 0.297999 81.0733 0.309999 81.4333 0.309999C82.3573 0.309999 83.0713 0.291999 83.5753 0.256V0.616ZM94.5458 11.488C94.8338 12.232 95.2478 12.616 95.7878 12.64V13C95.3078 12.964 94.6658 12.946 93.8618 12.946C92.8298 12.946 92.0618 12.964 91.5578 13V12.64C92.0138 12.616 92.3378 12.562 92.5298 12.478C92.7338 12.382 92.8358 12.214 92.8358 11.974C92.8358 11.77 92.7638 11.488 92.6198 11.128L91.5218 8.176H87.1658L86.4278 10.084C86.1878 10.732 86.0678 11.224 86.0678 11.56C86.0678 11.932 86.1938 12.202 86.4458 12.37C86.7098 12.538 87.1058 12.628 87.6338 12.64V13C86.9498 12.964 86.2598 12.946 85.5638 12.946C85.0238 12.946 84.5738 12.964 84.2138 13V12.64C84.8138 12.496 85.2878 11.974 85.6358 11.074L89.8658 0.165999H90.1538L94.5458 11.488ZM91.3778 7.816L89.3618 2.434L87.3098 7.816H91.3778ZM105.704 5.422C107.108 5.422 108.182 5.77 108.926 6.466C109.67 7.15 110.042 8.062 110.042 9.202C110.042 10.282 109.676 11.188 108.944 11.92C108.224 12.64 107.012 13 105.308 13L104.534 12.982C104.03 12.958 103.532 12.946 103.04 12.946C102.128 12.946 101.42 12.964 100.916 13V12.64C101.348 12.616 101.66 12.568 101.852 12.496C102.056 12.424 102.194 12.286 102.266 12.082C102.338 11.878 102.374 11.548 102.374 11.092V2.164C102.374 1.708 102.338 1.378 102.266 1.174C102.194 0.97 102.056 0.832 101.852 0.76C101.66 0.687999 101.348 0.639999 100.916 0.616V0.256C102.092 0.291999 103.832 0.309999 106.136 0.309999C107.648 0.309999 108.722 0.291999 109.358 0.256C109.274 1.048 109.232 1.756 109.232 2.38C109.232 2.848 109.25 3.22 109.286 3.496H108.872C108.788 2.716 108.68 2.14 108.548 1.768C108.416 1.384 108.194 1.108 107.882 0.94C107.57 0.759999 107.096 0.669999 106.46 0.669999H105.506C105.074 0.669999 104.756 0.705999 104.552 0.778C104.36 0.838 104.228 0.97 104.156 1.174C104.084 1.378 104.048 1.708 104.048 2.164V5.458L105.704 5.422ZM105.254 12.64C106.394 12.64 107.174 12.34 107.594 11.74C108.026 11.14 108.242 10.3 108.242 9.22C108.242 8.008 108.002 7.132 107.522 6.592C107.042 6.04 106.232 5.764 105.092 5.764C104.672 5.764 104.324 5.77 104.048 5.782V11.092C104.048 11.536 104.078 11.866 104.138 12.082C104.198 12.298 104.306 12.448 104.462 12.532C104.63 12.604 104.894 12.64 105.254 12.64ZM120.966 11.488C121.254 12.232 121.668 12.616 122.208 12.64V13C121.728 12.964 121.086 12.946 120.282 12.946C119.25 12.946 118.482 12.964 117.978 13V12.64C118.434 12.616 118.758 12.562 118.95 12.478C119.154 12.382 119.256 12.214 119.256 11.974C119.256 11.77 119.184 11.488 119.04 11.128L117.942 8.176H113.586L112.848 10.084C112.608 10.732 112.488 11.224 112.488 11.56C112.488 11.932 112.614 12.202 112.866 12.37C113.13 12.538 113.526 12.628 114.054 12.64V13C113.37 12.964 112.68 12.946 111.984 12.946C111.444 12.946 110.994 12.964 110.634 13V12.64C111.234 12.496 111.708 11.974 112.056 11.074L116.286 0.165999H116.574L120.966 11.488ZM117.798 7.816L115.782 2.434L113.73 7.816H117.798ZM125.986 7.852V11.092C125.986 11.548 126.034 11.878 126.13 12.082C126.226 12.286 126.394 12.424 126.634 12.496C126.874 12.568 127.264 12.616 127.804 12.64V13C127.18 12.964 126.298 12.946 125.158 12.946C124.126 12.946 123.358 12.964 122.854 13V12.64C123.286 12.616 123.598 12.568 123.79 12.496C123.994 12.424 124.132 12.286 124.204 12.082C124.276 11.878 124.312 11.548 124.312 11.092V2.164C124.312 1.708 124.276 1.378 124.204 1.174C124.132 0.97 123.994 0.832 123.79 0.76C123.598 0.687999 123.286 0.639999 122.854 0.616V0.256C123.358 0.291999 124.09 0.309999 125.05 0.309999L126.994 0.291999C127.222 0.28 127.48 0.274 127.768 0.274C129.172 0.274 130.246 0.597999 130.99 1.246C131.734 1.882 132.106 2.74 132.106 3.82C132.106 4.48 131.956 5.116 131.656 5.728C131.368 6.328 130.87 6.832 130.162 7.24C129.466 7.648 128.536 7.852 127.372 7.852H125.986ZM127.318 0.616C126.946 0.616 126.664 0.657999 126.472 0.741999C126.292 0.825999 126.166 0.976 126.094 1.192C126.022 1.408 125.986 1.732 125.986 2.164V7.492H127.192C128.368 7.492 129.178 7.18 129.622 6.556C130.078 5.92 130.306 5.074 130.306 4.018C130.306 2.854 130.072 1.996 129.604 1.444C129.148 0.892 128.386 0.616 127.318 0.616ZM142.095 11.488C142.383 12.232 142.797 12.616 143.337 12.64V13C142.857 12.964 142.215 12.946 141.411 12.946C140.379 12.946 139.611 12.964 139.107 13V12.64C139.563 12.616 139.887 12.562 140.079 12.478C140.283 12.382 140.385 12.214 140.385 11.974C140.385 11.77 140.313 11.488 140.169 11.128L139.071 8.176H134.715L133.977 10.084C133.737 10.732 133.617 11.224 133.617 11.56C133.617 11.932 133.743 12.202 133.995 12.37C134.259 12.538 134.655 12.628 135.183 12.64V13C134.499 12.964 133.809 12.946 133.113 12.946C132.573 12.946 132.123 12.964 131.763 13V12.64C132.363 12.496 132.837 11.974 133.185 11.074L137.415 0.165999H137.703L142.095 11.488ZM138.927 7.816L136.911 2.434L134.859 7.816H138.927ZM148.771 5.422C150.175 5.422 151.249 5.77 151.993 6.466C152.737 7.15 153.109 8.062 153.109 9.202C153.109 10.282 152.743 11.188 152.011 11.92C151.291 12.64 150.079 13 148.375 13L147.601 12.982C147.097 12.958 146.599 12.946 146.107 12.946C145.195 12.946 144.487 12.964 143.983 13V12.64C144.415 12.616 144.727 12.568 144.919 12.496C145.123 12.424 145.261 12.286 145.333 12.082C145.405 11.878 145.441 11.548 145.441 11.092V2.164C145.441 1.708 145.405 1.378 145.333 1.174C145.261 0.97 145.123 0.832 144.919 0.76C144.727 0.687999 144.415 0.639999 143.983 0.616V0.256C145.159 0.291999 146.899 0.309999 149.203 0.309999C150.715 0.309999 151.789 0.291999 152.425 0.256C152.341 1.048 152.299 1.756 152.299 2.38C152.299 2.848 152.317 3.22 152.353 3.496H151.939C151.855 2.716 151.747 2.14 151.615 1.768C151.483 1.384 151.261 1.108 150.949 0.94C150.637 0.759999 150.163 0.669999 149.527 0.669999H148.573C148.141 0.669999 147.823 0.705999 147.619 0.778C147.427 0.838 147.295 0.97 147.223 1.174C147.151 1.378 147.115 1.708 147.115 2.164V5.458L148.771 5.422ZM148.321 12.64C149.461 12.64 150.241 12.34 150.661 11.74C151.093 11.14 151.309 10.3 151.309 9.22C151.309 8.008 151.069 7.132 150.589 6.592C150.109 6.04 149.299 5.764 148.159 5.764C147.739 5.764 147.391 5.77 147.115 5.782V11.092C147.115 11.536 147.145 11.866 147.205 12.082C147.265 12.298 147.373 12.448 147.529 12.532C147.697 12.604 147.961 12.64 148.321 12.64ZM164.032 11.488C164.32 12.232 164.734 12.616 165.274 12.64V13C164.794 12.964 164.152 12.946 163.348 12.946C162.316 12.946 161.548 12.964 161.044 13V12.64C161.5 12.616 161.824 12.562 162.016 12.478C162.22 12.382 162.322 12.214 162.322 11.974C162.322 11.77 162.25 11.488 162.106 11.128L161.008 8.176H156.652L155.914 10.084C155.674 10.732 155.554 11.224 155.554 11.56C155.554 11.932 155.68 12.202 155.932 12.37C156.196 12.538 156.592 12.628 157.12 12.64V13C156.436 12.964 155.746 12.946 155.05 12.946C154.51 12.946 154.06 12.964 153.7 13V12.64C154.3 12.496 154.774 11.974 155.122 11.074L159.352 0.165999H159.64L164.032 11.488ZM160.864 7.816L158.848 2.434L156.796 7.816H160.864ZM178.034 0.616C177.602 0.639999 177.284 0.687999 177.08 0.76C176.888 0.832 176.756 0.97 176.684 1.174C176.612 1.378 176.576 1.708 176.576 2.164V11.092C176.576 11.548 176.612 11.878 176.684 12.082C176.756 12.286 176.888 12.424 177.08 12.496C177.284 12.568 177.602 12.616 178.034 12.64V13C177.53 12.964 176.762 12.946 175.73 12.946C174.758 12.946 173.996 12.964 173.444 13V12.64C173.876 12.616 174.188 12.568 174.38 12.496C174.584 12.424 174.722 12.286 174.794 12.082C174.866 11.878 174.902 11.548 174.902 11.092V6.772H169.052V11.092C169.052 11.548 169.088 11.878 169.16 12.082C169.232 12.286 169.364 12.424 169.556 12.496C169.76 12.568 170.078 12.616 170.51 12.64V13C169.958 12.964 169.196 12.946 168.224 12.946C167.192 12.946 166.424 12.964 165.92 13V12.64C166.352 12.616 166.664 12.568 166.856 12.496C167.06 12.424 167.198 12.286 167.27 12.082C167.342 11.878 167.378 11.548 167.378 11.092V2.164C167.378 1.708 167.342 1.378 167.27 1.174C167.198 0.97 167.06 0.832 166.856 0.76C166.664 0.687999 166.352 0.639999 165.92 0.616V0.256C166.424 0.291999 167.192 0.309999 168.224 0.309999C169.184 0.309999 169.946 0.291999 170.51 0.256V0.616C170.078 0.639999 169.76 0.687999 169.556 0.76C169.364 0.832 169.232 0.97 169.16 1.174C169.088 1.378 169.052 1.708 169.052 2.164V6.412H174.902V2.164C174.902 1.708 174.866 1.378 174.794 1.174C174.722 0.97 174.584 0.832 174.38 0.76C174.188 0.687999 173.876 0.639999 173.444 0.616V0.256C173.996 0.291999 174.758 0.309999 175.73 0.309999C176.762 0.309999 177.53 0.291999 178.034 0.256V0.616ZM185.324 0.00399888C186.464 0.00399888 187.46 0.261999 188.312 0.778C189.176 1.294 189.842 2.044 190.31 3.028C190.79 4 191.03 5.164 191.03 6.52C191.03 7.84 190.784 9.01 190.292 10.03C189.812 11.05 189.134 11.842 188.258 12.406C187.394 12.97 186.41 13.252 185.306 13.252C184.166 13.252 183.164 12.994 182.3 12.478C181.448 11.962 180.782 11.218 180.302 10.246C179.834 9.262 179.6 8.092 179.6 6.736C179.6 5.416 179.84 4.246 180.32 3.226C180.812 2.206 181.49 1.414 182.354 0.85C183.23 0.285999 184.22 0.00399888 185.324 0.00399888ZM185.252 0.327999C184.484 0.327999 183.806 0.597999 183.218 1.138C182.642 1.666 182.192 2.41 181.868 3.37C181.556 4.33 181.4 5.428 181.4 6.664C181.4 7.912 181.574 9.01 181.922 9.958C182.282 10.906 182.762 11.638 183.362 12.154C183.962 12.67 184.634 12.928 185.378 12.928C186.146 12.928 186.818 12.664 187.394 12.136C187.982 11.596 188.432 10.846 188.744 9.886C189.068 8.926 189.23 7.828 189.23 6.592C189.23 5.344 189.05 4.246 188.69 3.298C188.342 2.35 187.868 1.618 187.268 1.102C186.668 0.585999 185.996 0.327999 185.252 0.327999ZM198.58 6.268C199.9 6.448 200.842 6.832 201.406 7.42C201.97 7.996 202.252 8.692 202.252 9.508C202.252 10.192 202.078 10.798 201.73 11.326C201.382 11.854 200.884 12.268 200.236 12.568C199.588 12.856 198.82 13 197.932 13C197.608 13 197.332 12.994 197.104 12.982C196.336 12.958 195.58 12.946 194.836 12.946C193.852 12.946 193.108 12.964 192.604 13V12.64C193.036 12.616 193.348 12.568 193.54 12.496C193.744 12.424 193.882 12.286 193.954 12.082C194.026 11.878 194.062 11.548 194.062 11.092V2.164C194.062 1.708 194.026 1.378 193.954 1.174C193.882 0.97 193.744 0.832 193.54 0.76C193.348 0.687999 193.036 0.639999 192.604 0.616V0.256C193.108 0.291999 193.84 0.309999 194.8 0.309999L196.744 0.291999C196.972 0.28 197.23 0.274 197.518 0.274C198.742 0.274 199.678 0.532 200.326 1.048C200.986 1.564 201.316 2.248 201.316 3.1C201.316 3.796 201.094 4.42 200.65 4.972C200.218 5.524 199.528 5.944 198.58 6.232V6.268ZM197.068 0.616C196.696 0.616 196.414 0.657999 196.222 0.741999C196.042 0.825999 195.916 0.976 195.844 1.192C195.772 1.408 195.736 1.732 195.736 2.164V6.232H196.942C197.926 6.232 198.61 5.968 198.994 5.44C199.39 4.9 199.588 4.186 199.588 3.298C199.588 2.398 199.39 1.726 198.994 1.282C198.598 0.838 197.956 0.616 197.068 0.616ZM197.086 12.586C199.33 12.586 200.452 11.536 200.452 9.436C200.452 8.488 200.194 7.768 199.678 7.276C199.174 6.784 198.364 6.538 197.248 6.538H195.736V11.092C195.736 11.524 195.772 11.842 195.844 12.046C195.916 12.25 196.042 12.394 196.222 12.478C196.414 12.55 196.702 12.586 197.086 12.586Z" fill="#E4B0A2"/>
</svg>
