<svg width="70" height="14" viewBox="0 0 70 14" fill="none" xmlns="http://www.w3.org/2000/svg">
<path d="M9.738 0.256C9.654 1.108 9.612 1.876 9.612 2.56C9.612 3.16 9.63 3.652 9.666 4.036H9.252C9.156 3.112 9.036 2.428 8.892 1.984C8.748 1.528 8.496 1.198 8.136 0.993999C7.776 0.777999 7.224 0.669999 6.48 0.669999H5.346C4.914 0.669999 4.596 0.705999 4.392 0.778C4.2 0.838 4.068 0.97 3.996 1.174C3.924 1.378 3.888 1.708 3.888 2.164V6.592H5.202C5.622 6.592 5.946 6.496 6.174 6.304C6.402 6.1 6.552 5.866 6.624 5.602C6.708 5.326 6.774 4.984 6.822 4.576L6.876 4.216H7.29C7.254 4.72 7.236 5.284 7.236 5.908V6.772C7.236 7.384 7.272 8.236 7.344 9.328H6.93C6.918 9.244 6.882 8.956 6.822 8.464C6.762 7.96 6.594 7.582 6.318 7.33C6.054 7.078 5.682 6.952 5.202 6.952H3.888V11.092C3.888 11.548 3.936 11.878 4.032 12.082C4.128 12.286 4.296 12.424 4.536 12.496C4.776 12.568 5.166 12.616 5.706 12.64V13C5.082 12.964 4.2 12.946 3.06 12.946C2.028 12.946 1.26 12.964 0.756 13V12.64C1.188 12.616 1.5 12.568 1.692 12.496C1.896 12.424 2.034 12.286 2.106 12.082C2.178 11.878 2.214 11.548 2.214 11.092V2.164C2.214 1.708 2.178 1.378 2.106 1.174C2.034 0.97 1.896 0.832 1.692 0.76C1.5 0.687999 1.188 0.639999 0.756 0.616V0.256C1.932 0.291999 3.672 0.309999 5.976 0.309999C7.74 0.309999 8.994 0.291999 9.738 0.256ZM17.034 0.616C16.602 0.639999 16.284 0.687999 16.08 0.76C15.888 0.832 15.756 0.97 15.684 1.174C15.612 1.378 15.576 1.708 15.576 2.164V11.092C15.576 11.548 15.612 11.878 15.684 12.082C15.756 12.286 15.888 12.424 16.08 12.496C16.284 12.556 16.602 12.586 17.034 12.586H18.348C19.092 12.586 19.656 12.484 20.04 12.28C20.436 12.064 20.724 11.722 20.904 11.254C21.084 10.786 21.216 10.108 21.3 9.22H21.714C21.678 9.592 21.66 10.084 21.66 10.696C21.66 11.38 21.702 12.148 21.786 13C20.97 12.964 19.596 12.946 17.664 12.946C15.36 12.946 13.62 12.964 12.444 13V12.64C12.876 12.616 13.188 12.568 13.38 12.496C13.584 12.424 13.722 12.286 13.794 12.082C13.866 11.878 13.902 11.548 13.902 11.092V2.164C13.902 1.708 13.866 1.378 13.794 1.174C13.722 0.97 13.584 0.832 13.38 0.76C13.188 0.687999 12.876 0.639999 12.444 0.616V0.256C12.948 0.291999 13.716 0.309999 14.748 0.309999C15.708 0.309999 16.47 0.291999 17.034 0.256V0.616ZM33.9161 11.488C34.2041 12.232 34.6181 12.616 35.1581 12.64V13C34.6781 12.964 34.0361 12.946 33.2321 12.946C32.2001 12.946 31.4321 12.964 30.9281 13V12.64C31.3841 12.616 31.7081 12.562 31.9001 12.478C32.1041 12.382 32.2061 12.214 32.2061 11.974C32.2061 11.77 32.1341 11.488 31.9901 11.128L30.8921 8.176H26.5361L25.7981 10.084C25.5581 10.732 25.4381 11.224 25.4381 11.56C25.4381 11.932 25.5641 12.202 25.8161 12.37C26.0801 12.538 26.4761 12.628 27.0041 12.64V13C26.3201 12.964 25.6301 12.946 24.9341 12.946C24.3941 12.946 23.9441 12.964 23.5841 13V12.64C24.1841 12.496 24.6581 11.974 25.0061 11.074L29.2361 0.165999H29.5241L33.9161 11.488ZM30.7481 7.816L28.7321 2.434L26.6801 7.816H30.7481ZM48.0164 12.1C47.7404 12.508 47.4644 12.802 47.1884 12.982C46.9124 13.162 46.5464 13.252 46.0904 13.252C45.5984 13.252 45.1904 13.108 44.8664 12.82C44.5544 12.532 44.3204 12.028 44.1644 11.308L43.7684 9.508C43.6244 8.884 43.4864 8.404 43.3544 8.068C43.2344 7.732 43.0484 7.462 42.7964 7.258C42.5444 7.054 42.1904 6.952 41.7344 6.952H40.0244V11.092C40.0244 11.548 40.0604 11.878 40.1324 12.082C40.2044 12.286 40.3364 12.424 40.5284 12.496C40.7324 12.568 41.0504 12.616 41.4824 12.64V13C40.9304 12.964 40.1684 12.946 39.1964 12.946C38.1644 12.946 37.3964 12.964 36.8924 13V12.64C37.3244 12.616 37.6364 12.568 37.8284 12.496C38.0324 12.424 38.1704 12.286 38.2424 12.082C38.3144 11.878 38.3504 11.548 38.3504 11.092V2.164C38.3504 1.708 38.3144 1.378 38.2424 1.174C38.1704 0.97 38.0324 0.832 37.8284 0.76C37.6364 0.687999 37.3244 0.639999 36.8924 0.616V0.256C37.3964 0.291999 38.1284 0.309999 39.0884 0.309999L41.0324 0.291999C41.2604 0.28 41.5184 0.274 41.8064 0.274C43.1984 0.274 44.2664 0.567999 45.0104 1.156C45.7664 1.732 46.1444 2.482 46.1444 3.406C46.1444 3.874 46.0304 4.348 45.8024 4.828C45.5864 5.296 45.2144 5.722 44.6864 6.106C44.1704 6.478 43.4924 6.73 42.6524 6.862L42.8684 6.898C43.6604 7.03 44.2364 7.27 44.5964 7.618C44.9564 7.966 45.2204 8.518 45.3884 9.274L45.8384 11.11C45.9584 11.662 46.0844 12.046 46.2164 12.262C46.3484 12.478 46.5284 12.586 46.7564 12.586C46.9604 12.586 47.1284 12.532 47.2604 12.424C47.4044 12.316 47.5664 12.142 47.7464 11.902L48.0164 12.1ZM41.3564 0.616C40.9844 0.616 40.7024 0.657999 40.5104 0.741999C40.3304 0.825999 40.2044 0.976 40.1324 1.192C40.0604 1.408 40.0244 1.732 40.0244 2.164V6.592H41.2304C42.4184 6.592 43.2344 6.328 43.6784 5.8C44.1224 5.272 44.3444 4.54 44.3444 3.604C44.3444 2.62 44.1104 1.876 43.6424 1.372C43.1744 0.868 42.4124 0.616 41.3564 0.616ZM54.5943 0.616C54.1623 0.639999 53.8443 0.687999 53.6403 0.76C53.4483 0.832 53.3163 0.97 53.2443 1.174C53.1723 1.378 53.1363 1.708 53.1363 2.164V11.092C53.1363 11.548 53.1723 11.878 53.2443 12.082C53.3163 12.286 53.4483 12.424 53.6403 12.496C53.8443 12.568 54.1623 12.616 54.5943 12.64V13C54.0423 12.964 53.2803 12.946 52.3083 12.946C51.2763 12.946 50.5083 12.964 50.0043 13V12.64C50.4363 12.616 50.7483 12.568 50.9403 12.496C51.1443 12.424 51.2823 12.286 51.3543 12.082C51.4263 11.878 51.4623 11.548 51.4623 11.092V2.164C51.4623 1.708 51.4263 1.378 51.3543 1.174C51.2823 0.97 51.1443 0.832 50.9403 0.76C50.7483 0.687999 50.4363 0.639999 50.0043 0.616V0.256C50.5083 0.291999 51.2763 0.309999 52.3083 0.309999C53.2683 0.309999 54.0303 0.291999 54.5943 0.256V0.616ZM63.3253 0.00399888C64.4653 0.00399888 65.4613 0.261999 66.3133 0.778C67.1773 1.294 67.8433 2.044 68.3113 3.028C68.7913 4 69.0313 5.164 69.0313 6.52C69.0313 7.84 68.7853 9.01 68.2933 10.03C67.8133 11.05 67.1353 11.842 66.2593 12.406C65.3953 12.97 64.4113 13.252 63.3073 13.252C62.1673 13.252 61.1653 12.994 60.3013 12.478C59.4493 11.962 58.7833 11.218 58.3033 10.246C57.8353 9.262 57.6013 8.092 57.6013 6.736C57.6013 5.416 57.8413 4.246 58.3213 3.226C58.8133 2.206 59.4913 1.414 60.3553 0.85C61.2313 0.285999 62.2213 0.00399888 63.3253 0.00399888ZM63.2533 0.327999C62.4853 0.327999 61.8073 0.597999 61.2193 1.138C60.6433 1.666 60.1933 2.41 59.8693 3.37C59.5573 4.33 59.4013 5.428 59.4013 6.664C59.4013 7.912 59.5753 9.01 59.9233 9.958C60.2833 10.906 60.7633 11.638 61.3633 12.154C61.9633 12.67 62.6353 12.928 63.3793 12.928C64.1473 12.928 64.8193 12.664 65.3953 12.136C65.9833 11.596 66.4333 10.846 66.7453 9.886C67.0693 8.926 67.2313 7.828 67.2313 6.592C67.2313 5.344 67.0513 4.246 66.6913 3.298C66.3433 2.35 65.8693 1.618 65.2693 1.102C64.6693 0.585999 63.9973 0.327999 63.2533 0.327999Z" fill="#E4B0A2"/>
</svg>
