<svg width="85" height="14" viewBox="0 0 85 14" fill="none" xmlns="http://www.w3.org/2000/svg">
<path d="M9.738 0.256C9.654 1.108 9.612 1.876 9.612 2.56C9.612 3.16 9.63 3.652 9.666 4.036H9.252C9.156 3.112 9.036 2.428 8.892 1.984C8.748 1.528 8.496 1.198 8.136 0.993999C7.776 0.777999 7.224 0.669999 6.48 0.669999H5.346C4.914 0.669999 4.596 0.705999 4.392 0.778C4.2 0.838 4.068 0.97 3.996 1.174C3.924 1.378 3.888 1.708 3.888 2.164V6.592H5.202C5.622 6.592 5.946 6.496 6.174 6.304C6.402 6.1 6.552 5.866 6.624 5.602C6.708 5.326 6.774 4.984 6.822 4.576L6.876 4.216H7.29C7.254 4.72 7.236 5.284 7.236 5.908V6.772C7.236 7.384 7.272 8.236 7.344 9.328H6.93C6.918 9.244 6.882 8.956 6.822 8.464C6.762 7.96 6.594 7.582 6.318 7.33C6.054 7.078 5.682 6.952 5.202 6.952H3.888V11.092C3.888 11.548 3.936 11.878 4.032 12.082C4.128 12.286 4.296 12.424 4.536 12.496C4.776 12.568 5.166 12.616 5.706 12.64V13C5.082 12.964 4.2 12.946 3.06 12.946C2.028 12.946 1.26 12.964 0.756 13V12.64C1.188 12.616 1.5 12.568 1.692 12.496C1.896 12.424 2.034 12.286 2.106 12.082C2.178 11.878 2.214 11.548 2.214 11.092V2.164C2.214 1.708 2.178 1.378 2.106 1.174C2.034 0.97 1.896 0.832 1.692 0.76C1.5 0.687999 1.188 0.639999 0.756 0.616V0.256C1.932 0.291999 3.672 0.309999 5.976 0.309999C7.74 0.309999 8.994 0.291999 9.738 0.256ZM22.128 12.1C21.852 12.508 21.576 12.802 21.3 12.982C21.024 13.162 20.658 13.252 20.202 13.252C19.71 13.252 19.302 13.108 18.978 12.82C18.666 12.532 18.432 12.028 18.276 11.308L17.88 9.508C17.736 8.884 17.598 8.404 17.466 8.068C17.346 7.732 17.16 7.462 16.908 7.258C16.656 7.054 16.302 6.952 15.846 6.952H14.136V11.092C14.136 11.548 14.172 11.878 14.244 12.082C14.316 12.286 14.448 12.424 14.64 12.496C14.844 12.568 15.162 12.616 15.594 12.64V13C15.042 12.964 14.28 12.946 13.308 12.946C12.276 12.946 11.508 12.964 11.004 13V12.64C11.436 12.616 11.748 12.568 11.94 12.496C12.144 12.424 12.282 12.286 12.354 12.082C12.426 11.878 12.462 11.548 12.462 11.092V2.164C12.462 1.708 12.426 1.378 12.354 1.174C12.282 0.97 12.144 0.832 11.94 0.76C11.748 0.687999 11.436 0.639999 11.004 0.616V0.256C11.508 0.291999 12.24 0.309999 13.2 0.309999L15.144 0.291999C15.372 0.28 15.63 0.274 15.918 0.274C17.31 0.274 18.378 0.567999 19.122 1.156C19.878 1.732 20.256 2.482 20.256 3.406C20.256 3.874 20.142 4.348 19.914 4.828C19.698 5.296 19.326 5.722 18.798 6.106C18.282 6.478 17.604 6.73 16.764 6.862L16.98 6.898C17.772 7.03 18.348 7.27 18.708 7.618C19.068 7.966 19.332 8.518 19.5 9.274L19.95 11.11C20.07 11.662 20.196 12.046 20.328 12.262C20.46 12.478 20.64 12.586 20.868 12.586C21.072 12.586 21.24 12.532 21.372 12.424C21.516 12.316 21.678 12.142 21.858 11.902L22.128 12.1ZM15.468 0.616C15.096 0.616 14.814 0.657999 14.622 0.741999C14.442 0.825999 14.316 0.976 14.244 1.192C14.172 1.408 14.136 1.732 14.136 2.164V6.592H15.342C16.53 6.592 17.346 6.328 17.79 5.8C18.234 5.272 18.456 4.54 18.456 3.604C18.456 2.62 18.222 1.876 17.754 1.372C17.286 0.868 16.524 0.616 15.468 0.616ZM31.8919 10.696C31.8919 11.38 31.9339 12.148 32.0179 13C31.2019 12.964 29.8279 12.946 27.8959 12.946C25.5919 12.946 23.8519 12.964 22.6759 13V12.64C23.1079 12.616 23.4199 12.568 23.6119 12.496C23.8159 12.424 23.9539 12.286 24.0259 12.082C24.0979 11.878 24.1339 11.548 24.1339 11.092V2.164C24.1339 1.708 24.0979 1.378 24.0259 1.174C23.9539 0.97 23.8159 0.832 23.6119 0.76C23.4199 0.687999 23.1079 0.639999 22.6759 0.616V0.256C23.8519 0.291999 25.5919 0.309999 27.8959 0.309999C29.6599 0.309999 30.9139 0.291999 31.6579 0.256C31.5739 1.048 31.5319 1.756 31.5319 2.38C31.5319 2.848 31.5499 3.22 31.5859 3.496H31.1719C31.0879 2.716 30.9799 2.14 30.8479 1.768C30.7159 1.384 30.4939 1.108 30.1819 0.94C29.8699 0.759999 29.3959 0.669999 28.7599 0.669999H27.2659C26.8339 0.669999 26.5159 0.705999 26.3119 0.778C26.1199 0.838 25.9879 0.97 25.9159 1.174C25.8439 1.378 25.8079 1.708 25.8079 2.164V6.412H26.9959C27.4159 6.412 27.7399 6.316 27.9679 6.124C28.1959 5.92 28.3459 5.686 28.4179 5.422C28.5019 5.146 28.5679 4.804 28.6159 4.396L28.6699 4.036H29.0839C29.0479 4.54 29.0299 5.104 29.0299 5.728V6.592C29.0299 7.204 29.0659 8.056 29.1379 9.148H28.7239C28.7119 9.064 28.6759 8.776 28.6159 8.284C28.5559 7.78 28.3879 7.402 28.1119 7.15C27.8479 6.898 27.4759 6.772 26.9959 6.772H25.8079V11.092C25.8079 11.548 25.8439 11.878 25.9159 12.082C25.9879 12.286 26.1199 12.424 26.3119 12.496C26.5159 12.556 26.8339 12.586 27.2659 12.586H28.5799C29.3239 12.586 29.8879 12.49 30.2719 12.298C30.6679 12.094 30.9559 11.776 31.1359 11.344C31.3159 10.9 31.4479 10.252 31.5319 9.4H31.9459C31.9099 9.724 31.8919 10.156 31.8919 10.696ZM42.8607 10.696C42.8607 11.38 42.9027 12.148 42.9867 13C42.1707 12.964 40.7967 12.946 38.8647 12.946C36.5607 12.946 34.8207 12.964 33.6447 13V12.64C34.0767 12.616 34.3887 12.568 34.5807 12.496C34.7847 12.424 34.9227 12.286 34.9947 12.082C35.0667 11.878 35.1027 11.548 35.1027 11.092V2.164C35.1027 1.708 35.0667 1.378 34.9947 1.174C34.9227 0.97 34.7847 0.832 34.5807 0.76C34.3887 0.687999 34.0767 0.639999 33.6447 0.616V0.256C34.8207 0.291999 36.5607 0.309999 38.8647 0.309999C40.6287 0.309999 41.8827 0.291999 42.6267 0.256C42.5427 1.048 42.5007 1.756 42.5007 2.38C42.5007 2.848 42.5187 3.22 42.5547 3.496H42.1407C42.0567 2.716 41.9487 2.14 41.8167 1.768C41.6847 1.384 41.4627 1.108 41.1507 0.94C40.8387 0.759999 40.3647 0.669999 39.7287 0.669999H38.2347C37.8027 0.669999 37.4847 0.705999 37.2807 0.778C37.0887 0.838 36.9567 0.97 36.8847 1.174C36.8127 1.378 36.7767 1.708 36.7767 2.164V6.412H37.9647C38.3847 6.412 38.7087 6.316 38.9367 6.124C39.1647 5.92 39.3147 5.686 39.3867 5.422C39.4707 5.146 39.5367 4.804 39.5847 4.396L39.6387 4.036H40.0527C40.0167 4.54 39.9987 5.104 39.9987 5.728V6.592C39.9987 7.204 40.0347 8.056 40.1067 9.148H39.6927C39.6807 9.064 39.6447 8.776 39.5847 8.284C39.5247 7.78 39.3567 7.402 39.0807 7.15C38.8167 6.898 38.4447 6.772 37.9647 6.772H36.7767V11.092C36.7767 11.548 36.8127 11.878 36.8847 12.082C36.9567 12.286 37.0887 12.424 37.2807 12.496C37.4847 12.556 37.8027 12.586 38.2347 12.586H39.5487C40.2927 12.586 40.8567 12.49 41.2407 12.298C41.6367 12.094 41.9247 11.776 42.1047 11.344C42.2847 10.9 42.4167 10.252 42.5007 9.4H42.9147C42.8787 9.724 42.8607 10.156 42.8607 10.696ZM49.5274 0.256C51.6514 0.256 53.2414 0.79 54.2974 1.858C55.3534 2.914 55.8814 4.456 55.8814 6.484C55.8814 7.792 55.6234 8.938 55.1074 9.922C54.5914 10.906 53.8414 11.668 52.8574 12.208C51.8854 12.736 50.7214 13 49.3654 13L48.3214 12.982C47.6494 12.958 47.1574 12.946 46.8454 12.946C45.8614 12.946 45.1174 12.964 44.6134 13V12.64C45.0454 12.616 45.3574 12.568 45.5494 12.496C45.7534 12.424 45.8914 12.286 45.9634 12.082C46.0354 11.878 46.0714 11.548 46.0714 11.092V2.164C46.0714 1.708 46.0354 1.378 45.9634 1.174C45.8914 0.97 45.7534 0.832 45.5494 0.76C45.3574 0.687999 45.0454 0.639999 44.6134 0.616V0.256C45.0334 0.291999 45.6154 0.309999 46.3594 0.309999L47.8894 0.291999C48.7054 0.268 49.2514 0.256 49.5274 0.256ZM49.0774 0.579999C48.7054 0.579999 48.4234 0.621999 48.2314 0.705999C48.0514 0.789999 47.9254 0.939999 47.8534 1.156C47.7814 1.372 47.7454 1.696 47.7454 2.128V11.128C47.7454 11.56 47.7814 11.884 47.8534 12.1C47.9254 12.316 48.0514 12.466 48.2314 12.55C48.4234 12.634 48.7114 12.676 49.0954 12.676C50.3674 12.676 51.3694 12.448 52.1014 11.992C52.8334 11.524 53.3434 10.846 53.6314 9.958C53.9314 9.07 54.0814 7.936 54.0814 6.556C54.0814 5.176 53.9194 4.054 53.5954 3.19C53.2714 2.314 52.7434 1.66 52.0114 1.228C51.2914 0.795999 50.3134 0.579999 49.0774 0.579999ZM63.5432 0.00399888C64.6832 0.00399888 65.6792 0.261999 66.5312 0.778C67.3952 1.294 68.0612 2.044 68.5292 3.028C69.0092 4 69.2492 5.164 69.2492 6.52C69.2492 7.84 69.0032 9.01 68.5112 10.03C68.0312 11.05 67.3532 11.842 66.4772 12.406C65.6132 12.97 64.6292 13.252 63.5252 13.252C62.3852 13.252 61.3832 12.994 60.5192 12.478C59.6672 11.962 59.0012 11.218 58.5212 10.246C58.0532 9.262 57.8192 8.092 57.8192 6.736C57.8192 5.416 58.0592 4.246 58.5392 3.226C59.0312 2.206 59.7092 1.414 60.5732 0.85C61.4492 0.285999 62.4392 0.00399888 63.5432 0.00399888ZM63.4712 0.327999C62.7032 0.327999 62.0252 0.597999 61.4372 1.138C60.8612 1.666 60.4112 2.41 60.0872 3.37C59.7752 4.33 59.6192 5.428 59.6192 6.664C59.6192 7.912 59.7932 9.01 60.1412 9.958C60.5012 10.906 60.9812 11.638 61.5812 12.154C62.1812 12.67 62.8532 12.928 63.5972 12.928C64.3652 12.928 65.0372 12.664 65.6132 12.136C66.2012 11.596 66.6512 10.846 66.9632 9.886C67.2872 8.926 67.4492 7.828 67.4492 6.592C67.4492 5.344 67.2692 4.246 66.9092 3.298C66.5612 2.35 66.0872 1.618 65.4872 1.102C64.8872 0.585999 64.2152 0.327999 63.4712 0.327999ZM84.9884 0.616C84.5564 0.639999 84.2384 0.687999 84.0344 0.76C83.8424 0.832 83.7104 0.97 83.6384 1.174C83.5664 1.378 83.5304 1.708 83.5304 2.164V11.092C83.5304 11.548 83.5664 11.878 83.6384 12.082C83.7104 12.286 83.8424 12.424 84.0344 12.496C84.2384 12.568 84.5564 12.616 84.9884 12.64V13C84.4364 12.964 83.6744 12.946 82.7024 12.946C81.6704 12.946 80.9024 12.964 80.3984 13V12.64C80.8304 12.616 81.1424 12.568 81.3344 12.496C81.5384 12.424 81.6764 12.286 81.7484 12.082C81.8204 11.878 81.8564 11.548 81.8564 11.092V1.444L77.5184 13.09H77.2304L72.6944 1.408V10.912C72.6944 11.38 72.7304 11.728 72.8024 11.956C72.8864 12.184 73.0424 12.352 73.2704 12.46C73.4984 12.556 73.8524 12.616 74.3324 12.64V13C73.9004 12.964 73.2884 12.946 72.4964 12.946C71.7764 12.946 71.2184 12.964 70.8224 13V12.64C71.2424 12.616 71.5544 12.556 71.7584 12.46C71.9624 12.352 72.1004 12.184 72.1724 11.956C72.2444 11.716 72.2804 11.368 72.2804 10.912V2.164C72.2804 1.708 72.2444 1.378 72.1724 1.174C72.1004 0.97 71.9624 0.832 71.7584 0.76C71.5664 0.687999 71.2544 0.639999 70.8224 0.616V0.256C71.2184 0.291999 71.7764 0.309999 72.4964 0.309999C73.1204 0.309999 73.6304 0.291999 74.0264 0.256L77.9864 10.678L81.8564 0.309999H82.7024C83.6744 0.309999 84.4364 0.291999 84.9884 0.256V0.616Z" fill="#E4B0A2"/>
</svg>
