<svg width="89" height="14" viewBox="0 0 89 14" fill="none" xmlns="http://www.w3.org/2000/svg">
<path d="M13.1093 0.616C12.6773 0.639999 12.3593 0.687999 12.1553 0.76C11.9633 0.832 11.8313 0.97 11.7593 1.174C11.6873 1.378 11.6513 1.708 11.6513 2.164V11.092C11.6513 11.548 11.6873 11.878 11.7593 12.082C11.8313 12.286 11.9633 12.424 12.1553 12.496C12.3593 12.568 12.6773 12.616 13.1093 12.64V13C12.6053 12.964 11.8373 12.946 10.8053 12.946C9.83333 12.946 9.07133 12.964 8.51933 13V12.64C8.95133 12.616 9.26333 12.568 9.45533 12.496C9.65933 12.424 9.79733 12.286 9.86933 12.082C9.94133 11.878 9.97733 11.548 9.97733 11.092V6.772H4.12733V11.092C4.12733 11.548 4.16333 11.878 4.23533 12.082C4.30733 12.286 4.43933 12.424 4.63133 12.496C4.83533 12.568 5.15333 12.616 5.58533 12.64V13C5.03333 12.964 4.27133 12.946 3.29933 12.946C2.26733 12.946 1.49933 12.964 0.995334 13V12.64C1.42733 12.616 1.73933 12.568 1.93133 12.496C2.13533 12.424 2.27333 12.286 2.34533 12.082C2.41733 11.878 2.45333 11.548 2.45333 11.092V2.164C2.45333 1.708 2.41733 1.378 2.34533 1.174C2.27333 0.97 2.13533 0.832 1.93133 0.76C1.73933 0.687999 1.42733 0.639999 0.995334 0.616V0.256C1.49933 0.291999 2.26733 0.309999 3.29933 0.309999C4.25933 0.309999 5.02133 0.291999 5.58533 0.256V0.616C5.15333 0.639999 4.83533 0.687999 4.63133 0.76C4.43933 0.832 4.30733 0.97 4.23533 1.174C4.16333 1.378 4.12733 1.708 4.12733 2.164V6.412H9.97733V2.164C9.97733 1.708 9.94133 1.378 9.86933 1.174C9.79733 0.97 9.65933 0.832 9.45533 0.76C9.26333 0.687999 8.95133 0.639999 8.51933 0.616V0.256C9.07133 0.291999 9.83333 0.309999 10.8053 0.309999C11.8373 0.309999 12.6053 0.291999 13.1093 0.256V0.616ZM20.7598 0.00399888C21.8998 0.00399888 22.8958 0.261999 23.7478 0.778C24.6118 1.294 25.2778 2.044 25.7458 3.028C26.2258 4 26.4658 5.164 26.4658 6.52C26.4658 7.84 26.2198 9.01 25.7278 10.03C25.2478 11.05 24.5698 11.842 23.6938 12.406C22.8298 12.97 21.8458 13.252 20.7418 13.252C19.6018 13.252 18.5998 12.994 17.7358 12.478C16.8838 11.962 16.2178 11.218 15.7378 10.246C15.2698 9.262 15.0358 8.092 15.0358 6.736C15.0358 5.416 15.2758 4.246 15.7558 3.226C16.2478 2.206 16.9258 1.414 17.7898 0.85C18.6658 0.285999 19.6558 0.00399888 20.7598 0.00399888ZM20.6878 0.327999C19.9198 0.327999 19.2418 0.597999 18.6538 1.138C18.0778 1.666 17.6278 2.41 17.3038 3.37C16.9918 4.33 16.8358 5.428 16.8358 6.664C16.8358 7.912 17.0098 9.01 17.3578 9.958C17.7178 10.906 18.1978 11.638 18.7978 12.154C19.3978 12.67 20.0698 12.928 20.8138 12.928C21.5818 12.928 22.2538 12.664 22.8298 12.136C23.4178 11.596 23.8678 10.846 24.1798 9.886C24.5038 8.926 24.6658 7.828 24.6658 6.592C24.6658 5.344 24.4858 4.246 24.1258 3.298C23.7778 2.35 23.3038 1.618 22.7038 1.102C22.1038 0.585999 21.4318 0.327999 20.6878 0.327999ZM38.4396 0.256C38.3556 1.108 38.3136 1.876 38.3136 2.56C38.3136 3.16 38.3316 3.652 38.3676 4.036H37.9536C37.8576 3.112 37.7376 2.428 37.5936 1.984C37.4496 1.528 37.1976 1.198 36.8376 0.993999C36.4776 0.777999 35.9256 0.669999 35.1816 0.669999H34.2096V10.912C34.2096 11.416 34.2576 11.782 34.3536 12.01C34.4496 12.238 34.6176 12.394 34.8576 12.478C35.0976 12.562 35.4876 12.616 36.0276 12.64V13C35.4036 12.964 34.5216 12.946 33.3816 12.946C32.1816 12.946 31.2936 12.964 30.7176 13V12.64C31.2576 12.616 31.6476 12.562 31.8876 12.478C32.1276 12.394 32.2956 12.238 32.3916 12.01C32.4876 11.782 32.5356 11.416 32.5356 10.912V0.669999H31.5636C30.8196 0.669999 30.2676 0.777999 29.9076 0.993999C29.5476 1.198 29.2956 1.528 29.1516 1.984C29.0076 2.428 28.8876 3.112 28.7916 4.036H28.3776C28.4136 3.652 28.4316 3.16 28.4316 2.56C28.4316 1.876 28.3896 1.108 28.3056 0.256C29.3016 0.291999 30.9936 0.309999 33.3816 0.309999C35.7576 0.309999 37.4436 0.291999 38.4396 0.256ZM49.9792 0.256C49.8952 1.108 49.8532 1.876 49.8532 2.56C49.8532 3.16 49.8712 3.652 49.9072 4.036H49.4932C49.3972 3.112 49.2772 2.428 49.1332 1.984C48.9892 1.528 48.7372 1.198 48.3772 0.993999C48.0172 0.777999 47.4652 0.669999 46.7212 0.669999H45.7492V10.912C45.7492 11.416 45.7972 11.782 45.8932 12.01C45.9892 12.238 46.1572 12.394 46.3972 12.478C46.6372 12.562 47.0272 12.616 47.5672 12.64V13C46.9432 12.964 46.0612 12.946 44.9212 12.946C43.7212 12.946 42.8332 12.964 42.2572 13V12.64C42.7972 12.616 43.1872 12.562 43.4272 12.478C43.6672 12.394 43.8352 12.238 43.9312 12.01C44.0272 11.782 44.0752 11.416 44.0752 10.912V0.669999H43.1032C42.3592 0.669999 41.8072 0.777999 41.4472 0.993999C41.0872 1.198 40.8352 1.528 40.6912 1.984C40.5472 2.428 40.4272 3.112 40.3312 4.036H39.9172C39.9532 3.652 39.9712 3.16 39.9712 2.56C39.9712 1.876 39.9292 1.108 39.8452 0.256C40.8412 0.291999 42.5332 0.309999 44.9212 0.309999C47.2972 0.309999 48.9832 0.291999 49.9792 0.256ZM57.5409 0.00399888C58.6809 0.00399888 59.6769 0.261999 60.5289 0.778C61.3929 1.294 62.0589 2.044 62.5269 3.028C63.0069 4 63.2469 5.164 63.2469 6.52C63.2469 7.84 63.0009 9.01 62.5089 10.03C62.0289 11.05 61.3509 11.842 60.4749 12.406C59.6109 12.97 58.6269 13.252 57.5229 13.252C56.3829 13.252 55.3809 12.994 54.5169 12.478C53.6649 11.962 52.9989 11.218 52.5189 10.246C52.0509 9.262 51.8169 8.092 51.8169 6.736C51.8169 5.416 52.0569 4.246 52.5369 3.226C53.0289 2.206 53.7069 1.414 54.5709 0.85C55.4469 0.285999 56.4369 0.00399888 57.5409 0.00399888ZM57.4689 0.327999C56.7009 0.327999 56.0229 0.597999 55.4349 1.138C54.8589 1.666 54.4089 2.41 54.0849 3.37C53.7729 4.33 53.6169 5.428 53.6169 6.664C53.6169 7.912 53.7909 9.01 54.1389 9.958C54.4989 10.906 54.9789 11.638 55.5789 12.154C56.1789 12.67 56.8509 12.928 57.5949 12.928C58.3629 12.928 59.0349 12.664 59.6109 12.136C60.1989 11.596 60.6489 10.846 60.9609 9.886C61.2849 8.926 61.4469 7.828 61.4469 6.592C61.4469 5.344 61.2669 4.246 60.9069 3.298C60.5589 2.35 60.0849 1.618 59.4849 1.102C58.8849 0.585999 58.2129 0.327999 57.4689 0.327999ZM76.2493 0.616C75.8293 0.639999 75.5173 0.705999 75.3133 0.813999C75.1093 0.909999 74.9713 1.078 74.8993 1.318C74.8273 1.546 74.7913 1.888 74.7913 2.344V7.762C74.7913 8.626 74.7313 9.37 74.6113 9.994C74.5033 10.606 74.3173 11.134 74.0533 11.578C73.7533 12.094 73.3093 12.502 72.7213 12.802C72.1453 13.102 71.4913 13.252 70.7593 13.252C69.4393 13.252 68.4313 12.928 67.7353 12.28C67.2073 11.788 66.8533 11.23 66.6733 10.606C66.4933 9.982 66.4033 9.052 66.4033 7.816V2.164C66.4033 1.708 66.3673 1.378 66.2953 1.174C66.2233 0.97 66.0853 0.832 65.8813 0.76C65.6893 0.687999 65.3773 0.639999 64.9453 0.616V0.256C65.4493 0.291999 66.2173 0.309999 67.2493 0.309999C68.2213 0.309999 68.9833 0.291999 69.5353 0.256V0.616C69.1033 0.639999 68.7853 0.687999 68.5813 0.76C68.3893 0.832 68.2573 0.97 68.1853 1.174C68.1133 1.378 68.0773 1.708 68.0773 2.164V8.122C68.0773 9.082 68.1433 9.88 68.2753 10.516C68.4073 11.152 68.6773 11.662 69.0853 12.046C69.5053 12.43 70.1173 12.622 70.9213 12.622C72.1933 12.622 73.0873 12.214 73.6033 11.398C74.1193 10.582 74.3773 9.436 74.3773 7.96V2.344C74.3773 1.696 74.2573 1.252 74.0173 1.012C73.7893 0.771999 73.3633 0.639999 72.7393 0.616V0.256C73.1713 0.291999 73.7833 0.309999 74.5753 0.309999C75.2953 0.309999 75.8533 0.291999 76.2493 0.256V0.616ZM88.9688 12.1C88.6928 12.508 88.4168 12.802 88.1408 12.982C87.8648 13.162 87.4988 13.252 87.0428 13.252C86.5508 13.252 86.1428 13.108 85.8188 12.82C85.5068 12.532 85.2728 12.028 85.1168 11.308L84.7208 9.508C84.5768 8.884 84.4388 8.404 84.3068 8.068C84.1868 7.732 84.0008 7.462 83.7488 7.258C83.4968 7.054 83.1428 6.952 82.6868 6.952H80.9768V11.092C80.9768 11.548 81.0128 11.878 81.0848 12.082C81.1568 12.286 81.2888 12.424 81.4808 12.496C81.6848 12.568 82.0028 12.616 82.4348 12.64V13C81.8828 12.964 81.1208 12.946 80.1488 12.946C79.1168 12.946 78.3488 12.964 77.8448 13V12.64C78.2768 12.616 78.5888 12.568 78.7808 12.496C78.9848 12.424 79.1228 12.286 79.1948 12.082C79.2668 11.878 79.3028 11.548 79.3028 11.092V2.164C79.3028 1.708 79.2668 1.378 79.1948 1.174C79.1228 0.97 78.9848 0.832 78.7808 0.76C78.5888 0.687999 78.2768 0.639999 77.8448 0.616V0.256C78.3488 0.291999 79.0808 0.309999 80.0408 0.309999L81.9848 0.291999C82.2128 0.28 82.4708 0.274 82.7588 0.274C84.1508 0.274 85.2188 0.567999 85.9628 1.156C86.7188 1.732 87.0968 2.482 87.0968 3.406C87.0968 3.874 86.9828 4.348 86.7548 4.828C86.5388 5.296 86.1668 5.722 85.6388 6.106C85.1228 6.478 84.4448 6.73 83.6048 6.862L83.8208 6.898C84.6128 7.03 85.1888 7.27 85.5488 7.618C85.9088 7.966 86.1728 8.518 86.3408 9.274L86.7908 11.11C86.9108 11.662 87.0368 12.046 87.1688 12.262C87.3008 12.478 87.4808 12.586 87.7088 12.586C87.9128 12.586 88.0808 12.532 88.2128 12.424C88.3568 12.316 88.5188 12.142 88.6988 11.902L88.9688 12.1ZM82.3088 0.616C81.9368 0.616 81.6548 0.657999 81.4628 0.741999C81.2828 0.825999 81.1568 0.976 81.0848 1.192C81.0128 1.408 80.9768 1.732 80.9768 2.164V6.592H82.1828C83.3708 6.592 84.1868 6.328 84.6308 5.8C85.0748 5.272 85.2968 4.54 85.2968 3.604C85.2968 2.62 85.0628 1.876 84.5948 1.372C84.1268 0.868 83.3648 0.616 82.3088 0.616Z" fill="#E4B0A2"/>
</svg>
