<svg width="53" height="14" viewBox="0 0 53 14" fill="none" xmlns="http://www.w3.org/2000/svg">
<path d="M11.5353 0.616C11.1153 0.639999 10.8033 0.705999 10.5993 0.813999C10.3953 0.909999 10.2573 1.078 10.1853 1.318C10.1133 1.546 10.0773 1.888 10.0773 2.344V13.09H9.66331L2.10331 1.408V10.912C2.10331 11.38 2.13931 11.728 2.21131 11.956C2.29531 12.184 2.45131 12.352 2.67931 12.46C2.90731 12.556 3.26131 12.616 3.74131 12.64V13C3.30931 12.964 2.69731 12.946 1.90531 12.946C1.18531 12.946 0.627313 12.964 0.231313 13V12.64C0.651313 12.616 0.963313 12.556 1.16731 12.46C1.37131 12.352 1.50931 12.184 1.58131 11.956C1.65331 11.716 1.68931 11.368 1.68931 10.912V2.164C1.68931 1.708 1.65331 1.378 1.58131 1.174C1.50931 0.97 1.37131 0.832 1.16731 0.76C0.975313 0.687999 0.663313 0.639999 0.231313 0.616V0.256C0.627313 0.291999 1.18531 0.309999 1.90531 0.309999C2.44531 0.309999 2.91331 0.291999 3.30931 0.256L9.66331 10.048V2.344C9.66331 1.876 9.62131 1.528 9.53731 1.3C9.46531 1.072 9.31531 0.909999 9.08731 0.813999C8.85931 0.705999 8.50531 0.639999 8.02531 0.616V0.256C8.45731 0.291999 9.06931 0.309999 9.86131 0.309999C10.5813 0.309999 11.1393 0.291999 11.5353 0.256V0.616ZM22.6448 11.488C22.9328 12.232 23.3468 12.616 23.8868 12.64V13C23.4068 12.964 22.7648 12.946 21.9608 12.946C20.9288 12.946 20.1608 12.964 19.6568 13V12.64C20.1128 12.616 20.4368 12.562 20.6288 12.478C20.8328 12.382 20.9348 12.214 20.9348 11.974C20.9348 11.77 20.8628 11.488 20.7188 11.128L19.6208 8.176H15.2648L14.5268 10.084C14.2868 10.732 14.1668 11.224 14.1668 11.56C14.1668 11.932 14.2928 12.202 14.5448 12.37C14.8088 12.538 15.2048 12.628 15.7328 12.64V13C15.0488 12.964 14.3588 12.946 13.6628 12.946C13.1228 12.946 12.6728 12.964 12.3128 13V12.64C12.9128 12.496 13.3868 11.974 13.7348 11.074L17.9648 0.165999H18.2528L22.6448 11.488ZM19.4768 7.816L17.4608 2.434L15.4088 7.816H19.4768ZM29.1312 0.616C28.6992 0.639999 28.3812 0.687999 28.1772 0.76C27.9852 0.832 27.8532 0.97 27.7812 1.174C27.7092 1.378 27.6732 1.708 27.6732 2.164V11.092C27.6732 11.548 27.7092 11.878 27.7812 12.082C27.8532 12.286 27.9852 12.424 28.1772 12.496C28.3812 12.568 28.6992 12.616 29.1312 12.64V13C28.5792 12.964 27.8172 12.946 26.8452 12.946C25.8132 12.946 25.0452 12.964 24.5412 13V12.64C24.9732 12.616 25.2852 12.568 25.4772 12.496C25.6812 12.424 25.8192 12.286 25.8912 12.082C25.9632 11.878 25.9992 11.548 25.9992 11.092V2.164C25.9992 1.708 25.9632 1.378 25.8912 1.174C25.8192 0.97 25.6812 0.832 25.4772 0.76C25.2852 0.687999 24.9732 0.639999 24.5412 0.616V0.256C25.0452 0.291999 25.8132 0.309999 26.8452 0.309999C27.8052 0.309999 28.5672 0.291999 29.1312 0.256V0.616ZM35.5908 0.616C35.1588 0.639999 34.8408 0.687999 34.6368 0.76C34.4448 0.832 34.3128 0.97 34.2408 1.174C34.1688 1.378 34.1328 1.708 34.1328 2.164V11.092C34.1328 11.548 34.1688 11.878 34.2408 12.082C34.3128 12.286 34.4448 12.424 34.6368 12.496C34.8408 12.556 35.1588 12.586 35.5908 12.586H36.9048C37.6488 12.586 38.2128 12.484 38.5968 12.28C38.9928 12.064 39.2808 11.722 39.4608 11.254C39.6408 10.786 39.7728 10.108 39.8568 9.22H40.2708C40.2348 9.592 40.2168 10.084 40.2168 10.696C40.2168 11.38 40.2588 12.148 40.3428 13C39.5268 12.964 38.1528 12.946 36.2208 12.946C33.9168 12.946 32.1768 12.964 31.0008 13V12.64C31.4328 12.616 31.7448 12.568 31.9368 12.496C32.1408 12.424 32.2788 12.286 32.3508 12.082C32.4228 11.878 32.4588 11.548 32.4588 11.092V2.164C32.4588 1.708 32.4228 1.378 32.3508 1.174C32.2788 0.97 32.1408 0.832 31.9368 0.76C31.7448 0.687999 31.4328 0.639999 31.0008 0.616V0.256C31.5048 0.291999 32.2728 0.309999 33.3048 0.309999C34.2648 0.309999 35.0268 0.291999 35.5908 0.256V0.616ZM51.3928 11.488C51.6808 12.232 52.0948 12.616 52.6348 12.64V13C52.1548 12.964 51.5128 12.946 50.7088 12.946C49.6768 12.946 48.9088 12.964 48.4048 13V12.64C48.8608 12.616 49.1848 12.562 49.3768 12.478C49.5808 12.382 49.6828 12.214 49.6828 11.974C49.6828 11.77 49.6108 11.488 49.4668 11.128L48.3688 8.176H44.0128L43.2748 10.084C43.0348 10.732 42.9148 11.224 42.9148 11.56C42.9148 11.932 43.0408 12.202 43.2928 12.37C43.5568 12.538 43.9528 12.628 44.4808 12.64V13C43.7968 12.964 43.1068 12.946 42.4108 12.946C41.8708 12.946 41.4208 12.964 41.0608 13V12.64C41.6608 12.496 42.1348 11.974 42.4828 11.074L46.7128 0.165999H47.0008L51.3928 11.488ZM48.2248 7.816L46.2088 2.434L44.1568 7.816H48.2248Z" fill="#E4B0A2"/>
</svg>
