<svg width="207" height="17" viewBox="0 0 207 17" fill="none" xmlns="http://www.w3.org/2000/svg">
<path d="M14.796 8.52C14.796 9.492 14.532 10.362 14.004 11.13C13.476 11.886 12.738 12.498 11.79 12.966C10.842 13.422 9.744 13.692 8.496 13.776V14.424C8.496 14.88 8.532 15.21 8.604 15.414C8.676 15.618 8.808 15.756 9 15.828C9.204 15.9 9.522 15.948 9.954 15.972V16.332C9.402 16.296 8.64 16.278 7.668 16.278C6.636 16.278 5.868 16.296 5.364 16.332V15.972C5.796 15.948 6.108 15.9 6.3 15.828C6.504 15.756 6.642 15.618 6.714 15.414C6.786 15.21 6.822 14.88 6.822 14.424V13.794C4.866 13.674 3.318 13.158 2.178 12.246C1.05 11.334 0.486 10.104 0.486 8.556C0.486 7.62 0.75 6.786 1.278 6.054C1.806 5.31 2.55 4.716 3.51 4.272C4.47 3.828 5.574 3.564 6.822 3.48V2.832C6.822 2.376 6.786 2.046 6.714 1.842C6.642 1.638 6.504 1.5 6.3 1.428C6.108 1.356 5.796 1.308 5.364 1.284V0.923999C5.868 0.959999 6.636 0.977999 7.668 0.977999C8.628 0.977999 9.39 0.959999 9.954 0.923999V1.284C9.522 1.308 9.204 1.356 9 1.428C8.808 1.5 8.676 1.638 8.604 1.842C8.532 2.046 8.496 2.376 8.496 2.832V3.462C10.44 3.582 11.976 4.08 13.104 4.956C14.232 5.832 14.796 7.02 14.796 8.52ZM2.286 8.484C2.286 9.384 2.478 10.188 2.862 10.896C3.246 11.604 3.78 12.174 4.464 12.606C5.16 13.038 5.946 13.314 6.822 13.434V3.804C5.91 3.9 5.112 4.158 4.428 4.578C3.744 4.998 3.216 5.544 2.844 6.216C2.472 6.888 2.286 7.644 2.286 8.484ZM12.996 8.592C12.996 7.728 12.804 6.954 12.42 6.27C12.036 5.586 11.502 5.04 10.818 4.632C10.146 4.212 9.372 3.942 8.496 3.822V13.452C9.408 13.344 10.2 13.074 10.872 12.642C11.556 12.198 12.078 11.628 12.438 10.932C12.81 10.236 12.996 9.456 12.996 8.592ZM22.3134 2.004C23.4534 2.004 24.4494 2.262 25.3014 2.778C26.1654 3.294 26.8314 4.044 27.2994 5.028C27.7794 6 28.0194 7.164 28.0194 8.52C28.0194 9.84 27.7734 11.01 27.2814 12.03C26.8014 13.05 26.1234 13.842 25.2474 14.406C24.3834 14.97 23.3994 15.252 22.2954 15.252C21.1554 15.252 20.1534 14.994 19.2894 14.478C18.4374 13.962 17.7714 13.218 17.2914 12.246C16.8234 11.262 16.5894 10.092 16.5894 8.736C16.5894 7.416 16.8294 6.246 17.3094 5.226C17.8014 4.206 18.4794 3.414 19.3434 2.85C20.2194 2.286 21.2094 2.004 22.3134 2.004ZM22.2414 2.328C21.4734 2.328 20.7954 2.598 20.2074 3.138C19.6314 3.666 19.1814 4.41 18.8574 5.37C18.5454 6.33 18.3894 7.428 18.3894 8.664C18.3894 9.912 18.5634 11.01 18.9114 11.958C19.2714 12.906 19.7514 13.638 20.3514 14.154C20.9514 14.67 21.6234 14.928 22.3674 14.928C23.1354 14.928 23.8074 14.664 24.3834 14.136C24.9714 13.596 25.4214 12.846 25.7334 11.886C26.0574 10.926 26.2194 9.828 26.2194 8.592C26.2194 7.344 26.0394 6.246 25.6794 5.298C25.3314 4.35 24.8574 3.618 24.2574 3.102C23.6574 2.586 22.9854 2.328 22.2414 2.328ZM39.9932 2.256C39.9092 3.108 39.8672 3.876 39.8672 4.56C39.8672 5.16 39.8852 5.652 39.9212 6.036H39.5072C39.4112 5.112 39.2912 4.428 39.1472 3.984C39.0032 3.528 38.7512 3.198 38.3912 2.994C38.0312 2.778 37.4792 2.67 36.7352 2.67H35.7632V12.912C35.7632 13.416 35.8112 13.782 35.9072 14.01C36.0032 14.238 36.1712 14.394 36.4112 14.478C36.6512 14.562 37.0412 14.616 37.5812 14.64V15C36.9572 14.964 36.0752 14.946 34.9352 14.946C33.7352 14.946 32.8472 14.964 32.2712 15V14.64C32.8112 14.616 33.2012 14.562 33.4412 14.478C33.6812 14.394 33.8492 14.238 33.9452 14.01C34.0412 13.782 34.0892 13.416 34.0892 12.912V2.67H33.1172C32.3732 2.67 31.8212 2.778 31.4612 2.994C31.1012 3.198 30.8492 3.528 30.7052 3.984C30.5612 4.428 30.4412 5.112 30.3452 6.036H29.9312C29.9672 5.652 29.9852 5.16 29.9852 4.56C29.9852 3.876 29.9432 3.108 29.8592 2.256C30.8552 2.292 32.5472 2.31 34.9352 2.31C37.3112 2.31 38.9972 2.292 39.9932 2.256ZM47.5549 2.004C48.6949 2.004 49.6909 2.262 50.5429 2.778C51.4069 3.294 52.0729 4.044 52.5409 5.028C53.0209 6 53.2609 7.164 53.2609 8.52C53.2609 9.84 53.0149 11.01 52.5229 12.03C52.0429 13.05 51.3649 13.842 50.4889 14.406C49.6249 14.97 48.6409 15.252 47.5369 15.252C46.3969 15.252 45.3949 14.994 44.5309 14.478C43.6789 13.962 43.0129 13.218 42.5329 12.246C42.0649 11.262 41.8309 10.092 41.8309 8.736C41.8309 7.416 42.0709 6.246 42.5509 5.226C43.0429 4.206 43.7209 3.414 44.5849 2.85C45.4609 2.286 46.4509 2.004 47.5549 2.004ZM47.4829 2.328C46.7149 2.328 46.0369 2.598 45.4489 3.138C44.8729 3.666 44.4229 4.41 44.0989 5.37C43.7869 6.33 43.6309 7.428 43.6309 8.664C43.6309 9.912 43.8049 11.01 44.1529 11.958C44.5129 12.906 44.9929 13.638 45.5929 14.154C46.1929 14.67 46.8649 14.928 47.6089 14.928C48.3769 14.928 49.0489 14.664 49.6249 14.136C50.2129 13.596 50.6629 12.846 50.9749 11.886C51.2989 10.926 51.4609 9.828 51.4609 8.592C51.4609 7.344 51.2809 6.246 50.9209 5.298C50.5729 4.35 50.0989 3.618 49.4989 3.102C48.8989 2.586 48.2269 2.328 47.4829 2.328ZM71.808 2.616C71.376 2.64 71.058 2.688 70.854 2.76C70.662 2.832 70.53 2.97 70.458 3.174C70.386 3.378 70.35 3.708 70.35 4.164V13.092C70.35 13.548 70.386 13.878 70.458 14.082C70.53 14.286 70.662 14.424 70.854 14.496C71.058 14.568 71.376 14.616 71.808 14.64V15C71.304 14.964 70.536 14.946 69.504 14.946L68.172 14.964C67.404 14.988 66.78 15 66.3 15C65.832 15 65.25 14.988 64.554 14.964L63.528 14.946L62.466 14.964C61.77 14.988 61.176 15 60.684 15C60.168 15 59.538 14.988 58.794 14.964L57.498 14.946C56.466 14.946 55.698 14.964 55.194 15V14.64C55.626 14.616 55.938 14.568 56.13 14.496C56.334 14.424 56.472 14.286 56.544 14.082C56.616 13.878 56.652 13.548 56.652 13.092V4.164C56.652 3.708 56.616 3.378 56.544 3.174C56.472 2.97 56.334 2.832 56.13 2.76C55.938 2.688 55.626 2.64 55.194 2.616V2.256C55.698 2.292 56.466 2.31 57.498 2.31C58.374 2.31 59.076 2.292 59.604 2.256V2.616C59.22 2.64 58.944 2.688 58.776 2.76C58.608 2.832 58.488 2.97 58.416 3.174C58.356 3.378 58.326 3.708 58.326 4.164V13.092C58.326 13.548 58.362 13.884 58.434 14.1C58.506 14.304 58.644 14.448 58.848 14.532C59.052 14.604 59.364 14.64 59.784 14.64H61.206C61.626 14.64 61.938 14.604 62.142 14.532C62.346 14.448 62.484 14.304 62.556 14.1C62.628 13.884 62.664 13.548 62.664 13.092V4.164C62.664 3.708 62.634 3.378 62.574 3.174C62.514 2.97 62.394 2.832 62.214 2.76C62.046 2.688 61.77 2.64 61.386 2.616V2.256C61.914 2.292 62.616 2.31 63.492 2.31C64.44 2.31 65.148 2.292 65.616 2.256V2.616C65.232 2.64 64.95 2.688 64.77 2.76C64.602 2.832 64.488 2.97 64.428 3.174C64.368 3.378 64.338 3.708 64.338 4.164V13.092C64.338 13.548 64.374 13.884 64.446 14.1C64.518 14.304 64.656 14.448 64.86 14.532C65.064 14.604 65.376 14.64 65.796 14.64H67.218C67.638 14.64 67.95 14.604 68.154 14.532C68.358 14.448 68.496 14.304 68.568 14.1C68.64 13.884 68.676 13.548 68.676 13.092V4.164C68.676 3.708 68.646 3.378 68.586 3.174C68.526 2.97 68.406 2.832 68.226 2.76C68.058 2.688 67.782 2.64 67.398 2.616V2.256C67.926 2.292 68.628 2.31 69.504 2.31C70.536 2.31 71.304 2.292 71.808 2.256V2.616ZM84.8011 14.1C84.5371 14.496 84.2671 14.79 83.9911 14.982C83.7151 15.162 83.3431 15.252 82.8751 15.252C82.3951 15.252 81.9931 15.114 81.6691 14.838C81.3571 14.562 81.1171 14.052 80.9491 13.308L80.4451 11.076C80.3011 10.464 80.1571 9.996 80.0131 9.672C79.8811 9.336 79.6531 9.072 79.3291 8.88C79.0171 8.676 78.5731 8.574 77.9971 8.574H76.8091V13.092C76.8091 13.548 76.8451 13.878 76.9171 14.082C76.9891 14.286 77.1211 14.424 77.3131 14.496C77.5171 14.568 77.8351 14.616 78.2671 14.64V15C77.7151 14.964 76.9531 14.946 75.9811 14.946C74.9491 14.946 74.1811 14.964 73.6771 15V14.64C74.1091 14.616 74.4211 14.568 74.6131 14.496C74.8171 14.424 74.9551 14.286 75.0271 14.082C75.0991 13.878 75.1351 13.548 75.1351 13.092V4.164C75.1351 3.708 75.0991 3.378 75.0271 3.174C74.9551 2.97 74.8171 2.832 74.6131 2.76C74.4211 2.688 74.1091 2.64 73.6771 2.616V2.256C74.1811 2.292 74.9491 2.31 75.9811 2.31C76.9411 2.31 77.7031 2.292 78.2671 2.256V2.616C77.8351 2.64 77.5171 2.688 77.3131 2.76C77.1211 2.832 76.9891 2.97 76.9171 3.174C76.8451 3.378 76.8091 3.708 76.8091 4.164V8.232C77.6971 8.22 78.4051 7.872 78.9331 7.188L80.6611 4.992C81.2731 4.236 81.5791 3.66 81.5791 3.264C81.5791 2.844 81.2071 2.628 80.4631 2.616V2.256C81.1471 2.292 81.8371 2.31 82.5331 2.31C83.1931 2.31 83.7031 2.292 84.0631 2.256V2.616C83.2471 2.736 82.5391 3.174 81.9391 3.93L78.5551 8.25C79.5151 8.286 80.2951 8.496 80.8951 8.88C81.5071 9.252 81.9211 9.906 82.1371 10.842L82.6591 13.11C82.7911 13.686 82.9111 14.076 83.0191 14.28C83.1391 14.484 83.3131 14.586 83.5411 14.586C83.7451 14.586 83.9131 14.532 84.0451 14.424C84.1891 14.316 84.3511 14.142 84.5311 13.902L84.8011 14.1ZM91.7189 2.004C92.8589 2.004 93.8549 2.262 94.7069 2.778C95.5709 3.294 96.2369 4.044 96.7049 5.028C97.1849 6 97.4249 7.164 97.4249 8.52C97.4249 9.84 97.1789 11.01 96.6869 12.03C96.2069 13.05 95.5289 13.842 94.6529 14.406C93.7889 14.97 92.8049 15.252 91.7009 15.252C90.5609 15.252 89.5589 14.994 88.6949 14.478C87.8429 13.962 87.1769 13.218 86.6969 12.246C86.2289 11.262 85.9949 10.092 85.9949 8.736C85.9949 7.416 86.2349 6.246 86.7149 5.226C87.2069 4.206 87.8849 3.414 88.7489 2.85C89.6249 2.286 90.6149 2.004 91.7189 2.004ZM91.6469 2.328C90.8789 2.328 90.2009 2.598 89.6129 3.138C89.0369 3.666 88.5869 4.41 88.2629 5.37C87.9509 6.33 87.7949 7.428 87.7949 8.664C87.7949 9.912 87.9689 11.01 88.3169 11.958C88.6769 12.906 89.1569 13.638 89.7569 14.154C90.3569 14.67 91.0289 14.928 91.7729 14.928C92.5409 14.928 93.2129 14.664 93.7889 14.136C94.3769 13.596 94.8269 12.846 95.1389 11.886C95.4629 10.926 95.6249 9.828 95.6249 8.592C95.6249 7.344 95.4449 6.246 95.0849 5.298C94.7369 4.35 94.2629 3.618 93.6629 3.102C93.0629 2.586 92.3909 2.328 91.6469 2.328ZM110.019 2.616C109.587 2.64 109.269 2.688 109.065 2.76C108.873 2.832 108.741 2.97 108.669 3.174C108.597 3.378 108.561 3.708 108.561 4.164V13.092C108.561 13.548 108.597 13.878 108.669 14.082C108.741 14.286 108.873 14.424 109.065 14.496C109.269 14.568 109.587 14.616 110.019 14.64V15C109.515 14.964 108.747 14.946 107.715 14.946C106.587 14.946 105.705 14.964 105.069 15V14.64C105.609 14.616 105.999 14.568 106.239 14.496C106.479 14.424 106.647 14.286 106.743 14.082C106.839 13.878 106.887 13.548 106.887 13.092V4.164C106.887 3.708 106.851 3.378 106.779 3.174C106.707 2.958 106.569 2.814 106.365 2.742C106.161 2.658 105.849 2.616 105.429 2.616H105.195C104.763 2.616 104.451 2.658 104.259 2.742C104.079 2.814 103.953 2.952 103.881 3.156C103.821 3.348 103.773 3.684 103.737 4.164C103.701 4.536 103.659 5.118 103.611 5.91C103.491 7.806 103.335 9.384 103.143 10.644C102.963 11.892 102.621 12.972 102.117 13.884C101.613 14.796 100.899 15.252 99.9751 15.252C99.5191 15.252 99.1291 15.156 98.8051 14.964C98.4931 14.76 98.3371 14.448 98.3371 14.028C98.3371 13.716 98.4331 13.47 98.6251 13.29C98.8291 13.098 99.0871 13.002 99.3991 13.002C99.6631 13.002 99.8791 13.074 100.047 13.218C100.227 13.362 100.317 13.554 100.317 13.794C100.317 14.046 100.257 14.256 100.137 14.424C100.017 14.58 99.8191 14.736 99.5431 14.892C99.6511 14.904 99.7951 14.91 99.9751 14.91C100.827 14.91 101.481 14.4 101.937 13.38C102.393 12.36 102.705 11.154 102.873 9.762C103.041 8.358 103.191 6.492 103.323 4.164C103.335 4.068 103.341 3.936 103.341 3.768C103.341 3.456 103.299 3.222 103.215 3.066C103.131 2.91 102.987 2.802 102.783 2.742C102.579 2.682 102.273 2.64 101.865 2.616V2.256C102.369 2.292 102.987 2.31 103.719 2.31C103.899 2.31 104.169 2.298 104.529 2.274L105.303 2.256L106.509 2.274C107.061 2.298 107.517 2.31 107.877 2.31C108.801 2.31 109.515 2.292 110.019 2.256V2.616ZM121.35 13.488C121.638 14.232 122.052 14.616 122.592 14.64V15C122.112 14.964 121.47 14.946 120.666 14.946C119.634 14.946 118.866 14.964 118.362 15V14.64C118.818 14.616 119.142 14.562 119.334 14.478C119.538 14.382 119.64 14.214 119.64 13.974C119.64 13.77 119.568 13.488 119.424 13.128L118.326 10.176H113.97L113.232 12.084C112.992 12.732 112.872 13.224 112.872 13.56C112.872 13.932 112.998 14.202 113.25 14.37C113.514 14.538 113.91 14.628 114.438 14.64V15C113.754 14.964 113.064 14.946 112.368 14.946C111.828 14.946 111.378 14.964 111.018 15V14.64C111.618 14.496 112.092 13.974 112.44 13.074L116.67 2.166H116.958L121.35 13.488ZM118.182 9.816L116.166 4.434L114.114 9.816H118.182ZM133.102 6.54C132.634 6.54 132.28 6.348 132.04 5.964C131.836 5.64 131.734 5.244 131.734 4.776C131.734 4.176 131.884 3.636 132.184 3.156C132.496 2.676 132.964 2.292 133.588 2.004L133.75 2.328C133.378 2.484 133.054 2.73 132.778 3.066C132.514 3.402 132.382 3.744 132.382 4.092C132.382 4.236 132.4 4.362 132.436 4.47C132.628 4.314 132.85 4.236 133.102 4.236C133.426 4.236 133.696 4.344 133.912 4.56C134.14 4.764 134.254 5.04 134.254 5.388C134.254 5.712 134.14 5.988 133.912 6.216C133.696 6.432 133.426 6.54 133.102 6.54ZM130.042 6.54C129.574 6.54 129.22 6.348 128.98 5.964C128.776 5.64 128.674 5.244 128.674 4.776C128.674 4.176 128.824 3.636 129.124 3.156C129.436 2.676 129.904 2.292 130.528 2.004L130.69 2.328C130.318 2.484 129.994 2.73 129.718 3.066C129.454 3.402 129.322 3.744 129.322 4.092C129.322 4.236 129.34 4.362 129.376 4.47C129.568 4.314 129.79 4.236 130.042 4.236C130.366 4.236 130.636 4.344 130.852 4.56C131.08 4.764 131.194 5.04 131.194 5.388C131.194 5.712 131.08 5.988 130.852 6.216C130.636 6.432 130.366 6.54 130.042 6.54ZM148.437 2.616C148.005 2.64 147.687 2.688 147.483 2.76C147.291 2.832 147.159 2.97 147.087 3.174C147.015 3.378 146.979 3.708 146.979 4.164V13.092C146.979 13.548 147.015 13.878 147.087 14.082C147.159 14.286 147.291 14.424 147.483 14.496C147.687 14.568 148.005 14.616 148.437 14.64V15C147.933 14.964 147.165 14.946 146.133 14.946C145.161 14.946 144.399 14.964 143.847 15V14.64C144.279 14.616 144.591 14.568 144.783 14.496C144.987 14.424 145.125 14.286 145.197 14.082C145.269 13.878 145.305 13.548 145.305 13.092V4.164C145.305 3.708 145.269 3.378 145.197 3.174C145.125 2.958 144.987 2.814 144.783 2.742C144.579 2.658 144.267 2.616 143.847 2.616H140.913C140.493 2.616 140.181 2.658 139.977 2.742C139.773 2.814 139.635 2.958 139.563 3.174C139.491 3.378 139.455 3.708 139.455 4.164V13.092C139.455 13.548 139.491 13.878 139.563 14.082C139.635 14.286 139.767 14.424 139.959 14.496C140.163 14.568 140.481 14.616 140.913 14.64V15C140.361 14.964 139.599 14.946 138.627 14.946C137.595 14.946 136.827 14.964 136.323 15V14.64C136.755 14.616 137.067 14.568 137.259 14.496C137.463 14.424 137.601 14.286 137.673 14.082C137.745 13.878 137.781 13.548 137.781 13.092V4.164C137.781 3.708 137.745 3.378 137.673 3.174C137.601 2.97 137.463 2.832 137.259 2.76C137.067 2.688 136.755 2.64 136.323 2.616V2.256C136.827 2.292 137.595 2.31 138.627 2.31C139.227 2.31 140.007 2.298 140.967 2.274L142.407 2.256L143.811 2.274C144.771 2.298 145.545 2.31 146.133 2.31C147.165 2.31 147.933 2.292 148.437 2.256V2.616ZM162.78 2.616C162.348 2.64 162.03 2.688 161.826 2.76C161.634 2.832 161.502 2.97 161.43 3.174C161.358 3.378 161.322 3.708 161.322 4.164V13.092C161.322 13.548 161.358 13.878 161.43 14.082C161.502 14.286 161.634 14.424 161.826 14.496C162.03 14.568 162.348 14.616 162.78 14.64V15C162.276 14.964 161.508 14.946 160.476 14.946C159.516 14.946 158.754 14.964 158.19 15V14.64C158.622 14.616 158.934 14.568 159.126 14.496C159.33 14.424 159.468 14.286 159.54 14.082C159.612 13.878 159.648 13.548 159.648 13.092V4.578L153.438 13.38C153.45 13.728 153.498 13.992 153.582 14.172C153.666 14.34 153.804 14.454 153.996 14.514C154.188 14.574 154.488 14.616 154.896 14.64V15C154.344 14.964 153.582 14.946 152.61 14.946C151.578 14.946 150.81 14.964 150.306 15V14.64C150.738 14.616 151.05 14.568 151.242 14.496C151.446 14.424 151.584 14.286 151.656 14.082C151.728 13.878 151.764 13.548 151.764 13.092V4.164C151.764 3.708 151.728 3.378 151.656 3.174C151.584 2.97 151.446 2.832 151.242 2.76C151.05 2.688 150.738 2.64 150.306 2.616V2.256C150.81 2.292 151.578 2.31 152.61 2.31C153.57 2.31 154.332 2.292 154.896 2.256V2.616C154.464 2.64 154.146 2.688 153.942 2.76C153.75 2.832 153.618 2.97 153.546 3.174C153.474 3.378 153.438 3.708 153.438 4.164V12.678L159.648 3.876C159.636 3.528 159.588 3.27 159.504 3.102C159.42 2.922 159.282 2.802 159.09 2.742C158.898 2.682 158.598 2.64 158.19 2.616V2.256C158.754 2.292 159.516 2.31 160.476 2.31C161.508 2.31 162.276 2.292 162.78 2.256V2.616ZM175.783 14.1C175.519 14.496 175.249 14.79 174.973 14.982C174.697 15.162 174.325 15.252 173.857 15.252C173.377 15.252 172.975 15.114 172.651 14.838C172.339 14.562 172.099 14.052 171.931 13.308L171.427 11.076C171.283 10.464 171.139 9.996 170.995 9.672C170.863 9.336 170.635 9.072 170.311 8.88C169.999 8.676 169.555 8.574 168.979 8.574H167.791V13.092C167.791 13.548 167.827 13.878 167.899 14.082C167.971 14.286 168.103 14.424 168.295 14.496C168.499 14.568 168.817 14.616 169.249 14.64V15C168.697 14.964 167.935 14.946 166.963 14.946C165.931 14.946 165.163 14.964 164.659 15V14.64C165.091 14.616 165.403 14.568 165.595 14.496C165.799 14.424 165.937 14.286 166.009 14.082C166.081 13.878 166.117 13.548 166.117 13.092V4.164C166.117 3.708 166.081 3.378 166.009 3.174C165.937 2.97 165.799 2.832 165.595 2.76C165.403 2.688 165.091 2.64 164.659 2.616V2.256C165.163 2.292 165.931 2.31 166.963 2.31C167.923 2.31 168.685 2.292 169.249 2.256V2.616C168.817 2.64 168.499 2.688 168.295 2.76C168.103 2.832 167.971 2.97 167.899 3.174C167.827 3.378 167.791 3.708 167.791 4.164V8.232C168.679 8.22 169.387 7.872 169.915 7.188L171.643 4.992C172.255 4.236 172.561 3.66 172.561 3.264C172.561 2.844 172.189 2.628 171.445 2.616V2.256C172.129 2.292 172.819 2.31 173.515 2.31C174.175 2.31 174.685 2.292 175.045 2.256V2.616C174.229 2.736 173.521 3.174 172.921 3.93L169.537 8.25C170.497 8.286 171.277 8.496 171.877 8.88C172.489 9.252 172.903 9.906 173.119 10.842L173.641 13.11C173.773 13.686 173.893 14.076 174.001 14.28C174.121 14.484 174.295 14.586 174.523 14.586C174.727 14.586 174.895 14.532 175.027 14.424C175.171 14.316 175.333 14.142 175.513 13.902L175.783 14.1ZM187.82 2.616C187.388 2.64 187.07 2.688 186.866 2.76C186.674 2.832 186.542 2.97 186.47 3.174C186.398 3.378 186.362 3.708 186.362 4.164V13.092C186.362 13.548 186.398 13.878 186.47 14.082C186.542 14.286 186.674 14.424 186.866 14.496C187.07 14.568 187.388 14.616 187.82 14.64V15C187.316 14.964 186.548 14.946 185.516 14.946C184.388 14.946 183.506 14.964 182.87 15V14.64C183.41 14.616 183.8 14.568 184.04 14.496C184.28 14.424 184.448 14.286 184.544 14.082C184.64 13.878 184.688 13.548 184.688 13.092V9.258C184.316 9.438 183.806 9.594 183.158 9.726C182.522 9.858 181.904 9.924 181.304 9.924C180.332 9.924 179.564 9.714 179 9.294C178.676 9.042 178.448 8.742 178.316 8.394C178.196 8.034 178.136 7.53 178.136 6.882V3.93C178.136 3.438 178.034 3.102 177.83 2.922C177.626 2.73 177.272 2.634 176.768 2.634V2.256C177.872 2.304 178.61 2.328 178.982 2.328C179.318 2.328 179.99 2.304 180.998 2.256V2.634C180.554 2.634 180.242 2.73 180.062 2.922C179.894 3.102 179.81 3.438 179.81 3.93V7.278C179.81 7.722 179.858 8.088 179.954 8.376C180.05 8.664 180.248 8.898 180.548 9.078C180.848 9.258 181.292 9.348 181.88 9.348C183.02 9.348 183.956 9.216 184.688 8.952V4.164C184.688 3.708 184.652 3.378 184.58 3.174C184.508 2.97 184.37 2.832 184.166 2.76C183.974 2.688 183.662 2.64 183.23 2.616V2.256C183.734 2.292 184.502 2.31 185.534 2.31C186.506 2.31 187.268 2.292 187.82 2.256V2.616ZM199.139 13.488C199.427 14.232 199.841 14.616 200.381 14.64V15C199.901 14.964 199.259 14.946 198.455 14.946C197.423 14.946 196.655 14.964 196.151 15V14.64C196.607 14.616 196.931 14.562 197.123 14.478C197.327 14.382 197.429 14.214 197.429 13.974C197.429 13.77 197.357 13.488 197.213 13.128L196.115 10.176H191.759L191.021 12.084C190.781 12.732 190.661 13.224 190.661 13.56C190.661 13.932 190.787 14.202 191.039 14.37C191.303 14.538 191.699 14.628 192.227 14.64V15C191.543 14.964 190.853 14.946 190.157 14.946C189.617 14.946 189.167 14.964 188.807 15V14.64C189.407 14.496 189.881 13.974 190.229 13.074L194.459 2.166H194.747L199.139 13.488ZM195.971 9.816L193.955 4.434L191.903 9.816H195.971ZM201.823 2.004C202.291 2.004 202.645 2.196 202.885 2.58C203.089 2.904 203.191 3.3 203.191 3.768C203.191 4.368 203.035 4.908 202.723 5.388C202.423 5.868 201.961 6.252 201.337 6.54L201.175 6.216C201.547 6.06 201.865 5.814 202.129 5.478C202.405 5.142 202.543 4.8 202.543 4.452C202.543 4.308 202.525 4.182 202.489 4.074C202.297 4.23 202.075 4.308 201.823 4.308C201.499 4.308 201.223 4.206 200.995 4.002C200.779 3.786 200.671 3.504 200.671 3.156C200.671 2.832 200.779 2.562 200.995 2.346C201.223 2.118 201.499 2.004 201.823 2.004ZM204.883 2.004C205.351 2.004 205.705 2.196 205.945 2.58C206.149 2.904 206.251 3.3 206.251 3.768C206.251 4.368 206.095 4.908 205.783 5.388C205.483 5.868 205.021 6.252 204.397 6.54L204.235 6.216C204.607 6.06 204.925 5.814 205.189 5.478C205.465 5.142 205.603 4.8 205.603 4.452C205.603 4.308 205.585 4.182 205.549 4.074C205.357 4.23 205.135 4.308 204.883 4.308C204.559 4.308 204.283 4.206 204.055 4.002C203.839 3.786 203.731 3.504 203.731 3.156C203.731 2.832 203.839 2.562 204.055 2.346C204.283 2.118 204.559 2.004 204.883 2.004Z" fill="#E4B0A2"/>
</svg>
